<?xml version="1.0" standalone="no"?>
<!DOCTYPE svg PUBLIC "-//W3C//DTD SVG 20010904//EN" "http://www.w3.org/TR/2001/REC-SVG-20010904/DTD/svg10.dtd">
<!-- Created using Krita: https://krita.org -->
<svg xmlns="http://www.w3.org/2000/svg" 
    xmlns:xlink="http://www.w3.org/1999/xlink"
    xmlns:krita="http://krita.org/namespaces/svg/krita"
    xmlns:sodipodi="http://sodipodi.sourceforge.net/DTD/sodipodi-0.dtd"
    width="675pt"
    height="675pt"
    viewBox="0 0 675 675">
<defs/>
<path id="shape0" transform="translate(165.087646076795, 587.103505843072)" fill="none" stroke="#f70f4c" stroke-width="1.575" stroke-linecap="square" stroke-linejoin="bevel" d="M0 73.8105C1.12688 69.4157 3.31872 55.983 6.42854 49.9566C13.5477 34.592 25.7285 18.4935 28.7354 0" sodipodi:nodetypes="ccc"/><path id="shape1" transform="translate(172.746537341624, 521.478944020421)" fill="none" stroke="#f70f4c" stroke-width="1.575" stroke-linecap="square" stroke-linejoin="bevel" d="M0.363296 110.402C0.0506963 92.5075 -1.28766 71.5732 4.34741 55.421C14.4465 33.2805 40.4325 -1.46301 82.7665 0.0476625C135.498 3.30107 154.801 39.4189 164.753 69.733C171.335 90.9653 172.198 113.569 176.86 137.892" sodipodi:nodetypes="ccccc"/><path id="shape01" transform="translate(241.64999268533, 369.450014108333)" fill="none" stroke="#f70f4c" stroke-width="1.575" stroke-linecap="square" stroke-linejoin="bevel" d="M0 151.987C19.7437 113.512 44.4528 61.2934 65.8125 23.7375C69.2953 17.6139 77.1413 5.97375 80.8875 0" sodipodi:nodetypes="ccc"/><path id="shape11" transform="translate(334.125001322751, 391.500001549891)" fill="none" stroke="#f70f4c" stroke-width="1.575" stroke-linecap="square" stroke-linejoin="bevel" d="M0 187.425C6.21 163.395 13.5277 130.086 20.25 106.2C30.2813 75.229 36.315 58.455 45.9 27C47.79 18.9 50.31 8.1 52.2 0" sodipodi:nodetypes="cccc"/><path id="shape2" transform="translate(292.202626768782, 334.435377943922)" fill="none" stroke="#f70f4c" stroke-width="1.575" stroke-linecap="square" stroke-linejoin="bevel" d="M9.97235 66.5146C-3.86436 50.7041 -6.43666 19.2938 22.7973 5.53963C56.542 -9.87281 114.49 8.76367 123.372 38.1646C132.804 81.0729 101.46 84.8086 88.0473 84.0646" sodipodi:nodetypes="cccc"/><path id="shape3" transform="translate(310.38751185289, 366.184435887817)" fill="none" stroke="#f70f4c" stroke-width="1.575" stroke-linecap="square" stroke-linejoin="bevel" d="M0 9.22808C2.97 7.37183 6.66418 4.00412 9.9 3.04058C20.691 -0.172712 38.563 -1.44193 48.825 2.25308C61.2985 5.82424 76.5565 23.6557 83.7008 33.3132" sodipodi:nodetypes="cccc"/><path id="shape4" transform="translate(212.038176111531, 96.1010688536352)" fill="none" stroke="#f70f4c" stroke-width="1.575" stroke-linecap="square" stroke-linejoin="bevel" d="M102.819 244.848C94.3427 223.74 90.9233 184.624 86.5368 157.249C76.759 145.226 62.6829 142.37 55.4868 96.9489C45.1145 73.0934 31.1106 58.1088 10.2618 40.6989C0.684121 32.6612 -4.34104 6.95871 4.86182 1.99892C20.3759 -4.23076 53.421 2.0084 80.9118 51.0489C92.9477 72.089 96.9944 90.02 111.569 96.4087" sodipodi:nodetypes="ccccccc"/><path id="shape6" transform="translate(339.568933772943, 17.6188141921954)" fill="none" stroke="#f70f4c" stroke-width="1.575" stroke-linecap="square" stroke-linejoin="bevel" d="M27.631 205.131C27.3835 198.415 21.3283 190.95 22.231 185.219C27.9108 170.939 30.4389 154.924 30.6476 138.757C31.1007 103.652 19.6048 67.2703 6.70607 46.9562C-0.953853 32.6538 -1.79728 12.1027 2.88105 6.23119C19.2932 -8.34509 38.9078 4.831 50.6935 23.3312C59.5951 35.0808 64.4918 55.7647 66.4435 70.4687C74.5457 94.8659 81.5294 127.788 83.881 152.931C87.4598 178.733 84.5424 184.524 86.356 206.144" sodipodi:nodetypes="ccccccccc"/><path id="shape7" transform="translate(417.600013771748, 253.165022615099)" fill="none" stroke="#f70f4c" stroke-width="1.575" stroke-linecap="square" stroke-linejoin="bevel" d="M0 138.222C15.5925 135.86 26.1363 124.109 35.55 116.285C52.1469 98.6304 68.344 71.8513 85.5 56.21C103.137 45.7154 135.22 32.7193 135.675 21.785C136.846 7.16196 116.544 1.34048 107.437 0.297476C80.5574 -2.41856 68.4216 14.1218 58.05 23.135C50.1328 31.829 45.2475 38.5475 27.225 34.385" sodipodi:nodetypes="ccccccc"/><path id="shape8" transform="translate(326.925010074201, 261.900008070454)" fill="none" stroke="#f70f4c" stroke-width="1.575" stroke-linecap="square" stroke-linejoin="bevel" d="M0 0C5.56054 38.7662 10.6726 53.5198 15.75 56.25" sodipodi:nodetypes="cc"/><path id="shape9" transform="translate(352.012510847273, 246.150007585117)" fill="none" stroke="#f70f4c" stroke-width="1.575" stroke-linecap="square" stroke-linejoin="bevel" d="M0 0C0.278433 27.8986 3.9169 53.3084 7.7625 71.1" sodipodi:nodetypes="cc"/><path id="shape10" transform="translate(378.423960565867, 254.475007841652)" fill="none" stroke="#f70f4c" stroke-width="1.575" stroke-linecap="square" stroke-linejoin="bevel" d="M8.68855 0C-0.255602 21.9568 -1.1323 47.6491 0.92605 66.0375" sodipodi:nodetypes="cc"/><path id="shape111" transform="translate(425.7, 221.175)" fill="none" stroke="#f70f4c" stroke-width="1.575" stroke-linecap="square" stroke-linejoin="bevel" d="M31.725 77.175C18.2472 69.0557 10.9277 59.735 4.5 39.6C1.29186 26.0859 1.35 13.2975 0 0" sodipodi:nodetypes="ccc"/><path id="shape011" transform="translate(323.640171672053, 96.5249997176636)" fill="none" stroke="#f70f4c" stroke-width="1.575" stroke-linecap="square" stroke-linejoin="bevel" d="M8.90983 132.187C-4.7518 100.207 0.352835 94.948 4.29733 78.6375C8.02699 69.4021 15.1418 59.5211 18.5848 50.85C26.2813 34.0746 27.8143 12.0684 36.1348 0" sodipodi:nodetypes="cccc"/>
</svg>
