<?xml version="1.0" standalone="no"?>
<!DOCTYPE svg PUBLIC "-//W3C//DTD SVG 20010904//EN" "http://www.w3.org/TR/2001/REC-SVG-20010904/DTD/svg10.dtd">
<!-- Created using Krita: https://krita.org -->
<svg xmlns="http://www.w3.org/2000/svg" 
    xmlns:xlink="http://www.w3.org/1999/xlink"
    xmlns:krita="http://krita.org/namespaces/svg/krita"
    xmlns:sodipodi="http://sodipodi.sourceforge.net/DTD/sodipodi-0.dtd"
    width="675pt"
    height="675pt"
    viewBox="0 0 675 675">
<defs/>
<path id="shape0" transform="translate(444.363583305496, 114.038680958875)" fill="none" stroke="#ff0061" stroke-width="1.125" stroke-linecap="square" stroke-linejoin="bevel" d="M0 19.1272C0.142471 12.0933 9.14392 -2.96007 27.8423 0.512623C39.9707 0.977645 59.2706 15.6508 67.2989 27.4004C74.8722 36.3509 82.4136 49.8834 85.993 58.6633C78.8458 52.5053 73.1326 47.2717 66.6625 43.3898C74.1012 58.6212 85.8456 77.5515 79.9989 100.611C73.0218 92.6408 69.9474 88.7868 59.6364 83.2863C55.3911 81.2068 44.447 76.0529 38.502 72.9027C28.3785 67.7489 19.5295 62.4177 11.9364 45.7113" sodipodi:nodetypes="ccccccccc"/><path id="shape1" transform="translate(303.720048262727, 75.382112927033)" fill="none" stroke="#ff0061" stroke-width="1.125" stroke-linecap="square" stroke-linejoin="bevel" d="M0 9.73587C23.7057 -0.557838 50.2729 -2.79514 70.64 3.531C92.9017 8.40241 111.8 23.3803 121.393 39.3283C134.076 48.138 145.547 63.3482 150.03 75.762C156.755 95.5168 156.994 115.167 151.621 134.788C146.46 150.252 146.079 152.623 138.742 166.381C126.741 186.846 127.104 197.398 127.757 204.792C124.362 203.807 119.792 197.747 117.874 195.912C118.182 202.41 116.117 211.467 113.438 217.838C108.733 225.623 109.81 235.401 109.301 240.589C104.533 236.247 94.5532 219.229 94.1866 209.565C92.9846 212.383 91.6858 222.761 90.0501 222.929C88.898 215.773 81.2109 210.175 79.5112 202.718C78.4662 194.375 77.8085 182.291 77.0925 174.368" sodipodi:nodetypes="cccccccccccccc"/><path id="shape01" transform="translate(199.350010551978, 86.0180479061519)" fill="none" stroke="#ff0061" stroke-width="1.125" stroke-linecap="square" stroke-linejoin="bevel" d="M120.487 0.831957C99.6413 -1.78929 84.8196 1.65629 69.6375 12.982C56.9798 22.0398 42.9721 36.8749 35.162 49.3752C24.4461 66.5262 14.0246 92.2352 11.025 113.782C8.45461 127.649 6.89643 145.242 0 155.407C7.57867 152.652 14.9288 145.192 20.925 139.207" sodipodi:nodetypes="cccccc"/><path id="shape11" transform="translate(200.146570538816, 124.733637282454)" fill="none" stroke="#ff0061" stroke-width="1.125" stroke-linecap="square" stroke-linejoin="bevel" d="M35.0018 53.6164C28.5175 65.8999 23.2664 81.2059 21.6375 94.1866C19.3024 103.921 19.9421 118.038 16.5463 127.279C13.6625 136.232 8.07731 149.086 0 154.167C10.0153 151.53 37.5236 136.326 46.9342 122.904C57.8209 109.434 67.8801 89.5315 76.8448 74.7765C83.9934 61.7176 94.087 42.8129 105.005 35.32C113.641 29.2409 123.301 28.7748 134.836 31.8596C135.986 27.9074 139.784 21.0833 141.916 21.1602C148.613 21.4015 158.343 43.6498 163.077 54.2528C168.896 68.2581 173.081 89.1696 174.213 104.369C174.966 114.474 173.837 128.996 171.827 138.416C181.255 131.204 188.771 105.734 189.805 97.5277C191.272 106.004 195.633 125.601 199.116 130.36C205.376 118.509 214.926 111.576 220.67 102.619C231.363 88.3487 238.403 66.4076 237.058 51.7072C236.593 30.2783 226.343 16.8622 209.215 0" sodipodi:nodetypes="ccccccccccccccccc"/><path id="shape2" transform="translate(326.925019261637, 197.286803315932)" fill="none" stroke="#ff0061" stroke-width="1.125" stroke-linecap="square" stroke-linejoin="bevel" d="M0 11.5132C7.69967 5.57015 18.3624 -2.00548 35.6625 0.488206" sodipodi:nodetypes="cc"/><path id="shape3" transform="translate(269.212515861355, 212.735232266349)" fill="none" stroke="#ff0061" stroke-width="1.125" stroke-linecap="square" stroke-linejoin="bevel" d="M0 0.114782C7.05121 -0.386395 15.5574 0.736157 20.8125 3.82728" sodipodi:nodetypes="cc"/><path id="shape4" transform="translate(336.318750229306, 219.278872217749)" fill="none" stroke="#ff0061" stroke-width="1.125" stroke-linecap="square" stroke-linejoin="bevel" d="M0 16.5774C1.00039 8.24516 5.14088 1.66837 13.0627 0.436884C21.4287 -1.6942 34.5047 4.30987 37.8822 11.0965" sodipodi:nodetypes="ccc"/><path id="shape5" transform="translate(345.110693816526, 222.862510170623)" fill="none" stroke="#ff0061" stroke-width="1.125" stroke-linecap="square" stroke-linejoin="bevel" d="M9.48932 0C2.69066 0.489322 1.1807 4.7901 0.208074 7.70625C-0.734275 14.1303 1.63363 25.1438 5.10182 28.2375C10.412 33.3247 19.809 31.3843 24.1143 25.425C27.7607 17.7548 24.8806 11.233 20.4581 6.075C18.1786 8.31 14.0926 9.09628 11.6831 7.425C9.33113 6.76626 7.37081 3.07656 9.48932 0Z" sodipodi:nodetypes="ccccccc"/><path id="shape6" transform="translate(346.275019388838, 251.495788814128)" fill="none" stroke="#ff0061" stroke-width="1.125" stroke-linecap="square" stroke-linejoin="bevel" d="M0 5.11673C6.81467 4.41434 17.0129 3.88572 27.2099 0" sodipodi:nodetypes="cc"/><path id="shape7" transform="translate(269.242025833032, 233.18542835052)" fill="none" stroke="#ff0061" stroke-width="1.125" stroke-linecap="square" stroke-linejoin="bevel" d="M26.2392 10.2646C22.2399 5.67458 15.6212 -0.458 11.2205 0.027084C6.66084 0.943673 1.21265 9.1893 0.251741 13.8083C-0.690004 18.6945 1.09549 24.1977 4.18924 28.4896" sodipodi:nodetypes="cccc"/><path id="shape8" transform="translate(280.016886557497, 235.575012556688)" fill="none" stroke="#ff0061" stroke-width="1.125" stroke-linecap="square" stroke-linejoin="bevel" d="M5.56438 0C-2.56375 3.03188 0.246348 13.6627 1.51438 19.2938C2.41003 23.2712 6.72774 30.9266 9.67063 31.3875C15.5987 32.726 18.6925 27.3771 19.0081 24.075C17.8103 20.671 17.217 16.8551 15.9706 13.7813C10.0345 16.0992 6.70438 9.80833 6.46438 7.48125C8.05879 6.17148 9.7325 4.96125 11.1331 3.88125" sodipodi:nodetypes="ccccccc"/><path id="shape9" transform="translate(282.162126727823, 264.780559021343)" fill="none" stroke="#ff0061" stroke-width="1.125" stroke-linecap="square" stroke-linejoin="bevel" d="M0 4.89229C5.66539 5.91699 12.6015 2.99443 16.6258 0" sodipodi:nodetypes="cc"/><path id="shape10" transform="translate(313.087512530079, 261.421885462368)" fill="none" stroke="#ff0061" stroke-width="1.125" stroke-linecap="square" stroke-linejoin="bevel" d="M2.64375 0C1.45695 2.20441 0.516156 5.42878 0 7.93125" sodipodi:nodetypes="cc"/><path id="shape111" transform="translate(280.093837558788, 278.661946313103)" fill="none" stroke="#ff0061" stroke-width="1.125" stroke-linecap="square" stroke-linejoin="bevel" d="M3.42063 0C2.39444 2.55354 1.02619 5.95826 0 8.5118" sodipodi:nodetypes="cc"/><path id="shape12" transform="translate(288.366986978304, 279.168752476111)" fill="none" stroke="#ff0061" stroke-width="1.125" stroke-linecap="square" stroke-linejoin="bevel" d="M2.81114 0C2.11906 2.1717 0.692081 5.03779 0 7.2095" sodipodi:nodetypes="cc"/><path id="shape13" transform="translate(356.063623093762, 265.21807850639)" fill="none" stroke="#ff0061" stroke-width="1.125" stroke-linecap="square" stroke-linejoin="bevel" d="M1.75009 0C1.22506 2.69673 0.525027 6.29237 0 8.9891" sodipodi:nodetypes="cc"/><path id="shape14" transform="translate(363.302628835838, 264.263487314967)" fill="none" stroke="#ff0061" stroke-width="1.125" stroke-linecap="square" stroke-linejoin="bevel" d="M2.42626 0C1.8535 2.79219 0.572756 6.43556 0 9.22774" sodipodi:nodetypes="cc"/><path id="shape15" transform="translate(313.265984750499, 278.343748258506)" fill="none" stroke="#ff0061" stroke-width="1.125" stroke-linecap="square" stroke-linejoin="bevel" d="M0 7.31856C4.99571 11.0733 11.4785 16.3157 15.5917 15.5917C20.4874 14.73 25.9252 5.31391 29.672 0" sodipodi:nodetypes="ccc"/><path id="shape16" transform="translate(254.812502778251, 237.037502584448)" fill="none" stroke="#ff0061" stroke-width="1.125" stroke-linecap="square" stroke-linejoin="bevel" d="M0 0C4.1175 8.47125 8.5045 20.3974 11.475 29.3625C13.1029 37.5544 14.7824 48.9446 18.5625 55.2375C25.0898 62.5823 41.8992 67.3041 52.425 68.9625C61.6266 70.4226 71.8805 72.2224 81.45 72.225C97.8454 66.9893 115.706 53.955 130.388 46.125" sodipodi:nodetypes="cccccc"/><path id="shape17" transform="translate(237.057555034524, 252.331061936078)" fill="none" stroke="#ff0061" stroke-width="1.125" stroke-linecap="square" stroke-linejoin="bevel" d="M6.52306 0C5.75938 12.2347 1.42186 24.3101 0 34.6836C2.20619 46.2993 12.1818 64.1042 13.3643 73.981C15.2712 67.2256 18.2412 55.7433 20.0465 54.7301C21.7898 59.4891 24.0525 81.6167 26.1718 85.1689C29.2805 80.1034 38.0303 75.3288 42.6385 71.2763C45.8298 67.3518 49.1982 58.4577 50.2753 55.3665C52.0641 62.195 57.824 70.8079 60.7758 72.7083C61.7837 66.1702 64.6738 58.7871 66.3443 52.8209" sodipodi:nodetypes="ccccccccc"/><path id="shape18" transform="translate(361.012507379095, 297.225006075278)" fill="none" stroke="#ff0061" stroke-width="1.125" stroke-linecap="square" stroke-linejoin="bevel" d="M0.675 0C0.4725 2.565 0.2025 5.985 0 8.55" sodipodi:nodetypes="cc"/><path id="shape19" transform="translate(308.925006314426, 299.812506128167)" fill="none" stroke="#ff0061" stroke-width="1.125" stroke-linecap="square" stroke-linejoin="bevel" d="M18.8438 29.9813C13.9501 26.6063 2.25948 18.7527 0 15.1875C7.40272 13.2645 17.7652 9.95448 27.5062 10.0125C37.0841 5.90886 45.5593 7.12575 51.8625 6.46875C58.0424 5.18493 69.7767 1.76291 73.575 0C72.5693 3.57401 65.7113 15.3225 60.975 21.4875" sodipodi:nodetypes="cccccc"/><path id="shape20" transform="translate(282.599998327527, 323.925622573162)" fill="none" stroke="#ff0061" stroke-width="1.125" stroke-linecap="square" stroke-linejoin="bevel" d="M36.6322 0C34.6037 2.36262 31.8761 5.39805 29.8705 7.8754C24.868 23.5254 16.3007 40.9566 11.7332 55.5256C7.38061 69.4092 3.51996 88.5297 0 102.674" sodipodi:nodetypes="cccc"/><path id="shape21" transform="translate(244.614751727551, 341.100019097299)" fill="none" stroke="#ff0061" stroke-width="1.125" stroke-linecap="square" stroke-linejoin="bevel" d="M64.8728 0C55.5731 8.53683 41.3769 26.4655 30.1103 41.9625C17.2862 59.6018 6.51364 76.1942 0 86.6377C5.30926 89.7006 16.3986 94.9878 21.6375 95.7064C24.2259 91.2369 24.4789 90.1661 28.0014 84.649C31.8758 78.5809 40.9264 61.0884 44.7353 56.8125" sodipodi:nodetypes="cccccc"/><path id="shape22" transform="translate(375.473687634965, 313.663718293362)" fill="none" stroke="#ff0061" stroke-width="1.125" stroke-linecap="square" stroke-linejoin="bevel" d="M0 0C3.75473 5.36164 5.71781 7.69572 7.63675 10.2619C10.1906 28.3156 10.1041 56.1705 11.6142 75.8107C12.3638 85.5597 14.2927 98.8676 14.6371 108.267" sodipodi:nodetypes="cccc"/><path id="shape23" transform="translate(385.099189965281, 343.017497857941)" fill="none" stroke="#ff0061" stroke-width="1.125" stroke-linecap="square" stroke-linejoin="bevel" d="M0 0C22.9659 25.0899 59.0617 55.258 73.6628 64.7533C71.5031 69.6098 62.8719 77.5293 56.4006 80.6632C44.0198 73.1113 18.2566 55.1596 1.90919 44.2295" sodipodi:nodetypes="cccc"/><path id="shape24" transform="translate(306.337523133004, 441.337533327496)" fill="none" stroke="#ff0061" stroke-width="1.125" stroke-linecap="square" stroke-linejoin="bevel" d="M0 0C4.69177 4.54959 10.1621 8.54019 15.7047 12.2746C23.3192 17.405 31.0699 22.0518 37.125 27" sodipodi:nodetypes="ccc"/><path id="shape25" transform="translate(252.562519072197, 414.534393030318)" fill="none" stroke="#ff0061" stroke-width="1.125" stroke-linecap="square" stroke-linejoin="bevel" d="M42.1031 0C32.3406 9.03626 23.165 22.2448 18.1125 34.6781C14.6431 41.9717 10.7618 52.2139 8.8875 60.1031C6.22354 69.1098 4.54265 76.7285 0 86.8781C20.276 89.4181 36.1496 96.2907 50.2875 105.103C63.434 111.999 78.5713 118.709 95.3866 114.178C114.128 110.453 125.933 102.569 138.98 96.3724" sodipodi:nodetypes="ccccccc"/><path id="shape26" transform="translate(289.913302694576, 512.887500763269)" fill="none" stroke="#ff0061" stroke-width="1.125" stroke-linecap="square" stroke-linejoin="bevel" d="M0.111695 0C-1.00206 20.745 6.48554 38.7172 10.4656 52.8686C14.5741 63.939 17.9083 76.9511 22.3867 85.3875C31.1922 85.0947 42.3212 85.5571 49.3867 85.05C48.0686 69.0091 38.0467 36.54 33.1867 15.75" sodipodi:nodetypes="ccccc"/><path id="shape011" transform="translate(357.075021960283, 511.087531432125)" fill="none" stroke="#ff0061" stroke-width="1.125" stroke-linecap="square" stroke-linejoin="bevel" d="M0 15.525C8.6175 36.54 22.6884 72.5387 26.1 87.075C33.832 87.0694 45.4827 87.3932 52.2 86.5125C47.4517 67.7375 38.1375 28.5413 34.2 0" sodipodi:nodetypes="cccc"/><path id="shape1111" transform="translate(252.67501613132, 501.412532011262)" fill="none" stroke="#ff0061" stroke-width="1.125" stroke-linecap="square" stroke-linejoin="bevel" d="M0 0C12.1868 2.15502 29.2195 7.24029 43.1696 14.1479" sodipodi:nodetypes="cc"/><path id="shape211" transform="translate(400.452253537594, 496.707167690935)" fill="none" stroke="#ff0061" stroke-width="1.125" stroke-linecap="square" stroke-linejoin="bevel" d="M25.2967 0C14.8224 3.47454 8.20693 5.73809 0 9.86414" sodipodi:nodetypes="cc"/><path id="shape0111" transform="translate(366.484605645953, 412.875002480893)" fill="none" stroke="#ff0061" stroke-width="1.125" stroke-linecap="square" stroke-linejoin="bevel" d="M18.7154 0C25.9716 13.0275 36.3798 30.0402 42.9029 43.425C48.742 55.4063 53.9224 71.1332 59.1053 83.4344C45.1024 86.6614 39.2683 90.1913 31.2629 94.8497C23.8678 98.8414 7.11054 107.242 0 110.243" sodipodi:nodetypes="ccccc"/>
</svg>
