<?xml version="1.0" standalone="no"?>
<!DOCTYPE svg PUBLIC "-//W3C//DTD SVG 20010904//EN" "http://www.w3.org/TR/2001/REC-SVG-20010904/DTD/svg10.dtd">
<!-- Created using Krita: https://krita.org -->
<svg xmlns="http://www.w3.org/2000/svg" 
    xmlns:xlink="http://www.w3.org/1999/xlink"
    xmlns:krita="http://krita.org/namespaces/svg/krita"
    xmlns:sodipodi="http://sodipodi.sourceforge.net/DTD/sodipodi-0.dtd"
    width="675pt"
    height="675pt"
    viewBox="0 0 675 675">
<defs/>
<path id="shape0" transform="translate(479.812498077215, 398.543045597982)" fill="none" stroke="#f70f4c" stroke-width="1.575" stroke-linecap="square" stroke-linejoin="bevel" d="M0 75.757C30.178 54.3745 66.2437 17.303 86.1027 0" sodipodi:nodetypes="cc"/><path id="shape1" transform="translate(458.205175201855, 464.091838911045)" fill="none" stroke="#f70f4c" stroke-width="1.575" stroke-linecap="square" stroke-linejoin="bevel" d="M20.9886 40.3582C21.0306 25.3935 20.4752 2.65431 0 0" sodipodi:nodetypes="cc"/><path id="shape2" transform="translate(372.768772411043, 346.331270821607)" fill="none" stroke="#f70f4c" stroke-width="1.575" stroke-linecap="square" stroke-linejoin="bevel" d="M89.9437 160.031C88.6612 151.796 88.746 137.796 85.7812 130.219C64.6003 98.0147 24.03 35.775 0 0" sodipodi:nodetypes="ccc"/><path id="shape3" transform="translate(311.038590667617, 456.136899971385)" fill="none" stroke="#f70f4c" stroke-width="1.575" stroke-linecap="square" stroke-linejoin="bevel" d="M0 0C58.1218 68.5132 66.33 83.0359 131.761 137.863C212.454 109.15 267.301 55.545 309.061 15.1256" sodipodi:nodetypes="ccc"/><path id="shape4" transform="translate(301.238019870558, 343.638623195397)" fill="none" stroke="#f70f4c" stroke-width="1.575" stroke-linecap="square" stroke-linejoin="bevel" d="M26.9245 50.5614C10.8166 75.4326 -5.9372 106.914 2.062 115.699C11.0916 118.74 48.8272 61.0695 52.7971 51.8418C57.4971 42.4567 75.1555 9.20248 70.7433 0.892628C66.4628 -1.11314 63.9317 -1.21154 51.6745 16.8676" sodipodi:nodetypes="ccccc"/><path id="shape6" transform="translate(242.11960779785, 87.9031645617879)" fill="none" stroke="#f70f4c" stroke-width="1.575" stroke-linecap="square" stroke-linejoin="bevel" d="M59.1344 116.062C58.0146 111.719 54.1011 90.0646 50.8206 68.2145C48.741 54.363 46.9158 40.4328 46.2179 30.7843C45.795 24.7594 45.8109 -0.7195 36.5429 0.0155881C20.2949 2.62296 23.1245 51.096 26.2804 73.105C30.5209 90.0005 40.8227 114.634 43.304 127.676C34.5872 120.449 11.1047 97.3886 2.89289 122.267C0.597321 133.56 -0.460259 142.565 0.188206 149.95C3.81956 155.913 9.02377 157.917 10.5296 158.7" sodipodi:nodetypes="ccccccccc"/><path id="shape7" transform="translate(267.86251217382, 213.192693942702)" fill="none" stroke="#f70f4c" stroke-width="1.575" stroke-linecap="square" stroke-linejoin="bevel" d="M0.0602465 0C0.810999 6.5093 0.862008 12.2959 0 19.1198" sodipodi:nodetypes="cc"/><path id="shape8" transform="translate(221.444637834532, 233.662502441156)" fill="none" stroke="#f70f4c" stroke-width="1.575" stroke-linecap="square" stroke-linejoin="bevel" d="M20.2054 0C13.9954 1.9575 6.19373 1.42426 0.517863 5.85C-1.5556 10.133 3.0319 48.4431 6.59286 55.4625C14.8539 59.1018 26.7762 52.0604 31.5679 46.6875" sodipodi:nodetypes="cccc"/><path id="shape9" transform="translate(202.394205314011, 259.979851702262)" fill="none" stroke="#f70f4c" stroke-width="1.575" stroke-linecap="square" stroke-linejoin="bevel" d="M19.3433 0.570159C12.4894 -1.53817 1.51873 2.43194 0.443302 8.67016C-2.40276 22.8564 9.14097 38.8352 15.5183 44.6702C20.2051 47.9705 35.0107 53.5059 38.0183 46.0764C41.1357 42.6162 41.8208 37.5826 39.6495 32.6327" sodipodi:nodetypes="ccccc"/><path id="shape10" transform="translate(265.317211923207, 259.808712840428)" fill="none" stroke="#f70f4c" stroke-width="1.575" stroke-linecap="square" stroke-linejoin="bevel" d="M32.8344 50.1957C25.7948 56.1353 22.7826 61.0821 9.52635 60.7758C3.39418 60.0163 -1.24412 50.8018 0.298616 45.8205C6.52389 32.4995 18.6586 5.31391 34.9027 0" sodipodi:nodetypes="cccc"/><path id="shape11" transform="translate(238.051918783212, 308.493012879298)" fill="none" stroke="#f70f4c" stroke-width="1.575" stroke-linecap="square" stroke-linejoin="bevel" d="M97.9856 93.4695C77.8284 75.4277 60.1445 44.9392 44.0981 16.5195C37.9813 19.2922 20.8492 29.1951 17.5407 25.5354C12.8827 20.6392 4.43886 7.52538 0 0" sodipodi:nodetypes="cccc"/><path id="shape01" transform="translate(248.209729574718, 201.262499094523)" fill="none" stroke="#f70f4c" stroke-width="1.575" stroke-linecap="square" stroke-linejoin="bevel" d="M50.8153 41.2875C40.5941 51.5602 27.7396 61.8904 17.6447 71.5923C14.073 74.8013 -3.5512 74.9961 0.640288 50.625C15.8541 34.658 38.8119 12.2241 55.5403 0C67.3973 23.4702 74.5847 40.1151 83.8299 61.2508C84.0483 70.9872 74.3881 86.104 70.39 96.6939C82.0348 120.989 95.291 155.181 117.359 171.45" sodipodi:nodetypes="ccccccc"/>
</svg>
