<?xml version="1.0" standalone="no"?>
<!DOCTYPE svg PUBLIC "-//W3C//DTD SVG 20010904//EN" "http://www.w3.org/TR/2001/REC-SVG-20010904/DTD/svg10.dtd">
<!-- Created using Krita: https://krita.org -->
<svg xmlns="http://www.w3.org/2000/svg" 
    xmlns:xlink="http://www.w3.org/1999/xlink"
    xmlns:krita="http://krita.org/namespaces/svg/krita"
    xmlns:sodipodi="http://sodipodi.sourceforge.net/DTD/sodipodi-0.dtd"
    width="675pt"
    height="675pt"
    viewBox="0 0 675 675">
<defs/>
<path id="shape0" transform="translate(597.712519591354, 427.950014027012)" fill="none" stroke="#ff0061" stroke-width="2.25" stroke-linecap="square" stroke-linejoin="bevel" d="M0 18.225C12.6563 13.0275 29.1938 5.1975 41.85 0" sodipodi:nodetypes="cc"/><path id="shape1" transform="translate(585.112509912167, 474.075008031123)" fill="none" stroke="#ff0061" stroke-width="2.25" stroke-linecap="square" stroke-linejoin="bevel" d="M0 22.1625C17.9888 15.5138 41.9738 6.64875 59.9625 0" sodipodi:nodetypes="cc"/><path id="shape2" transform="translate(556.130654700198, 428.53323371048)" fill="none" stroke="#ff0061" stroke-width="2.25" stroke-linecap="square" stroke-linejoin="bevel" d="M0 36.911C3.09448 24.4853 9.09578 1.02872 15.3531 0C22.6401 2.0004 24.079 10.5761 27.2855 13.603C32.5934 13.0246 37.4431 10.4939 38.9793 12.012C44.3633 17.3327 37.0724 41.1898 33.8881 53.0595C30.7381 62.7114 26.4988 75.4343 21.9557 81.2201C18.6869 83.4941 12.1395 83.4082 7.26936 82.8355" sodipodi:nodetypes="ccccccc"/><path id="shape3" transform="translate(547.134717685412, 503.100032222548)" fill="none" stroke="#ff0061" stroke-width="2.25" stroke-linecap="square" stroke-linejoin="bevel" d="M0.0653175 0C-0.395933 5.31 1.50952 13.0129 8.22154 11.5875C10.9321 11.2499 14.7466 7.785 17.8403 3.375" sodipodi:nodetypes="ccc"/><path id="shape4" transform="translate(554.698734030459, 447.943291456406)" fill="none" stroke="#ff0061" stroke-width="2.25" stroke-linecap="square" stroke-linejoin="bevel" d="M13.7621 0C16.16 22.9513 8.7774 45.169 0 59.2644" sodipodi:nodetypes="cc"/><path id="shape5" transform="translate(381.066763247767, 461.025021047384)" fill="none" stroke="#ff0061" stroke-width="2.25" stroke-linecap="square" stroke-linejoin="bevel" d="M187.733 0C150.473 16.5375 101.436 40.223 63.5332 55.125C51.2872 59.9396 35.683 63.189 22.1697 69.4907C19.2463 74.236 20.3225 78.2346 15.8159 82.382C10.4736 88.0968 2.53589 91.465 0.252001 94.5562C-1.68403 101.537 8.01627 105.167 12.9082 103.05C19.8217 99.3234 24.4948 88.5266 30.5707 83.7C41.6121 81.8154 58.4197 81.8163 60.9103 67.661" sodipodi:nodetypes="cccccccc"/><path id="shape6" transform="translate(454.162512199568, 499.612513420431)" fill="none" stroke="#ff0061" stroke-width="2.25" stroke-linecap="square" stroke-linejoin="bevel" d="M103.838 0C72.8213 9.34875 29.3979 21.7822 0.45 31.1625C-0.100676 33.9982 0.135 38.1713 0 41.175" sodipodi:nodetypes="ccc"/><path id="shape7" transform="translate(408.262511729368, 538.3125154657)" fill="none" stroke="#ff0061" stroke-width="2.25" stroke-linecap="square" stroke-linejoin="bevel" d="M43.3125 26.2125C48.3075 25.6388 55.3257 24.9884 59.9625 24.3C62.1924 13.7086 63.7209 4.52586 64.575 0C53.858 1.71883 19.3725 7.79625 0 11.1375" sodipodi:nodetypes="cccc"/><path id="shape8" transform="translate(342.787517028733, 554.287527535466)" fill="none" stroke="#ff0061" stroke-width="2.25" stroke-linecap="square" stroke-linejoin="bevel" d="M39.15 0C27.7763 2.0925 15.2666 4.27643 1.2375 6.975C0.891672 12.2004 0.605618 16.2891 0 20.5875C1.42483 23.0437 4.21022 26.2158 5.0625 28.0125C16.8176 26.2085 30.6631 23.6326 41.8344 21.8101" sodipodi:nodetypes="ccccc"/><path id="shape9" transform="translate(384.890652182707, 566.550040012309)" fill="none" stroke="#ff0061" stroke-width="2.25" stroke-linecap="square" stroke-linejoin="bevel" d="M0 10.0406C2.17136 7.13412 6.82755 3.07548 9.45 0C14.9908 0.978404 23.368 1.07489 24.7781 3.37498C23.7016 5.15711 20.2709 11.0518 17.4375 12.6281C7.06536 15.0695 2.34463 13.8707 0 10.0406Z" sodipodi:nodetypes="ccccc"/><path id="shape10" transform="translate(405.056255498712, 555.862507545934)" fill="none" stroke="#ff0061" stroke-width="2.25" stroke-linecap="square" stroke-linejoin="bevel" d="M5.2875 14.1188C9.98221 14.0595 9.02883 4.16533 10.4625 0C13.7721 0.392218 19.8179 0.333523 23.1188 1.0125C23.419 6.1897 22.0598 16.0886 18.9427 21.1101C13.7721 22.8224 0.865706 24.5007 0 21.4875" sodipodi:nodetypes="ccccc"/><path id="shape11" transform="translate(424.68751466125, 556.70800102259)" fill="none" stroke="#ff0061" stroke-width="2.25" stroke-linecap="square" stroke-linejoin="bevel" d="M3.71249 0.532625C7.50936 0.600125 13.3278 -0.842708 16.3687 0.757625C16.7371 4.24378 15.4556 13.0112 12.6563 16.0295C9.57042 20.3747 4.31395 20.1767 0 20.1358" sodipodi:nodetypes="cccc"/><path id="shape12" transform="translate(439.03377732142, 557.189755184618)" fill="none" stroke="#ff0061" stroke-width="2.25" stroke-linecap="square" stroke-linejoin="bevel" d="M2.94333 0.492125C6.13327 -0.502243 12.5343 0.0676175 13.4439 1.68537C13.0904 4.58013 10.6611 12.0543 7.79585 13.8962C6.13555 14.9635 2.65695 14.5207 0 13.936" sodipodi:nodetypes="cccc"/><path id="shape13" transform="translate(330.35128566334, 572.413372279809)" fill="none" stroke="#ff0061" stroke-width="2.25" stroke-linecap="square" stroke-linejoin="bevel" d="M12.348 2.8887C10.7882 2.91257 8.03219 3.94478 6.72685 2.68665C3.60329 -3.05014 -0.774226 1.8004 0.117475 4.34603C2.49009 9.73834 6.70941 7.36437 6.69873 3.3054" sodipodi:nodetypes="cccc"/><path id="shape14" transform="translate(321.539139939096, 577.489704697642)" fill="none" stroke="#ff0061" stroke-width="2.25" stroke-linecap="square" stroke-linejoin="bevel" d="M9.30729 0C6.75916 0.30375 2.54813 0.809943 0 1.11369" sodipodi:nodetypes="cc"/><path id="shape15" transform="translate(210.396770154605, 568.57503098032)" fill="none" stroke="#ff0061" stroke-width="2.25" stroke-linecap="square" stroke-linejoin="bevel" d="M105.391 0C90.634 3.53743 97.4247 2.46193 77.1747 6.64752C59.9339 10.7433 14.5777 18.7387 0.0116923 21.046C-0.2359 25.7701 3.51426 35.9878 5.04074 40.1625C29.063 36.4003 45.8484 35.4101 64.6657 32.85C80.3885 28.9822 101.328 22.9606 113.941 19.125C112.676 11.8815 109.071 5.11544 105.391 0Z" sodipodi:nodetypes="ccccccc"/><path id="shape01" transform="translate(62.2077211012017, 576.90001805449)" fill="none" stroke="#ff0061" stroke-width="2.25" stroke-linecap="square" stroke-linejoin="bevel" d="M150.11 23.8579C147.867 23.8579 145.401 24.3245 143.02 23.4281C143.092 28.0362 135.61 28.5398 135.736 21.9938C136.263 25.7388 129.71 24.6967 125.092 24.4147C124.889 21.5629 124.991 17.9823 124.972 14.8688C113.219 15.1016 105.199 14.9901 91.9173 13.8375C67.879 10.7448 23.4591 2.70512 2.25478 0C0.377197 5.19485 0.172083 12.971 0 17.3746C45.3886 25.4585 79.2694 31.0833 123.222 33.8016C123.994 32.1115 124.929 25.0274 124.992 22.275" sodipodi:nodetypes="cccccccccc"/><path id="shape111" transform="translate(197.353131740752, 595.579685211261)" fill="none" stroke="#ff0061" stroke-width="2.25" stroke-linecap="square" stroke-linejoin="bevel" d="M0 4.88908C1.43409 -2.15753 7.35793 -0.680156 7.84485 3.62703" sodipodi:nodetypes="cc"/>
</svg>
