<?xml version="1.0" standalone="no"?>
<!DOCTYPE svg PUBLIC "-//W3C//DTD SVG 20010904//EN" "http://www.w3.org/TR/2001/REC-SVG-20010904/DTD/svg10.dtd">
<!-- Created using Krita: https://krita.org -->
<svg xmlns="http://www.w3.org/2000/svg" 
    xmlns:xlink="http://www.w3.org/1999/xlink"
    xmlns:krita="http://krita.org/namespaces/svg/krita"
    xmlns:sodipodi="http://sodipodi.sourceforge.net/DTD/sodipodi-0.dtd"
    width="675pt"
    height="675pt"
    viewBox="0 0 675 675">
<defs/>
<path id="shape0" transform="translate(512.424030062554, 493.655898996403)" fill="none" stroke="#f70f4c" stroke-width="1.575" stroke-linecap="square" stroke-linejoin="bevel" d="M11.9947 2.58162C16.004 7.38785 14.0967 10.2896 11.2072 12.8754C5.2762 17.1632 -0.833815 11.4712 0.125995 7.81287C-0.980638 2.57107 5.38669 -3.5879 11.9947 2.58162Z" sodipodi:nodetypes="cccc"/><path id="shape1" transform="translate(493.118034423227, 472.815651805415)" fill="none" stroke="#f70f4c" stroke-width="1.575" stroke-linecap="square" stroke-linejoin="bevel" d="M26.8971 0.0266365C37.2445 -0.27453 50.0028 8.03515 52.0347 17.2889C55.9048 29.1261 52.3004 42.604 44.6366 48.5518C35.2215 55.6744 25.5784 54.5121 15.0445 51.6594C5.67189 48.3167 -7.1859 26.3771 4.94144 11.084C8.93025 5.78092 20.3704 -0.458652 26.8971 0.0266365Z" sodipodi:nodetypes="cccccc"/><path id="shape2" transform="translate(462.421872113029, 448.330871170696)" fill="none" stroke="#f70f4c" stroke-width="1.575" stroke-linecap="square" stroke-linejoin="bevel" d="M50.1281 106.857C29.0367 105.691 14.6681 93.6313 1.86564 72.3191C-2.39339 60.8667 1.56406 46.9126 4.56563 34.1816C9.94834 20.5821 20.0521 9.81228 38.9906 2.68163C58.5331 -2.87105 79.0686 -0.0144209 93.6657 13.2566C108.046 27.5554 111.737 43.7771 109.528 61.6316C106.646 72.9039 100.308 87.6961 85.5152 98.3334C75.9421 105.513 49.3919 113.837 23.6906 97.6316" sodipodi:nodetypes="cccccccc"/><path id="shape3" transform="translate(434.260775037666, 427.624333051932)" fill="none" stroke="#f70f4c" stroke-width="1.575" stroke-linecap="square" stroke-linejoin="bevel" d="M12.1392 82.9007C16.3156 65.2568 25.6692 43.5472 41.0517 27.8882C52.727 17.2094 68.4546 8.47403 77.1642 6.85069C107.925 4.28112 124.617 23.2269 132.609 35.5129C140.136 47.0828 144.55 67.12 142.633 83.8791C148.319 84.5952 151.142 83.716 154.724 81.9699C153.012 67.9104 150.236 39.2288 140.564 27.0807C130.717 14.7132 106.596 2.2081 89.3341 0.51116C72.5584 -2.75001 49.6872 10.2241 38.4224 21.5122C22.6721 35.9644 9.13371 59.2551 0 79.6629" sodipodi:nodetypes="cccccccccc"/><path id="shape4" transform="translate(580.275033399069, 461.203072556318)" fill="none" stroke="#f70f4c" stroke-width="1.575" stroke-linecap="square" stroke-linejoin="bevel" d="M0 1.28445C7.21125 0.688204 16.1367 -0.216532 22.05 0.0469541C23.2945 5.84376 24.5459 15.6386 24.075 25.022C17.9078 24.98 11.1263 22.9182 5.2875 21.872" sodipodi:nodetypes="cccc"/><path id="shape6" transform="translate(450.727543506824, 322.334628713317)" fill="none" stroke="#f70f4c" stroke-width="1.575" stroke-linecap="square" stroke-linejoin="bevel" d="M105.483 76.0493C107.674 60.1472 102.239 27.1207 83.76 13.9279C71.6689 3.73521 56.8827 0.854954 5.09117 0C3.96 18.8204 0.763686 56.4531 0 73.3447C31.6681 73.9494 78.8378 76.0705 105.483 76.0493Z" sodipodi:nodetypes="ccccc"/><path id="shape7" transform="translate(424.912502807438, 322.650010668374)" fill="none" stroke="#f70f4c" stroke-width="1.575" stroke-linecap="square" stroke-linejoin="bevel" d="M16.3125 0C11.34 28.4625 6.87507 62.1198 4.38752 89.55C2.78303 107.243 1.5687 130.751 1.575 148.95C1.06596 157.929 2.25862 168.299 0 178.875" sodipodi:nodetypes="cccc"/><path id="shape8" transform="translate(309.765814751886, 315.662317659137)" fill="none" stroke="#f70f4c" stroke-width="1.575" stroke-linecap="square" stroke-linejoin="bevel" d="M113.065 5.13145C68.204 0.64961 21.1993 -4.3942 13.7621 6.67231C2.80594 26.241 0.634588 59.1706 0 80.4943C33.1448 80.0045 74.1655 79.8163 107.71 77.1532C109.905 52.5659 112.019 22.0351 113.065 5.13145Z" sodipodi:nodetypes="ccccc"/><path id="shape9" transform="translate(282.400772437317, 385.762509076774)" fill="none" stroke="#f70f4c" stroke-width="1.575" stroke-linecap="square" stroke-linejoin="bevel" d="M4.58673 0C3.67987 20.476 6.47296 44.2368 4.77297 64.6468C3.95933 74.4153 1.19324 102.163 0 111.899" sodipodi:nodetypes="ccc"/><path id="shape10" transform="translate(294.01500138826, 398.92500938648)" fill="none" stroke="#f70f4c" stroke-width="1.575" stroke-linecap="square" stroke-linejoin="bevel" d="M7.59751 0C7.93161 19.1396 6.2378 36.6908 5.40937 55.78C4.77385 70.424 3.43654 84.7678 0 99.214" sodipodi:nodetypes="csc"/><path id="shape11" transform="translate(253.124997962782, 423.89999658834)" fill="none" stroke="#f70f4c" stroke-width="1.575" stroke-linecap="square" stroke-linejoin="bevel" d="M0 0C2.9025 10.935 7.8975 25.4025 9.675 36.45" sodipodi:nodetypes="cc"/><path id="shape12" transform="translate(205.312498104156, 423.787496611569)" fill="none" stroke="#f70f4c" stroke-width="1.575" stroke-linecap="square" stroke-linejoin="bevel" d="M0 0C4.14 10.5075 13.185 33.03 14.625 43.0875" sodipodi:nodetypes="cc"/><path id="shape13" transform="translate(229.050005389417, 419.175009862951)" fill="none" stroke="#f70f4c" stroke-width="1.575" stroke-linecap="square" stroke-linejoin="bevel" d="M0 0C4.28625 13.2975 11.1263 23.265 13.6125 37.2375" sodipodi:nodetypes="cc"/><path id="shape14" transform="translate(56.9249135017232, 422.624243592799)" fill="none" stroke="#f70f4c" stroke-width="1.575" stroke-linecap="square" stroke-linejoin="bevel" d="M378.37 85.2198C343.068 84.0385 340.656 82.7953 305.344 82.0379C286.686 81.6378 266.629 80.8024 245.045 80.606C231.491 80.4826 172.303 79.6559 160.404 79.9696C152.378 66.9066 140.825 38.2755 129.857 23.4894C120.151 9.4987 102.296 -2.85214 71.1498 0.579157C53.7954 1.83795 26.9863 18.5134 15.3001 32.3258C1.56938 44.4938 -0.0138391 65.0183 9.0256e-05 74.1758C4.9628 85.9646 12.0366 83.7628 15.6376 80.8133C15.6944 63.2724 20.7536 49.4565 27.9001 37.2758C31.7846 29.7758 38.7427 21.173 45.6751 14.7758C61.2452 5.76127 80.4518 6.23305 93.0376 8.70076C99.9532 9.59229 110.065 13.2926 115.313 17.7008C123.999 24.998 131.233 40.7543 136.35 51.4508C141.546 62.3118 146.638 77.8928 149.625 89.5883" sodipodi:nodetypes="ccccccccccccccc"/><path id="shape15" transform="translate(78.129790662763, 434.012745039184)" fill="none" stroke="#f70f4c" stroke-width="1.575" stroke-linecap="square" stroke-linejoin="bevel" d="M65.5366 112.333C54.7029 114.576 29.0391 109.504 17.8069 102.31C10.298 95.8031 1.5293 79.7786 0.282712 71.8998C-1.56848 54.9104 5.60773 28.1067 23.6936 14.9647C31.3161 7.35585 48.8944 -0.305604 59.4909 0.00939234C70.9573 0.35025 88.8666 10.2126 97.1973 18.4649C103.336 28.6309 107.753 45.863 106.902 58.5578C104.081 76.7 82.4822 106.538 65.5366 112.333Z" sodipodi:nodetypes="cccccccc"/><path id="shape16" transform="translate(101.44512400739, 465.075019814747)" fill="none" stroke="#f70f4c" stroke-width="1.575" stroke-linecap="square" stroke-linejoin="bevel" d="M27.8174 54.45C14.5909 55.4405 -0.768663 37.9359 0.0298803 25.5375C1.42541 12.9065 12.2517 2.62496 29.0549 0C44.3258 0.323659 58.7797 11.4844 56.7299 27.225C55.8992 45.6408 41.8414 54.4734 27.8174 54.45Z" sodipodi:nodetypes="ccccc"/><path id="shape17" transform="translate(121.436067670177, 482.829965146506)" fill="none" stroke="#f70f4c" stroke-width="1.575" stroke-linecap="square" stroke-linejoin="bevel" d="M8.86604 14.6727C3.6925 15.4983 -2.21039 8.43329 0.831536 3.69486C2.30659 -1.00375 13.1703 -1.07828 15.5482 2.66072C19.1559 8.85699 14.4901 14.8629 8.86604 14.6727Z" sodipodi:nodetypes="cccc"/><path id="shape18" transform="translate(111.825007872741, 403.195055393246)" fill="none" stroke="#f70f4c" stroke-width="1.575" stroke-linecap="square" stroke-linejoin="bevel" d="M171.562 2.0862C144.165 1.32253 107.76 2.87747 79.8893 0.598262C50.5803 -0.898516 26.632 0.714498 0 2.14247" sodipodi:nodetypes="ccc"/><path id="shape19" transform="translate(92.277439211594, 380.925022811621)" fill="none" stroke="#f70f4c" stroke-width="1.575" stroke-linecap="square" stroke-linejoin="bevel" d="M0 16.1066C1.88356 4.75545 1.08741 3.13086 2.05381 0C7.91697 1.45451 14.7061 7.52273 18.0288 9.45C17.5301 23.9342 12.1817 44.2361 11.6725 49.725" sodipodi:nodetypes="cccc"/><path id="shape20" transform="translate(59.9420185270594, 393.671583657247)" fill="none" stroke="#f70f4c" stroke-width="1.575" stroke-linecap="square" stroke-linejoin="bevel" d="M13.8799 0.0189607C6.75104 -0.262624 1.12959 2.52603 0.197414 12.8264C-0.885337 21.4934 2.65324 29.8519 6.72047 30.0091C16.4906 28.7629 32.7247 25.3308 37.1084 18.7926" sodipodi:nodetypes="cccc"/><path id="shape21" transform="translate(83.2800831389098, 420.412499344253)" fill="none" stroke="#f70f4c" stroke-width="1.575" stroke-linecap="square" stroke-linejoin="bevel" d="M1.03867 0C-0.189715 7.46393 -0.150333 16.4931 0.251168 23.5125" sodipodi:nodetypes="cc"/><path id="shape011" transform="translate(178.087510956618, 293.962487283172)" fill="none" stroke="#f70f4c" stroke-width="1.575" stroke-linecap="square" stroke-linejoin="bevel" d="M415.193 216.029C418.872 221.768 424.156 222.668 431.262 223.428C437.617 224.246 447.119 217.899 449.1 211.163C450.838 201.957 441.646 194.122 435.6 191.7C436.332 174.494 437.696 159.064 405.562 117.788C396.224 86.0535 381.874 32.5413 349.424 14.85C322.873 -0.90891 268.923 0.521114 234.337 0C200.238 0.364851 139.604 3.73205 127.969 8.55001C117.595 13.399 123.52 18.8293 129.491 22.1275C125.694 42.6038 130.283 74.6827 108.562 91.6875C67.7325 94.478 89.4365 93.322 61.0875 94.05C47.9338 93.7495 16.0071 93.6251 0 93.4875" sodipodi:nodetypes="cccccccccccc"/><path id="shape111" transform="translate(109.301031933213, 387.514818269153)" fill="none" stroke="#f70f4c" stroke-width="1.575" stroke-linecap="square" stroke-linejoin="bevel" d="M0 2.31758C7.37198 2.63133 62.4057 -0.764789 86.3365 0.160207" sodipodi:nodetypes="cc"/><path id="shape0" transform="translate(67.1341169288668, 393.929205978459)" fill="none" stroke="#f70f4c" stroke-width="1.575" stroke-linecap="square" stroke-linejoin="bevel" d="M2.55126 29.5924C-3.25084 20.7172 2.02272 7.97706 6.68784 0C13.3577 0.0650669 26.4252 1.90979 29.9815 6.51456C32.4822 9.21925 31.8675 14.7192 30.1848 18.356" sodipodi:nodetypes="cccc"/>
</svg>
