<?xml version="1.0" standalone="no"?>
<!DOCTYPE svg PUBLIC "-//W3C//DTD SVG 20010904//EN" "http://www.w3.org/TR/2001/REC-SVG-20010904/DTD/svg10.dtd">
<!-- Created using Krita: https://krita.org -->
<svg xmlns="http://www.w3.org/2000/svg" 
    xmlns:xlink="http://www.w3.org/1999/xlink"
    xmlns:krita="http://krita.org/namespaces/svg/krita"
    xmlns:sodipodi="http://sodipodi.sourceforge.net/DTD/sodipodi-0.dtd"
    width="675pt"
    height="675pt"
    viewBox="0 0 675 675">
<defs/>
<path id="shape0" transform="translate(75.9671214920842, 497.661735630219)" fill="none" stroke="#f70f4c" stroke-width="1.575" stroke-linecap="square" stroke-linejoin="bevel" d="M112.486 0C102.494 0.882154 97.8487 1.35254 88.939 1.82964C48.7333 2.57325 -0.416729 6.93697 0.00266575 15.9895C2.35103 21.0176 21.961 17.1615 34.0579 16.2382" sodipodi:nodetypes="cccc"/><path id="shape1" transform="translate(96.833610674719, 516.037706634252)" fill="none" stroke="#f70f4c" stroke-width="1.575" stroke-linecap="square" stroke-linejoin="bevel" d="M0.13725 0C-1.92766 10.3552 19.8165 5.30616 31.082 4.61387" sodipodi:nodetypes="cc"/><path id="shape2" transform="translate(121.710758617297, 521.44707368391)" fill="none" stroke="#f70f4c" stroke-width="1.575" stroke-linecap="square" stroke-linejoin="bevel" d="M0 0C7.00831 9.60163 21.0727 6.06963 33.1721 5.48892" sodipodi:nodetypes="cc"/><path id="shape3" transform="translate(143.427776331364, 528.686079588599)" fill="none" stroke="#f70f4c" stroke-width="1.575" stroke-linecap="square" stroke-linejoin="bevel" d="M0 0C2.88765 6.97649 19.3862 3.44449 25.0581 1.82964" sodipodi:nodetypes="cc"/><path id="shape4" transform="translate(162.837851707241, 521.844822852481)" fill="none" stroke="#f70f4c" stroke-width="1.575" stroke-linecap="square" stroke-linejoin="bevel" d="M0 10.3414C39.7919 36.192 84.0977 58.1102 126.287 64.9552C150.098 70.248 179.505 72.1723 207.062 71.9302C229.352 67.0848 254.786 55.6654 276.912 32.6948C293.049 28.1921 308.392 23.1432 325.079 15.8304C352.799 9.14828 379.701 3.38762 405.464 0" sodipodi:nodetypes="cccccc"/><path id="shape5" transform="translate(457.200029464038, 489.937531573791)" fill="none" stroke="#f70f4c" stroke-width="1.575" stroke-linecap="square" stroke-linejoin="bevel" d="M30.4875 47.025C22.6936 38.9106 7.5356 31.3265 0 24.75C12.2303 20.5203 36.5676 14.7481 47.925 0C61.1042 2.47674 77.6422 9.82448 89.1 12.375C98.9171 12.9109 107.669 7.10143 119.971 9.59363C126.935 13.155 137.905 32.7696 135.563 36.1125C126.499 34.5754 95.6694 28.3511 78.4125 26.775C55.1744 25.6652 23.8388 25.6725 0.45 25.2" sodipodi:nodetypes="cccccccc"/><path id="shape6" transform="translate(458.619521613581, 478.949015484409)" fill="none" stroke="#f70f4c" stroke-width="1.575" stroke-linecap="square" stroke-linejoin="bevel" d="M23.4505 26.2699C14.3048 26.1439 -1.10701 20.543 0.0629537 14.0193C0.292703 8.71529 15.019 -0.953076 20.8555 0.0760163C31.1012 -0.724663 43.8934 7.93576 42.5118 14.701" sodipodi:nodetypes="cccc"/><path id="shape7" transform="translate(453.937503087408, 477.724649606748)" fill="none" stroke="#f70f4c" stroke-width="1.575" stroke-linecap="square" stroke-linejoin="bevel" d="M0 6.7566C8.28709 0.240034 15.1182 -1.29322 22.2857 1.00432" sodipodi:nodetypes="cc"/><path id="shape8" transform="translate(485.371924940649, 489.233641613468)" fill="none" stroke="#f70f4c" stroke-width="1.575" stroke-linecap="square" stroke-linejoin="bevel" d="M0.178075 1.37886C-1.04735 4.52054 4.41154 6.67478 5.57807 3.68511C7.68221 0.331236 1.96077 -1.38781 0.178075 1.37886Z" sodipodi:nodetypes="ccc"/><path id="shape9" transform="translate(510.974827788067, 484.364367507006)" fill="none" stroke="#f70f4c" stroke-width="1.575" stroke-linecap="square" stroke-linejoin="bevel" d="M14.4002 10.7481C17.7699 6.28872 15.7007 2.11449 9.63697 0.092175C5.20193 -0.552923 -0.0346265 2.26706 0.000172514 6.07939" sodipodi:nodetypes="ccc"/><path id="shape10" transform="translate(517.495148859391, 486.962351849755)" fill="none" stroke="#f70f4c" stroke-width="1.575" stroke-linecap="square" stroke-linejoin="bevel" d="M2.32115 0C-1.12406 0.549558 -0.46094 4.42543 2.52003 3.81838C4.73659 3.86174 5.17519 0.310858 2.32115 0Z" sodipodi:nodetypes="ccc"/><path id="shape11" transform="translate(436.647270761808, 465.08567450177)" fill="none" stroke="#f70f4c" stroke-width="1.575" stroke-linecap="square" stroke-linejoin="bevel" d="M86.351 20.2061C88.1323 18.7744 93.2912 16.8747 88.8966 12.4103C85.7039 8.43787 76.0992 10.9855 71.7139 10.8591C58.4532 4.41271 41.4802 -1.35001 29.9106 0.278969C20.3538 1.89737 7.02422 8.043 0 17.6208" sodipodi:nodetypes="ccccc"/><path id="shape12" transform="translate(330.050922392701, 464.572193058362)" fill="none" stroke="#f70f4c" stroke-width="1.575" stroke-linecap="square" stroke-linejoin="bevel" d="M109.301 18.8105C92.817 17.2635 72.9237 8.93324 55.9366 3.42782C30.3654 -1.11967 23.2181 0.129758 0 0.235601" sodipodi:nodetypes="ccc"/><path id="shape13" transform="translate(332.971979074188, 86.6294185582424)" fill="none" stroke="#f70f4c" stroke-width="1.575" stroke-linecap="square" stroke-linejoin="bevel" d="M187.441 0C165.372 8.45925 167.042 110.888 166.191 143.771C161.58 121.425 154.098 95.0942 146.166 74.5392C138.382 54.3669 130.085 34.0748 120.516 43.4206C109.937 59.6151 134.142 127.201 136.847 162.201C128.377 151.38 90.6193 95.4416 80.6855 101.346C73.1476 104.764 77.9333 123.092 85.382 142.277C94.7021 161.775 103.909 182.962 110.994 195.055C99.7582 186.522 63.4604 156.368 52.5093 164.358C49.401 165.859 50.2253 171.829 53.2824 179.326C58.4434 191.984 69.9677 208.997 79.678 216.221C62.8549 212.915 38.1652 208.594 30.628 220.102C23.4007 237.364 52.906 240.407 69.7872 243.103C53.4356 245.518 2.62783 261.078 0.221148 273.531C-1.48565 280.245 7.07434 283.399 12.5911 284.151" sodipodi:nodetypes="ccccccccccccccc"/><path id="shape14" transform="translate(308.77192765589, 362.250011679583)" fill="none" stroke="#f70f4c" stroke-width="1.575" stroke-linecap="square" stroke-linejoin="bevel" d="M60.6781 0C45.7043 5.715 17.9284 13.8631 16.0156 23.175C16.1983 31.309 24.4788 30.4306 24.2281 33.1875C15.1771 36.8966 -0.913305 42.3762 0.0405824 53.6625C0.810592 60.7923 8.35557 61.3783 13.4281 60.4125C10.9253 61.5825 6.56369 67.6005 4.53384 70.7778" sodipodi:nodetypes="cccccc"/><path id="shape20" transform="translate(195.452766852438, 265.629650291016)" fill="none" stroke="#f70f4c" stroke-width="1.575" stroke-linecap="square" stroke-linejoin="bevel" d="M55.4464 24.0897C50.6282 15.9267 39.2669 -1.78014 34.843 0.145267C24.0614 2.69789 29.007 41.9388 41.5847 70.0141C30.1424 54.49 13.8884 47.4277 2.46643 56.8641C-7.47601 73.3342 14.6401 99.177 33.1725 116.526C18.5048 113.077 13.2805 114.209 9.30763 120.185C3.88105 137.99 28.1287 166.414 47.1732 174.915C30.8977 168.412 23.671 169.086 22.6719 171.097C24.253 189.828 38.8875 189.099 45.5822 193.212C38.3535 192.235 33.5924 191.394 22.5924 189.075C19.7407 218.107 44.1344 227.464 73.1064 224.952C66.5437 227.412 61.7514 227.754 54.691 228.808C58.2635 244.965 65.1284 246.724 78.5157 248.26" sodipodi:nodetypes="ccccccccccccc"/><path id="shape01" transform="translate(265.72501492829, 358.875020161408)" fill="none" stroke="#f70f4c" stroke-width="1.575" stroke-linecap="square" stroke-linejoin="bevel" d="M0 0C1.87194 9.67585 3.60772 20.7789 5.48925 32.0793C8.08438 47.6657 10.9568 63.6275 14.8461 76.7381C22.0911 97.9573 35.521 126.926 48.8138 144.117" sodipodi:nodetypes="cccc"/><path id="shape111" transform="translate(201.60001283237, 555.637535367787)" fill="none" stroke="#f70f4c" stroke-width="1.575" stroke-linecap="square" stroke-linejoin="bevel" d="M0 0C3.3075 8.67108 7.49249 19.4165 10.8 28.2375" sodipodi:nodetypes="cc"/><path id="shape21" transform="translate(193.443755976976, 572.836051633444)" fill="none" stroke="#f70f4c" stroke-width="1.575" stroke-linecap="square" stroke-linejoin="bevel" d="M14.1009 0C11.3704 0.439348 6.90937 -0.29117 5.74822 1.59098C3.05431 8.9299 8.19728 9.4023 10.1234 9.94368C15.7244 15.5897 19.1164 23.8 19.1921 29.0356C17.3429 35.2526 10.2809 49.7228 8.25404 49.2809C7.73325 49.1674 6.39758 43.7101 5.4698 43.1158C4.30272 42.3682 0.493513 44.7124 0 46.0827C1.02646 48.7399 5.28268 56.3305 6.91875 57.839C15.9641 54.3251 22.275 36.5596 23.6813 28.5327" sodipodi:nodetypes="ccccccccc"/><path id="shape31" transform="translate(206.268751421299, 599.512504130954)" fill="none" stroke="#f70f4c" stroke-width="1.575" stroke-linecap="square" stroke-linejoin="bevel" d="M0 27.1688C1.36688 34.1606 5.83204 39.3078 7.36875 39.0375C13.3881 37.8718 18.2363 16.83 15.5813 0" sodipodi:nodetypes="ccc"/><path id="shape41" transform="translate(213.806266255011, 561.825042713772)" fill="none" stroke="#f70f4c" stroke-width="1.575" stroke-linecap="square" stroke-linejoin="bevel" d="M6.8625 65.025C8.65125 66.3075 11.8423 69.2912 13.069 68.8833C16.2428 68.717 19.9515 61.7949 18.1601 52.4563C13.0453 43.0109 11.54 32.047 10.0461 22.8639C7.12349 15.7987 2.94731 7.4066 0 0" sodipodi:nodetypes="ccccc"/><path id="shape51" transform="translate(233.418592891164, 571.245030785182)" fill="none" stroke="#f70f4c" stroke-width="1.575" stroke-linecap="square" stroke-linejoin="bevel" d="M1.57066 0C-1.50181 4.27329 0.182403 9.32116 4.46265 10.0424C8.30396 10.4504 11.9077 4.79762 11.8877 3.91122C11.1968 10.3492 14.8058 23.888 13.9406 32.8937C13.2498 36.8924 7.90102 36.5223 7.61643 38.4224C7.33261 40.3174 10.3561 45.2176 12.0314 45.5421C15.4908 45.2566 19.5646 40.4069 21.8956 38.3031" sodipodi:nodetypes="ccccccc"/><path id="shape61" transform="translate(250.762518938132, 585.506294218711)" fill="none" stroke="#f70f4c" stroke-width="1.575" stroke-linecap="square" stroke-linejoin="bevel" d="M0 0C1.87313 8.65688 4.37063 20.1994 6.24375 28.8563" sodipodi:nodetypes="cc"/><path id="shape71" transform="translate(250.487471360547, 585.337534936204)" fill="none" stroke="#f70f4c" stroke-width="1.575" stroke-linecap="square" stroke-linejoin="bevel" d="M8.48753 27.6468C6.15878 29.9925 -0.180269 34.1656 0.0500449 36.225C-0.673241 39.081 6.65597 41.1058 8.3188 39.8813C16.7676 31.6522 13.3307 15.8456 8.48754 0" sodipodi:nodetypes="cccc"/><path id="shape81" transform="translate(262.871364592589, 581.586487074116)" fill="none" stroke="#f70f4c" stroke-width="1.575" stroke-linecap="square" stroke-linejoin="bevel" d="M0 0C2.88765 8.47202 9.8696 18.6332 9.74481 27.4446C8.9973 30.1063 3.65133 32.9733 1.07393 35.1211" sodipodi:nodetypes="ccc"/><path id="shape0" transform="translate(429.209400230462, 86.5968790566415)" fill="none" stroke="#f70f4c" stroke-width="1.575" stroke-linecap="square" stroke-linejoin="bevel" d="M91.75 0C102.573 5.03843 106.846 74.9167 107.416 107.128C105.824 144.371 104.712 174.396 99.5406 208.153C91.7587 251.855 67.9797 266.646 39.9156 313.678C23.9203 335.381 3.07504 380.783 0 395.075" sodipodi:nodetypes="ccccc"/><path id="shape1" transform="translate(82.0741685864995, 54.9615901194772)" fill="none" stroke="#f70f4c" stroke-width="1.575" stroke-linecap="square" stroke-linejoin="bevel" d="M270.966 439.518C248.364 415.945 230.75 381.491 217.763 344.336C207.417 314.735 201.583 282.407 194.338 254.863C188.813 243.405 172.118 215.36 156.495 171.198C146.631 137.087 139.064 110.649 131.596 73.5904C124.901 32.4589 122.542 23.0932 122.765 0.245774C106.369 -3.19291 100.081 29.7852 98.7849 78.2424C99.2459 109.05 104.229 144.705 115.686 177.164C97.9151 156.737 93.9986 146.817 86.0935 129.275C81.062 114.895 75.5505 96.9546 70.6609 84.2501C65.4652 70.7502 58.1855 47.3636 51.2384 47.1884C44.6359 50.925 43.3777 84.1777 53.6933 126.03C60.0142 151.675 70.6806 180.548 87.1259 207.838C82.5352 209.115 65.6141 196.051 59.1133 187.701C52.1031 179.841 42.549 169.575 33.5401 160.282C20.4328 146.762 8.4797 135.304 7.19459 136.317C-1.01699 139.83 7.06548 162.839 21.8038 187.513C32.6598 205.688 49.5555 226.483 63.7821 239.338C35.0927 225.65 13.5762 216.203 3.08833 220.213C-11.4019 234.004 27.9265 269.653 62.2071 280.851C45.0016 287.539 31.134 282.164 15.6126 280.499C1.02804 276.973 10.3136 294.833 17.7198 302.73C28.6652 314.4 46.6915 324.804 70.5321 321.576C52.7833 325.285 41.8996 316.609 33.7446 325.626C26.8407 345.027 61.4495 349.283 78.4567 356.787C63.8623 351.748 56.7194 354.581 52.1259 358.457C50.0932 376.628 81.614 390.824 102.201 397.457C82.1855 389.464 75.5063 395.243 74.6384 397.834C65.3283 418.339 106.925 430.008 122.607 435.063C109.962 429.597 105.179 434.827 104.957 436.045C105.658 449.096 127.055 456.969 141.142 460.519" sodipodi:nodetypes="ccccccccccccccccccccccccccccccc"/>
</svg>
