<?xml version="1.0" standalone="no"?>
<!DOCTYPE svg PUBLIC "-//W3C//DTD SVG 20010904//EN" "http://www.w3.org/TR/2001/REC-SVG-20010904/DTD/svg10.dtd">
<!-- Created using Krita: https://krita.org -->
<svg xmlns="http://www.w3.org/2000/svg" 
    xmlns:xlink="http://www.w3.org/1999/xlink"
    xmlns:krita="http://krita.org/namespaces/svg/krita"
    xmlns:sodipodi="http://sodipodi.sourceforge.net/DTD/sodipodi-0.dtd"
    width="675pt"
    height="675pt"
    viewBox="0 0 675 675">
<defs/>
<path id="shape0" transform="translate(137.302458402983, 451.012503958571)" fill="none" stroke="#f70f4c" stroke-width="1.575" stroke-linecap="square" stroke-linejoin="bevel" d="M0 58.2237C1.88084 48.8758 4.08309 10.6883 37.5225 8.32499C65.1737 5.44254 85.1934 5.10697 105.642 4.09026C122.023 10.1008 137.003 15.1057 172.941 12.6816C186.894 11.408 195.251 11.0856 215.329 0C234.574 0.566182 255.173 2.02282 274.954 3.37499C314.187 4.89351 315.772 33.2946 319.391 53.8313C280.314 56.5018 214.259 57.2849 169.361 57.8658C144.522 58.1871 117.564 58.6117 89.6516 58.8004C60.3715 58.9983 30.0402 58.9366 0 58.2237Z" sodipodi:nodetypes="cccccccccc"/><path id="shape1" transform="translate(138.487501077345, 466.48125362893)" fill="none" stroke="#f70f4c" stroke-width="1.575" stroke-linecap="square" stroke-linejoin="bevel" d="M17.1 0C25.926 23.9103 12.0461 33.4481 0 35.3813" sodipodi:nodetypes="cc"/><path id="shape2" transform="translate(174.611185125961, 459.159799793643)" fill="none" stroke="#f70f4c" stroke-width="1.575" stroke-linecap="square" stroke-linejoin="bevel" d="M0 0C18.6402 18.2286 20.6173 39.8309 21.3193 49.8775" sodipodi:nodetypes="cc"/><path id="shape3" transform="translate(227.025013400327, 478.125015237417)" fill="none" stroke="#f70f4c" stroke-width="1.575" stroke-linecap="square" stroke-linejoin="bevel" d="M0 30.375C0.0675 23.1525 0.262733 13.5388 0.225 6.30001C0.669759 3.9782 2.87895 0.854779 5.9625 0.562513C36.989 0.597304 80.775 0.00410072 112.838 5.41241e-06C122.946 -0.00128569 136.233 0.228899 146.531 0.168736C150.922 0.731397 152.794 3.79006 152.494 6.13124C152.546 13.6099 152.572 22.1175 152.606 28.9687" sodipodi:nodetypes="ccccccc"/><path id="shape5" transform="translate(265.893758630378, 478.687515537236)" fill="none" stroke="#f70f4c" stroke-width="1.575" stroke-linecap="square" stroke-linejoin="bevel" d="M0 0C1.71281 4.77 6.65231 3.74421 9.92813 3.7125C24.0671 4.09 42.9382 2.79196 47.6437 3.09374C55.4265 4.59311 77.2356 13.2155 95.3437 26.1562C96.1758 28.1789 93.06 32.6137 92.0812 35.3812" sodipodi:nodetypes="ccccc"/><path id="shape7" transform="translate(399.150021512931, 454.500024496122)" fill="none" stroke="#f70f4c" stroke-width="1.575" stroke-linecap="square" stroke-linejoin="bevel" d="M13.1625 0C2.93563 14.6811 0.241478 37.0179 0 52.7625" sodipodi:nodetypes="cc"/><path id="shape8" transform="translate(433.697664950554, 461.475031322043)" fill="none" stroke="#f70f4c" stroke-width="1.575" stroke-linecap="square" stroke-linejoin="bevel" d="M2.85861 0C-3.70513 12.4322 0.496998 32.8045 21.0836 33.8063" sodipodi:nodetypes="cc"/><path id="shape9" transform="translate(243.501060013195, 455.818710838161)" fill="none" stroke="#f70f4c" stroke-width="1.575" stroke-linecap="square" stroke-linejoin="bevel" d="M10.7392 22.3534C8.58812 15.6024 5.27188 7.16711 0 0" sodipodi:nodetypes="cc"/><path id="shape10" transform="translate(339.975018725181, 451.68750226429)" fill="none" stroke="#f70f4c" stroke-width="1.575" stroke-linecap="square" stroke-linejoin="bevel" d="M12.3187 0C8.33167 7.79397 2.31411 17.3571 0 25.9875" sodipodi:nodetypes="cc"/><path id="shape11" transform="translate(310.462376860661, 454.14816623546)" fill="none" stroke="#f70f4c" stroke-width="1.575" stroke-linecap="square" stroke-linejoin="bevel" d="M0.0938765 10.0268C-1.543 14.7687 18.646 21.769 27.8814 21.5581C30.7459 15.7967 34.03 13.7277 37.4439 12.4456C53.4654 13.4691 66.0208 14.2365 83.0691 14.3985C90.7564 15.1056 92.3168 20.5603 92.2968 21.717C98.8736 13.0939 115.076 14.0928 123.341 20.0664C131.739 24.2705 137.701 37.2356 138.674 36.5132C140.711 32.9564 134.002 17.6814 124.913 11.2081C117.465 4.64189 107.602 4.74498 99.5358 3.85817C79.8525 2.218 55.9029 1.43985 36.7712 0" sodipodi:nodetypes="cccccccccc"/><path id="shape12" transform="translate(242.718750664321, 444.244262683193)" fill="none" stroke="#f70f4c" stroke-width="1.575" stroke-linecap="square" stroke-linejoin="bevel" d="M0 10.8745C3.20625 8.71449 3.45918 4.43417 10.6875 3.67449C23.2066 8.34712 40.3618 11.1723 52.9668 10.779C67.3998 10.3286 91.1971 8.41735 100.975 0C105.901 0.758668 108.617 4.52447 109.805 6.48329" sodipodi:nodetypes="ccccc"/><path id="shape13" transform="translate(253.543256878001, 431.834546392577)" fill="none" stroke="#f70f4c" stroke-width="1.575" stroke-linecap="square" stroke-linejoin="bevel" d="M0.100373 15.8701C-0.609759 6.65728 2.51424 1.38684 7.37915 0" sodipodi:nodetypes="cc"/><path id="shape14" transform="translate(335.619384943025, 429.766230660036)" fill="none" stroke="#f70f4c" stroke-width="1.575" stroke-linecap="square" stroke-linejoin="bevel" d="M0 0C6.94214 2.6902 8.64752 8.93012 7.79585 14.3587" sodipodi:nodetypes="cc"/><path id="shape15" transform="translate(260.803075082455, 397.906659009436)" fill="none" stroke="#f70f4c" stroke-width="1.575" stroke-linecap="square" stroke-linejoin="bevel" d="M0 0C0.16293 5.69649 0.297303 13.3975 0.463311 20.6027C0.625565 27.6451 0.818039 34.2138 1.09693 37.9746C17.7815 47.1543 60.7135 47.2886 74.5777 37.6468C74.0311 29.8091 76.0611 12.3242 76.6969 1.47168" sodipodi:nodetypes="ccccc"/><path id="shape16" transform="translate(320.456272870535, 440.831281461538)" fill="none" stroke="#f70f4c" stroke-width="1.575" stroke-linecap="square" stroke-linejoin="bevel" d="M0 0C3.73755 1.8096 6.77746 6.88124 4.33125 10.6875C7.76181 12.1169 10.3543 15.9437 8.71875 20.1375" sodipodi:nodetypes="ccc"/><path id="shape17" transform="translate(334.227279780127, 436.527953776852)" fill="none" stroke="#f70f4c" stroke-width="1.575" stroke-linecap="square" stroke-linejoin="bevel" d="M0 0C3.81993 3.4637 4.05883 8.45952 3.27272 11.1767C6.46277 10.8668 12.3859 15.947 11.3756 18.1771" sodipodi:nodetypes="ccc"/><path id="shape18" transform="translate(315.309382522916, 409.303577110299)" fill="none" stroke="#f70f4c" stroke-width="1.575" stroke-linecap="square" stroke-linejoin="bevel" d="M0 31.6402C2.61 26.3359 2.55014 16.9679 3.23438 13.9777C3.88413 13.9725 5.70098 21.2838 5.75246 25.1164C7.59117 16.0616 6.90683 -0.631786 13.071 0.0184518C20.0614 0.656832 14.4778 18.4991 14.4844 28.7152" sodipodi:nodetypes="ccccc"/><path id="shape19" transform="translate(254.240246189695, 392.656400247914)" fill="none" stroke="#f70f4c" stroke-width="1.575" stroke-linecap="square" stroke-linejoin="bevel" d="M0 0C12.4018 9.5172 28.2776 15.0584 45.1066 15.206C60.5172 15.3411 76.7269 10.9535 91.8001 0.954594" sodipodi:nodetypes="ccc"/><path id="shape20" transform="translate(311.429963104454, 397.944084823085)" fill="none" stroke="#f70f4c" stroke-width="1.575" stroke-linecap="square" stroke-linejoin="bevel" d="M1.99511 8.23572C1.39849 7.61524 -0.110009 6.59287 0.00637365 6.16744C0.850274 3.08257 16.9453 -1.68496 20.0529 0.598967C20.4214 0.869818 20.1085 2.32519 20.1324 3.065" sodipodi:nodetypes="cccc"/><path id="shape21" transform="translate(174.849834159357, 347.790479926475)" fill="none" stroke="#f70f4c" stroke-width="1.575" stroke-linecap="square" stroke-linejoin="bevel" d="M0 0C14.9647 15.9304 37.685 30.1056 56.4802 36.911C80.7172 48.6056 109.143 49.0773 130.419 50.5158C162.197 46.8546 164.848 47.929 187.513 41.122C214.142 33.4789 244.009 13.8836 257.621 0.437501" sodipodi:nodetypes="ccccc"/><path id="shape22" transform="translate(309.600015697767, 370.982854083684)" fill="none" stroke="#f70f4c" stroke-width="1.575" stroke-linecap="square" stroke-linejoin="bevel" d="M71.0438 3.64217C71.0187 2.45536 59.0645 -0.378244 54.1125 0.0421648C36.5501 10.288 4.53615 20.0842 0 21.5859C1.40013 24.2477 22.472 21.8003 41.6278 16.7026C54.4493 13.2906 66.4125 8.69133 71.0438 3.64217Z" sodipodi:nodetypes="ccccc"/><path id="shape01" transform="translate(7.75941687837723, 127.687257921891)" fill="none" stroke="#f70f4c" stroke-width="1.575" stroke-linecap="square" stroke-linejoin="bevel" d="M46.9156 159.863C31.3284 159.721 12.8124 150.491 6.41558 140.288C-1.86716 119.15 -0.209768 75.3003 1.01558 63.7877C6.04477 38.7852 30.1874 38.776 44.6656 33.0752C123.288 8.16907 184.889 3.72906 265.891 0.14881C271.414 0.0569208 328.632 -0.17207 334.144 0.228364C411.882 3.90317 476.17 10.1625 545.03 33.2414C559.916 38.7363 585.692 49.2996 588.941 57.3449C594.318 74.879 593.217 117.631 583.653 133.875C575.898 147.49 556.799 153.135 541.916 159.3" sodipodi:nodetypes="cccccccccc"/><path id="shape111" transform="translate(49.5561515055306, 161.008211609499)" fill="none" stroke="#f70f4c" stroke-width="1.575" stroke-linecap="square" stroke-linejoin="bevel" d="M3.26472 0C0.259221 21.4506 -0.694197 47.0361 0.500278 73.6519C1.93282 105.572 6.45473 138.975 14.2313 168.504C45.7586 176.831 90.4499 183.791 124.763 186.504C162.416 190.163 221.326 191.786 266.231 191.904C313.417 190.777 354.763 189.282 393.919 185.154C426.502 181.35 457.899 177.17 492.335 169.281C499.664 138.159 504.166 99.9187 505.144 61.7447C505.679 40.857 505.16 19.9891 503.472 0.318197" sodipodi:nodetypes="ccccccccc"/><path id="shape211" transform="translate(52.9875033108779, 265.837516610625)" fill="none" stroke="#f70f4c" stroke-width="1.575" stroke-linecap="square" stroke-linejoin="bevel" d="M0 0C13.1917 39.8534 55.1901 49.4895 72.2234 53.9515C124.578 66.7851 135.527 66.7307 183.434 70.4978C220.199 73.1701 248.28 71.9236 290.666 70.4183C330.125 69.0169 360.455 67.3071 387.563 65.025C404.466 63.9285 419.738 60.6981 434.364 55.5797C455.46 48.1971 475.212 36.8869 496.575 22.3875" sodipodi:nodetypes="ccccccc"/><path id="shape31" transform="translate(10.9128563158192, 135.240914878895)" fill="none" stroke="#f70f4c" stroke-width="1.575" stroke-linecap="square" stroke-linejoin="bevel" d="M39.0442 56.1552C27.9637 60.2456 9.8014 67.8105 1.81507 68.4058C-2.07873 65.699 -0.11186 47.7688 11.6792 40.7226C21.5911 34.94 32.4094 32.1988 41.5898 29.5857C76.1263 19.5468 123.419 9.60274 159.862 5.83409C196.489 1.31011 244.831 -0.576776 283.182 0.152362C288.596 0.0634842 295.829 0.160851 301.239 0.391011C346.751 2.32702 408.085 3.5172 452.756 11.2903C480.204 16.0664 516.335 27.0463 542.643 36.4341C552.959 40.1175 566.621 45.955 576.168 51.1153C586.089 56.8502 584.525 69.0597 580.106 70.4091C569.275 67.1526 554.555 61.4512 543.656 57.4716C507.594 46.7689 471.519 28.5953 437.587 17.6532C416.74 12.5626 395.861 7.21334 367.027 21.8694C355.088 29.658 347.867 39.872 331.256 42.4528C309.148 42.7229 268.939 40.737 238.275 37.2778C212.977 30.3898 205.835 15.1328 173.643 15.3966C144.066 15.68 128.544 29.6619 113.625 38.1216C109.628 40.7561 104.244 42.3333 93.3746 42.2278C75.7005 42.1492 59.6719 47.8039 39.0442 56.1552Z" sodipodi:nodetypes="cccccccccccccccccccc"/><path id="shape4" transform="translate(293.925073573842, 127.91562043116)" fill="none" stroke="#f70f4c" stroke-width="1.575" stroke-linecap="square" stroke-linejoin="bevel" d="M0.169485 0.198874C0.731744 9.96485 0.0861965 33.4155 0.0374377 48.0344C0.671709 71.9559 -1.44521 115.205 2.28744 124.197C5.92962 129.726 11.7898 127.124 13.8187 123.184C19.1096 112.155 16.0864 69.4111 17.3625 48.8219C17.4892 34.4657 17.7849 14.754 17.9488 0" sodipodi:nodetypes="cccccc"/><path id="shape51" transform="translate(98.3210295187184, 153.912202974887)" fill="none" stroke="#f70f4c" stroke-width="1.575" stroke-linecap="square" stroke-linejoin="bevel" d="M149.396 28.5744C170.242 53.6687 175.411 80.3347 167.851 110.192C159.957 132.848 144.828 157.154 109.939 167.786C82.292 174.012 61.8819 175.019 26.554 148.038C4.88405 128.604 -2.92445 95.0587 0.956769 72.7244C5.35109 39.0038 36.4215 5.90443 77.3641 0.453627C104.754 -2.85588 137.427 12.4937 149.396 28.5744Z" sodipodi:nodetypes="ccccccc"/><path id="shape6" transform="translate(113.375059301247, 171.765953351129)" fill="none" stroke="#f70f4c" stroke-width="1.575" stroke-linecap="square" stroke-linejoin="bevel" d="M130.75 32.0841C142.832 51.5524 147.504 76.0184 129.251 106.021C114.202 124.152 104.192 134.448 63.6999 135.584C35.039 133.949 10.5249 110.756 3.88092 90.2701C-4.69467 61.5437 0.742907 39.5108 22.1773 17.721C50.5081 -5.27319 82.419 -3.22969 105.545 8.81144C121.435 19.1504 124.689 23.2225 130.75 32.0841Z" sodipodi:nodetypes="ccccccc"/><path id="shape71" transform="translate(144.084896037915, 199.39069707592)" fill="none" stroke="#f70f4c" stroke-width="1.575" stroke-linecap="square" stroke-linejoin="bevel" d="M76.9214 24.8781C87.258 48.5254 70.6093 72.2496 53.0151 77.95C26.6859 86.5786 1.51351 66.3983 0.0838623 42.9906C-1.76474 12.2168 27.2672 -8.06304 55.6639 3.1026C64.3488 6.67749 74.4521 17.5011 76.9214 24.8781Z" sodipodi:nodetypes="ccccc"/><path id="shape81" transform="translate(178.485540422381, 239.950534717836)" fill="none" stroke="#f70f4c" stroke-width="1.575" stroke-linecap="square" stroke-linejoin="bevel" d="M12.6801 0.0682322C22.1385 1.76594 27.5856 13.8566 21.0895 20.4307C14.2977 28.0896 2.63713 27.0824 0.0519587 14.5245C-0.657114 5.63663 6.01194 -0.734672 12.6801 0.0682322Z" sodipodi:nodetypes="cccc"/><path id="shape91" transform="translate(245.418734555748, 181.799988559289)" fill="none" stroke="#f70f4c" stroke-width="1.575" stroke-linecap="square" stroke-linejoin="bevel" d="M0 22.05C3.33473 15.6002 4.91201 9.28005 1.40625 0" sodipodi:nodetypes="cc"/><path id="shape101" transform="translate(233.15625249722, 173.025001853185)" fill="none" stroke="#f70f4c" stroke-width="1.575" stroke-linecap="square" stroke-linejoin="bevel" d="M4.44375 0C6.90188 9.08438 2.66063 14.4281 0 17.55" sodipodi:nodetypes="cc"/><path id="shape1111" transform="translate(221.2875023701, 163.181251747753)" fill="none" stroke="#f70f4c" stroke-width="1.575" stroke-linecap="square" stroke-linejoin="bevel" d="M0 0C9.58932 8.84719 11.1549 19.1789 11.8125 26.775" sodipodi:nodetypes="cc"/><path id="shape121" transform="translate(191.125844972415, 180.323767589649)" fill="none" stroke="#f70f4c" stroke-width="1.575" stroke-linecap="square" stroke-linejoin="bevel" d="M29.5992 43.8887C27.6904 44.0529 25.98 47.3223 24.0867 48.5575C19.8201 51.4674 10.239 53.0431 5.97417 51.82C-2.04605 48.1727 -1.13001 39.0223 3.66792 31.7387C7.37466 27.8039 9.42855 26.7263 8.58321 22.0502C4.06807 11.0425 7.6287 5.38413 11.805 2.60034C20.0564 -2.07668 27.3381 0.463829 31.8117 3.15718C38.8502 7.39477 47.5469 22.6218 47.121 30.7825C47.7518 38.9132 42.4699 43.5432 38.4585 43.5231C34.1347 42.9986 31.9437 42.954 29.5992 43.8887Z" sodipodi:nodetypes="cccccccccc"/><path id="shape131" transform="translate(267.908853381853, 265.804191185768)" fill="none" stroke="#f70f4c" stroke-width="1.575" stroke-linecap="square" stroke-linejoin="bevel" d="M51.7211 5.30054C68.2294 15.5833 69.7493 36.4061 63.1762 48.8937C53.6223 67.7249 29.5347 70.789 16.4807 62.3375C3.60759 55.6762 -6.69358 32.9674 5.34373 15.2442C16.7109 0.491037 34.1703 -5.01874 51.7211 5.30054Z" sodipodi:nodetypes="ccccc"/><path id="shape141" transform="translate(274.260799630464, 272.174683709329)" fill="none" stroke="#f70f4c" stroke-width="1.575" stroke-linecap="square" stroke-linejoin="bevel" d="M41.4712 3.62349C54.1673 13.2092 57.8702 27.1525 52.1309 39.3412C44.1931 55.6715 25.1037 57.9834 13.1516 50.2395C0.306142 43.0372 -3.70495 24.545 3.6852 13.3285C13.8834 -0.099433 26.1023 -3.47233 41.4712 3.62349Z" sodipodi:nodetypes="ccccc"/><path id="shape151" transform="translate(315.572925453678, 266.013577695261)" fill="none" stroke="#f70f4c" stroke-width="1.575" stroke-linecap="square" stroke-linejoin="bevel" d="M0 9.86414C2.5774 6.9049 6.36149 2.16255 8.59135 0C11.0868 3.08094 13.1526 5.43059 14.7167 7.31856C12.2267 10.2885 9.4823 13.7223 7.23901 16.4667" sodipodi:nodetypes="cccc"/><path id="shape161" transform="translate(321.300480347053, 311.356791304374)" fill="none" stroke="#f70f4c" stroke-width="1.575" stroke-linecap="square" stroke-linejoin="bevel" d="M5.09117 0C8.26519 2.36262 13.822 5.49619 15.6713 7.8754C14.4018 9.81547 11.7002 15.2612 9.66527 16.069C7.72923 14.7093 2.91151 10.1704 0 7.5572" sodipodi:nodetypes="cccc"/><path id="shape171" transform="translate(271.224076600059, 316.567301020659)" fill="none" stroke="#f70f4c" stroke-width="1.575" stroke-linecap="square" stroke-linejoin="bevel" d="M16.8247 6.44351C14.2354 9.45048 10.9354 14.4804 8.1936 16.4667C6.5189 15.1853 1.61032 11.8925 0 9.66527C2.89044 6.59032 6.32021 2.89958 9.02887 0" sodipodi:nodetypes="cccc"/><path id="shape181" transform="translate(269.593302787139, 270.110374627834)" fill="none" stroke="#f70f4c" stroke-width="1.575" stroke-linecap="square" stroke-linejoin="bevel" d="M13.7223 8.9891C11.0017 6.29237 6.63478 1.38277 4.65365 0C3.53458 1.59965 1.05933 4.85864 0 7.04013C2.47401 10.2569 5.69972 12.8512 8.1936 15.2735" sodipodi:nodetypes="cccc"/><path id="shape191" transform="translate(278.463522508373, 282.559864611919)" fill="none" stroke="#f70f4c" stroke-width="1.575" stroke-linecap="square" stroke-linejoin="bevel" d="M49.9169 21.8761C47.0059 28.3797 39.6351 35.0371 29.6715 35.3995C18.849 36.4723 9.38943 30.0788 4.65319 24.2228C0.968218 19.1004 -2.39888 11.6023 2.30648 0" sodipodi:nodetypes="cccc"/><path id="shape201" transform="translate(310.282869346507, 282.399783627139)" fill="none" stroke="#f70f4c" stroke-width="1.575" stroke-linecap="square" stroke-linejoin="bevel" d="M4.85252 0.000981961C13.3227 5.73045 11.3458 17.9779 4.61387 20.8032C3.60989 21.3543 1.00608 18.6601 0 14.479C4.16875 8.23544 4.19268 -0.10403 4.85252 0.000981961Z" sodipodi:nodetypes="cccc"/><path id="shape2111" transform="translate(280.820670726158, 276.004862048744)" fill="none" stroke="#f70f4c" stroke-width="1.575" stroke-linecap="square" stroke-linejoin="bevel" d="M10.0481 30.2764C16.068 27.6824 23.4377 22.0027 26.0231 16.7764C27.2053 12.5655 23.2796 0.838979 20.4543 0.0701376C11.0024 -1.04889 -1.17904 11.5007 0.0918289 17.8451C-0.204596 23.1474 6.70635 30.4078 10.0481 30.2764Z" sodipodi:nodetypes="ccccc"/><path id="shape221" transform="translate(339.575955324356, 150.616177553687)" fill="none" stroke="#f70f4c" stroke-width="1.575" stroke-linecap="square" stroke-linejoin="bevel" d="M153.312 33.7796C175.022 63.2617 174.369 89.7926 165.921 115.954C155.547 139.38 137.388 162.461 101.424 170.234C74.6077 175.439 40.6774 164.501 24.024 145.259C2.66154 124.324 -4.64808 91.703 2.87403 62.4588C17.2494 21.6369 44.8454 6.28012 72.7689 1.08475C99.9634 -4.22854 137.658 10.5025 153.312 33.7796Z" sodipodi:nodetypes="ccccccc"/><path id="shape23" transform="translate(354.477592771157, 168.10342331681)" fill="none" stroke="#f70f4c" stroke-width="1.575" stroke-linecap="square" stroke-linejoin="bevel" d="M138.947 49.6966C145.827 76.5902 136.361 98.1245 125.447 112.247C106.917 129.967 95.418 134.31 71.2224 135.872C49.3678 136.185 26.9451 126.795 11.132 104.751C1.83695 92.6884 -9.51144 59.1265 13.6224 27.9841C30.6271 6.56797 57.9737 -3.37003 82.4083 1.01884C120.94 8.21864 135.297 36.3638 138.947 49.6966Z" sodipodi:nodetypes="ccccccc"/><path id="shape24" transform="translate(488.990869914425, 184.696874284977)" fill="none" stroke="#f70f4c" stroke-width="1.575" stroke-linecap="square" stroke-linejoin="bevel" d="M3.47788 0C4.85385 7.54251 3.71373 15.3311 0 20.5409" sodipodi:nodetypes="cc"/><path id="shape27" transform="translate(385.368457042101, 195.92858765502)" fill="none" stroke="#f70f4c" stroke-width="1.575" stroke-linecap="square" stroke-linejoin="bevel" d="M74.6441 19.9589C90.3787 50.2299 68.7654 74.915 49.3316 79.0214C26.1573 84.5141 1.3614 67.89 0.281544 44.2589C-2.32751 22.8992 13.3708 0.0418991 40.1419 0.00186395C54.4683 -0.155199 68.4486 9.63863 74.6441 19.9589Z" sodipodi:nodetypes="ccccc"/><path id="shape28" transform="translate(419.482370002106, 239.860792157905)" fill="none" stroke="#f70f4c" stroke-width="1.575" stroke-linecap="square" stroke-linejoin="bevel" d="M25.5114 9.66421C25.1937 18.9508 16.8937 24.531 8.18641 22.8267C-1.97267 20.5204 -2.88154 6.22083 6.61141 1.39546C14.0007 -2.35751 25.7239 1.81476 25.5114 9.66421Z" sodipodi:nodetypes="cccc"/><path id="shape29" transform="translate(420.49129585514, 178.131817462824)" fill="none" stroke="#f70f4c" stroke-width="1.575" stroke-linecap="square" stroke-linejoin="bevel" d="M39.3844 37.686C33.0967 43.8261 23.9873 54.1654 16.7128 54.9482C7.9552 56.4044 1.20644 50.3048 0.365401 46.4365C-1.42115 42.2419 3.76696 33.1818 6.76912 27.9014C8.23688 22.1945 5.17746 19.46 4.93948 17.56C1.66095 13.0246 4.73912 4.76212 9.6329 2.68422C18.1614 -2.34604 35.4621 0.442799 43.521 4.9116C50.836 8.3816 58.1377 17.879 58.6354 25.9127C58.8324 32.7036 56.5782 38.4447 51.0782 39.5156C47.2435 40.0901 42.4452 36.8674 39.3844 37.686Z" sodipodi:nodetypes="cccccccccc"/><path id="shape30" transform="translate(485.995826130319, 304.601243675882)" fill="none" stroke="#f70f4c" stroke-width="1.575" stroke-linecap="square" stroke-linejoin="bevel" d="M0.926764 11.0115C1.05007 7.85732 0.837717 3.40802 2.4382 1.82349C9.05609 0.682667 14.6013 -0.561929 18.9049 0.272267C19.4764 2.40169 19.3222 8.71563 17.9901 11.6478C16.9658 13.9026 11.6737 16.2818 11.8648 17.9323C12.0066 19.1566 16.6049 19.9338 17.3537 21.4324C17.02 24.0678 17.4939 28.2899 16.6775 30.2624C11.2785 31.3961 4.78486 32.9897 0.250575 32.8988C-0.341774 32.3063 0.199393 29.0726 1.0063 28.1941C5.39509 27.0157 11.6501 26.9862 12.0239 25.4497C11.9233 23.3046 3.44044 20.1686 3.43256 17.8925C3.42337 15.2419 11.7986 12.35 13.3762 9.02271C13.923 7.86951 14.2288 4.98839 13.5751 4.40884C11.645 4.37471 9.50586 4.93432 7.05206 5.48276C6.1972 6.37146 6.60658 9.04658 6.41566 10.5739" sodipodi:nodetypes="ccccccccccccccc"/><path id="shape311" transform="translate(505.497401517298, 299.105978896466)" fill="none" stroke="#f70f4c" stroke-width="1.575" stroke-linecap="square" stroke-linejoin="bevel" d="M5.88666 3.50038C4.83661 4.98 2.99377 6.7892 2.38649 8.43245C1.89146 16.1407 1.04846 22.402 0 34.644C5.0327 34.0335 7.69108 33.5683 12.4097 33.2519C14.1679 31.2644 16.3925 29.8228 17.2622 27.9619C18.8498 17.3372 19.1214 7.5617 20.7624 1.63097C22.1432 4.11554 24.6749 4.00555 25.2172 5.44934C24.75 8.74706 24.5711 12.2292 23.7853 15.3533C23.3245 15.9247 21.5531 15.7731 21.1204 16.3476C20.7995 22.4241 20.1704 25.3224 19.9669 31.2234C23.5019 30.6734 24.5576 30.294 27.1264 29.8313C27.8121 22.6067 29.53 8.37015 29.9106 0.318399C28.8735 -0.687736 24.5649 0.986615 22.2739 1.27299" sodipodi:nodetypes="ccccccccccccc"/><path id="shape32" transform="translate(511.312467823, 307.462480651322)" fill="none" stroke="#f70f4c" stroke-width="1.575" stroke-linecap="square" stroke-linejoin="bevel" d="M8.26875 17.8312C7.4761 18.8796 7.18788 18.9868 5.56875 19.8C3.15604 14.4232 1.60488 9.3112 0 4.8375C0.61543 2.26075 1.05337 1.3313 1.6875 0" sodipodi:nodetypes="cccc"/><path id="shape011" transform="translate(229.719097665654, 481.872331706983)" fill="none" stroke="#f70f4c" stroke-width="1.575" stroke-linecap="square" stroke-linejoin="bevel" d="M7.33844 7.37704C10.248 5.60522 8.63188 0.860107 6.1452 0.157924C2.93108 -0.57106 0.0854278 1.28429 0 4.47349C0.107372 7.6734 4.59665 9.19147 7.33844 7.37704Z" sodipodi:nodetypes="cccc"/><path id="shape111" transform="translate(368.946745428007, 480.774949868699)" fill="none" stroke="#f70f4c" stroke-width="1.575" stroke-linecap="square" stroke-linejoin="bevel" d="M0.306383 1.99069C-0.845641 5.03956 1.36065 8.74247 5.08763 8.34694C7.9338 8.14919 8.78181 3.73117 7.87201 2.07506C6.70555 0.0696746 2.51697 -1.32549 0.306383 1.99069Z" sodipodi:nodetypes="cccc"/><path id="shape211" transform="translate(461.784939713012, 159.337680317858)" fill="none" stroke="#f70f4c" stroke-width="1.575" stroke-linecap="square" stroke-linejoin="bevel" d="M21.1775 9.97481C19.9922 19.1745 20.0817 24.0497 14.3189 30.8652C14.243 22.674 9.18942 10.6096 0 0" sodipodi:nodetypes="ccc"/>
</svg>
