<?xml version="1.0" standalone="no"?>
<!DOCTYPE svg PUBLIC "-//W3C//DTD SVG 20010904//EN" "http://www.w3.org/TR/2001/REC-SVG-20010904/DTD/svg10.dtd">
<!-- Created using Krita: https://krita.org -->
<svg xmlns="http://www.w3.org/2000/svg" 
    xmlns:xlink="http://www.w3.org/1999/xlink"
    xmlns:krita="http://krita.org/namespaces/svg/krita"
    xmlns:sodipodi="http://sodipodi.sourceforge.net/DTD/sodipodi-0.dtd"
    width="675pt"
    height="675pt"
    viewBox="0 0 675 675">
<defs/>
<path id="shape0" transform="translate(232.987509355843, 567.585787501826)" fill="none" stroke="#ff0061" stroke-width="1.35" stroke-linecap="square" stroke-linejoin="bevel" d="M38.1968 0C37.2003 12.2105 36.2207 28.3726 34.875 40.7017C16.6554 41.1137 2.21444 51.3138 0 62.0767C8.92332 67.6489 46.7303 60.1741 53.6625 46.1017C53.1826 32.6897 56.8077 16.7272 58.8375 4.25174" sodipodi:nodetypes="ccccc"/><path id="shape1" transform="translate(267.445459822082, 577.3703591281)" fill="none" stroke="#ff0061" stroke-width="1.35" stroke-linecap="square" stroke-linejoin="bevel" d="M3.26153 0C5.52869 0.859135 9.18335 1.74066 10.8187 2.86378C9.78902 10.8377 8.23486 23.2078 6.44351 33.1721C4.51162 34.1428 0.672575 32.0631 0 30.9448" sodipodi:nodetypes="cccc"/><path id="shape2" transform="translate(270.000011346555, 588.318774723671)" fill="none" stroke="#ff0061" stroke-width="1.35" stroke-linecap="square" stroke-linejoin="bevel" d="M0 0C2.2275 1.40063 4.24125 2.08688 6.91875 2.08125" sodipodi:nodetypes="cc"/><path id="shape3" transform="translate(268.931261301642, 598.275025142076)" fill="none" stroke="#ff0061" stroke-width="1.35" stroke-linecap="square" stroke-linejoin="bevel" d="M0 0C2.0025 2.2725 4.41 2.0025 6.3 2.1375" sodipodi:nodetypes="cc"/><path id="shape4" transform="translate(266.347101739661, 489.309064154129)" fill="none" stroke="#ff0061" stroke-width="1.35" stroke-linecap="square" stroke-linejoin="bevel" d="M88.046 0C74.0055 7.81176 64.8375 18.3729 56.6239 27.7628C50.7159 34.517 43.9453 44.8262 39.839 52.8209C36.5825 59.1609 32.8271 68.2712 31.4404 75.216C33.8559 78.415 34.1718 80.6149 31.2154 81.5722C21.9702 82.7261 4.07182 79.2709 0.502918 75.1597C0.125602 74.3488 -1.18131 71.8987 2.86542 70.7722C4.02897 61.0043 3.15017 47.6006 4.28035 37.786C4.90451 26.6019 8.047 13.2878 9.96814 3.10244" sodipodi:nodetypes="ccccccccc"/><path id="shape5" transform="translate(277.774842309451, 466.955653076522)" fill="none" stroke="#ff0061" stroke-width="1.35" stroke-linecap="square" stroke-linejoin="bevel" d="M3.94976 0C2.3239 1.2693 -0.549092 6.74934 0.0916126 8.63112C5.5027 10.0591 11.5374 12.3853 17.3936 14.6769C19.6758 13.4989 22.8293 7.60408 22.6041 5.44914C19.2156 3.27675 9.46523 0.748134 3.94976 0Z" sodipodi:nodetypes="ccccc"/><path id="shape6" transform="translate(276.637542399458, 474.890638268776)" fill="none" stroke="#ff0061" stroke-width="1.35" stroke-linecap="square" stroke-linejoin="bevel" d="M23.625 0C25.1863 6.89609 23.5386 17.2754 19.923 21.2995C16.8469 24.7985 11.0448 26.1119 5.96211 23.5666C3.35038 22.316 -0.860763 17.4341 0.154993 13.3445C-0.132298 9.8906 2.37136 5.29723 4.88819 1.96893" sodipodi:nodetypes="ccccc"/><path id="shape7" transform="translate(285.89063897661, 480.600023495554)" fill="none" stroke="#ff0061" stroke-width="1.35" stroke-linecap="square" stroke-linejoin="bevel" d="M6.075 0C8.02717 7.85857 3.49237 13.9589 0 18.4781" sodipodi:nodetypes="cc"/><path id="shape8" transform="translate(284.031544803509, 456.375569958754)" fill="none" stroke="#ff0061" stroke-width="1.35" stroke-linecap="square" stroke-linejoin="bevel" d="M0 10.3812C1.31708 7.60885 2.84548 3.51389 3.73883 0" sodipodi:nodetypes="cc"/><path id="shape9" transform="translate(288.128342161107, 459.318897746613)" fill="none" stroke="#ff0061" stroke-width="1.35" stroke-linecap="square" stroke-linejoin="bevel" d="M0 0C17.1505 3.76467 36.9119 4.29437 52.6342 5.02488" sodipodi:nodetypes="cc"/><path id="shape10" transform="translate(298.628880889127, 449.606264073089)" fill="none" stroke="#ff0061" stroke-width="1.35" stroke-linecap="square" stroke-linejoin="bevel" d="M0 1.59859C5.13975 -0.310472 33.0001 0.124261 43.5961 0" sodipodi:nodetypes="cc"/><path id="shape11" transform="translate(341.081133473499, 446.225515114445)" fill="none" stroke="#ff0061" stroke-width="1.35" stroke-linecap="square" stroke-linejoin="bevel" d="M0.975134 22.2808C9.39445 24.2047 23.4596 23.9601 29.1001 21.212C31.2234 15.6579 29.5886 5.13887 28.3689 1.07453C22.4582 -0.54574 10.3935 -0.221796 1.20013 1.29953C-0.476297 6.67174 -0.248791 16.6082 0.975134 22.2808Z" sodipodi:nodetypes="ccccc"/><path id="shape12" transform="translate(370.8200494556, 450.767308857698)" fill="none" stroke="#ff0061" stroke-width="1.35" stroke-linecap="square" stroke-linejoin="bevel" d="M0 0C9.68605 1.20938 22.5181 1.33437 32.0982 0.636396" sodipodi:nodetypes="cc"/><path id="shape13" transform="translate(371.217797014815, 459.239331868965)" fill="none" stroke="#ff0061" stroke-width="1.35" stroke-linecap="square" stroke-linejoin="bevel" d="M0 3.81838C9.207 3.26309 21.43 2.12521 30.4277 0" sodipodi:nodetypes="cc"/><path id="shape14" transform="translate(402.326686777534, 374.280461612486)" fill="none" stroke="#ff0061" stroke-width="1.35" stroke-linecap="square" stroke-linejoin="bevel" d="M2.02349 95.7776C1.41494 92.4843 -0.0527225 88.0655 0.00146055 84.7758C0.191369 73.2458 5.36621 57.8346 8.35459 46.4696C12.0617 32.3713 18.4008 13.9409 22.7064 0" sodipodi:nodetypes="cssc"/><path id="shape01" transform="translate(394.368774214307, 469.406278821622)" fill="none" stroke="#ff0061" stroke-width="1.35" stroke-linecap="square" stroke-linejoin="bevel" d="M0 5.7375C0.890717 9.32821 1.656 13.2115 2.86875 15.4406C6.81602 13.7613 15.2626 11.1798 18.7875 9.39375C17.4141 6.70973 16.7474 1.51324 15.0188 0C11.594 0.889991 4.06999 2.9485 0 5.7375Z" sodipodi:nodetypes="ccccc"/><path id="shape111" transform="translate(399.318762890915, 480.009390495791)" fill="none" stroke="#ff0061" stroke-width="1.35" stroke-linecap="square" stroke-linejoin="bevel" d="M11.7281 0C12.9178 3.90656 15.3365 9.20109 15.5319 13.0981C15.7825 16.8841 14.7376 21.7796 11.7281 23.2594C6.52174 25.1077 3.26531 21.9206 0 18.2531" sodipodi:nodetypes="cccc"/><path id="shape21" transform="translate(379.350015971069, 503.212501592357)" fill="none" stroke="#ff0061" stroke-width="1.35" stroke-linecap="square" stroke-linejoin="bevel" d="M32.1187 0C34.2394 10.9856 34.9296 22.1417 33.75 31.5563C34.9105 43.4114 34.958 59.4006 34.9836 70.3395C37.943 70.8826 39.1354 73.2596 37.1315 74.317C32.0567 78.5424 10.9762 80.729 8.09589 79.6866C3.0762 77.528 3.37404 74.6666 6.3458 71.4532C4.24346 60.0965 1.80249 44.8247 0 33.4125" sodipodi:nodetypes="ccccccc"/><path id="shape31" transform="translate(348.637517112071, 492.918774193784)" fill="none" stroke="#ff0061" stroke-width="1.35" stroke-linecap="square" stroke-linejoin="bevel" d="M36.6208 48.177C29.0874 42.1472 23.1771 32.7118 18.0062 24.6304C13.1432 16.9876 6.19735 7.38911 0 0" sodipodi:nodetypes="ccc"/><path id="shape41" transform="translate(391.781361739649, 580.23416295005)" fill="none" stroke="#ff0061" stroke-width="1.35" stroke-linecap="square" stroke-linejoin="bevel" d="M0 3.50018C2.62853 14.4456 5.22611 29.6993 7.63675 40.1725C18.5715 51.3479 42.6906 59.6525 52.1845 55.446C55.2842 46.6824 39.5905 33.4671 21.0011 30.4675C20.5257 21.4007 19.3305 9.14024 18.6146 0" sodipodi:nodetypes="ccccc"/><path id="shape51" transform="translate(400.571557780547, 582.779710515398)" fill="none" stroke="#ff0061" stroke-width="1.35" stroke-linecap="square" stroke-linejoin="bevel" d="M0 0C1.57508 8.56748 2.95969 23.0218 5.25027 28.5583C7.67057 28.8701 10.0948 28.0014 12.1711 27.7628" sodipodi:nodetypes="ccc"/><path id="shape61" transform="translate(401.92389945114, 589.262995583239)" fill="none" stroke="#ff0061" stroke-width="1.35" stroke-linecap="square" stroke-linejoin="bevel" d="M0 1.07392C3.04193 2.23909 6.63483 1.47765 9.14819 0" sodipodi:nodetypes="cc"/><path id="shape71" transform="translate(403.594439161872, 599.803305662858)" fill="none" stroke="#ff0061" stroke-width="1.35" stroke-linecap="square" stroke-linejoin="bevel" d="M0 0.875045C2.25516 1.5078 5.4367 1.47819 8.11405 0" sodipodi:nodetypes="cc"/><path id="shape81" transform="translate(317.163915517522, 437.968187010467)" fill="none" stroke="#ff0061" stroke-width="1.35" stroke-linecap="square" stroke-linejoin="bevel" d="M0 3.92937C9.7289 3.22138 32.3441 -1.43719 46.8861 0.444327C66.0114 3.12913 75.2849 4.93054 86.4861 8.76931" sodipodi:nodetypes="ccc"/><path id="shape91" transform="translate(340.481254417891, 432.879260472174)" fill="none" stroke="#ff0061" stroke-width="1.35" stroke-linecap="square" stroke-linejoin="bevel" d="M0 0.0769942C15.0865 -0.352575 34.6113 0.964756 48.2063 5.30824" sodipodi:nodetypes="cc"/><path id="shape101" transform="translate(280.237515184817, 348.784852795085)" fill="none" stroke="#ff0061" stroke-width="1.35" stroke-linecap="square" stroke-linejoin="bevel" d="M90.145 0C80.332 14.07 68.3501 27.7201 55.4625 38.8901C41.106 51.9011 17.5653 69.2249 0 80.5714C1.78305 93.1272 2.66839 100.671 3.1974 109.381C25.6482 99.0938 28.5687 97.7127 47.5432 86.6127C62.32 78.1214 83.8424 56.0162 93.4634 42.8053C102.469 30.3818 107.221 23.5213 113.4 12.0308" sodipodi:nodetypes="ccccccc"/><path id="shape1111" transform="translate(368.327381653341, 305.772954657133)" fill="none" stroke="#ff0061" stroke-width="1.35" stroke-linecap="square" stroke-linejoin="bevel" d="M0.335118 34.7646C-1.8348 43.0582 7.06652 48.223 11.6976 50.6271C23.356 56.8001 28.3134 54.9233 31.6664 50.7959C37.7156 42.2534 48.4921 24.2517 49.2726 18.2834C49.4702 10.9501 42.8553 7.01664 38.7539 4.67086C32.7731 1.8133 25.0287 -2.793 19.0664 2.25212C12.0649 12.4738 5.08267 23.741 0.335118 34.7646Z" sodipodi:nodetypes="ccccccc"/><path id="shape121" transform="translate(375.075018085812, 313.029403062266)" fill="none" stroke="#ff0061" stroke-width="1.35" stroke-linecap="square" stroke-linejoin="bevel" d="M18.2813 41.6269C23.3975 39.0018 26.4136 32.1133 29.3625 26.4956C32.8928 19.9006 35.8089 13.9664 35.4005 10.8962C34.2013 4.70355 20.7174 -0.108538 18.6188 0.00186204C14.1421 1.39421 9.92438 8.88428 7.23993 12.9645C3.88283 18.3074 0.1055 26.4546 0 29.4206C0.76346 35.487 14.2609 41.2675 18.2813 41.6269Z" sodipodi:nodetypes="ccccccc"/><path id="shape131" transform="translate(386.523594864686, 322.292345447647)" fill="none" stroke="#ff0061" stroke-width="1.35" stroke-linecap="square" stroke-linejoin="bevel" d="M12.2608 0.470173C8.45651 -1.58652 6.50972 3.53848 3.5872 7.44038C1.87967 10.0296 -2.29924 15.8891 1.63824 17.9409C4.50672 19.8523 7.34246 14.7294 9.79206 10.1848C10.9427 7.73304 15.5423 2.58008 12.2608 0.470173Z" sodipodi:nodetypes="ccccc"/><path id="shape141" transform="translate(391.542712260211, 260.325772595887)" fill="none" stroke="#ff0061" stroke-width="1.35" stroke-linecap="square" stroke-linejoin="bevel" d="M0 44.8262C6.82535 31.7403 13.2704 16.3459 15.8303 0C23.1475 0.876677 36.6242 8.80261 41.2862 14.2792C40.2 17.1759 38.0326 22.9237 36.0359 28.9958C33.7504 35.9465 32.9964 38.4302 31.8198 42.0419C28.6674 51.7182 28.6955 53.3023 25.9331 61.1338" sodipodi:nodetypes="cccccc"/><path id="shape15" transform="translate(417.937498590021, 297.337509950738)" fill="none" stroke="#ff0061" stroke-width="1.35" stroke-linecap="square" stroke-linejoin="bevel" d="M7.25627 0C7.32131 5.39405 7.96007 11.4252 7.87503 17.6625C7.64239 23.5538 5.60285 24.7507 0 25.9875" sodipodi:nodetypes="ccc"/><path id="shape16" transform="translate(395.549998237699, 369.900027623706)" fill="none" stroke="#ff0061" stroke-width="1.35" stroke-linecap="square" stroke-linejoin="bevel" d="M0 0.787471C7.01481 -0.196533 14.7933 1.88637 21.7943 2.85274C27.84 3.68725 32.8378 3.52481 36.7313 0" sodipodi:nodetypes="ccc"/><path id="shape17" transform="translate(419.624998130437, 323.099998560487)" fill="none" stroke="#ff0061" stroke-width="1.35" stroke-linecap="square" stroke-linejoin="bevel" d="M37.9125 49.275C32.04 51.0862 23.528 53.582 17.775 51.75C6.24647 43.7955 2.30962 17.991 0 0" sodipodi:nodetypes="ccc"/><path id="shape18" transform="translate(447.068262126972, 375.075953012219)" fill="none" stroke="#ff0061" stroke-width="1.35" stroke-linecap="square" stroke-linejoin="bevel" d="M5.32982 19.4101C3.80608 15.8433 1.73231 9.8241 0 0" sodipodi:nodetypes="cc"/><path id="shape19" transform="translate(423.123852063096, 379.928467278313)" fill="none" stroke="#ff0061" stroke-width="1.35" stroke-linecap="square" stroke-linejoin="bevel" d="M51.4685 30.547C45.5533 34.2493 33.6598 34.9794 22.8307 32.3767C13.3166 29.3309 2.31489 21.0886 0 0" sodipodi:nodetypes="ccc"/><path id="shape20" transform="translate(433.406275371642, 281.756266494037)" fill="none" stroke="#ff0061" stroke-width="1.35" stroke-linecap="square" stroke-linejoin="bevel" d="M0 0C16.8862 4.23595 30.4536 15.8736 37.4625 28.0125C44.5645 39.2106 49.8297 58.5176 44.4476 73.7505" sodipodi:nodetypes="ccc"/><path id="shape211" transform="translate(480.037510937107, 337.5)" fill="none" stroke="#ff0061" stroke-width="1.35" stroke-linecap="square" stroke-linejoin="bevel" d="M0 0C16.5514 23.1475 18.1757 42.9004 16.9875 63.9" sodipodi:nodetypes="cc"/><path id="shape22" transform="translate(446.269071081594, 394.00874128872)" fill="none" stroke="#ff0061" stroke-width="1.35" stroke-linecap="square" stroke-linejoin="bevel" d="M0.0184501 18.5288C-0.319965 32.1454 4.07541 42.2132 6.7654 52.1049C12.6126 65.1171 17.3208 76.573 17.9819 84.5611C26.2131 86.0129 39.8427 83.9842 47.4152 80.8223C52.8602 69.1848 56.8486 49.7757 57.2793 36.3541C57.6272 25.5134 56.7464 10.588 51.6313 0" sodipodi:nodetypes="cccccc"/><path id="shape23" transform="translate(452.159421160298, 435.533573337901)" fill="none" stroke="#ff0061" stroke-width="1.35" stroke-linecap="square" stroke-linejoin="bevel" d="M0 6.44351C19.0203 11.1131 38.9713 7.34242 50.673 0" sodipodi:nodetypes="cc"/><path id="shape24" transform="translate(454.936979436071, 478.569879466724)" fill="none" stroke="#ff0061" stroke-width="1.35" stroke-linecap="square" stroke-linejoin="bevel" d="M9.314 0C8.24803 8.94137 5.58981 16.252 0.3249 22.5125C-1.03088 24.9688 2.07623 27.6455 5.57517 26.0922C9.15121 25.4164 14.727 17.3479 15.9166 13.4439C18.7079 19.313 21.9852 27.3078 16.9507 35.32C14.3193 39.1041 8.04172 44.3087 11.78 47.4115C16.1769 50.4745 27.1013 39.2855 30.3151 30.3481" sodipodi:nodetypes="ccccccc"/><path id="shape25" transform="translate(476.527605476371, 508.003213083664)" fill="none" stroke="#ff0061" stroke-width="1.35" stroke-linecap="square" stroke-linejoin="bevel" d="M0.570619 13.8018C0.0257056 16.1446 -0.905054 20.0588 2.16161 21.1204C7.84306 20.7781 15.6333 8.52373 16.918 0" sodipodi:nodetypes="ccc"/><path id="shape26" transform="translate(486.112506765883, 509.681257093921)" fill="none" stroke="#ff0061" stroke-width="1.35" stroke-linecap="square" stroke-linejoin="bevel" d="M0 13.9781C1.15594 15.4463 1.25172 17.9597 3.88125 18.5344C8.84299 18.0533 12.9825 7.48969 13.3594 0" sodipodi:nodetypes="ccc"/><path id="shape27" transform="translate(493.706276293585, 474.862525290013)" fill="none" stroke="#ff0061" stroke-width="1.35" stroke-linecap="square" stroke-linejoin="bevel" d="M3.73673 46.505C4.0947 47.4039 4.37489 48.1712 5.10896 47.9369C10.5671 48.0225 11.7094 30.6981 9.70313 22.1063C7.48967 15.4636 2.91094 6.63188 0 0" sodipodi:nodetypes="cccc"/><path id="shape28" transform="translate(246.929935424703, 312.637500997249)" fill="none" stroke="#ff0061" stroke-width="1.35" stroke-linecap="square" stroke-linejoin="bevel" d="M36.3451 113.288C32.2051 92.0025 22.8479 76.282 12.0451 55.4625C5.9552 39.5559 -2.67118 22.8436 0.795072 0" sodipodi:nodetypes="ccc"/><path id="shape29" transform="translate(283.037174725585, 313.265990463562)" fill="none" stroke="#ff0061" stroke-width="1.35" stroke-linecap="square" stroke-linejoin="bevel" d="M68.5253 52.6965C53.7766 51.144 32.6977 57.2499 19.3628 47.5215C9.1377 39.9838 4.1175 15.6713 0 0" sodipodi:nodetypes="ccc"/><path id="shape30" transform="translate(328.300845624917, 274.764022483272)" fill="none" stroke="#ff0061" stroke-width="1.35" stroke-linecap="square" stroke-linejoin="bevel" d="M48.2866 48.6843C35.746 48.6514 16.3875 47.6458 9.19915 40.7294C1.66124 33.4766 2.75975 12.2188 0 0" sodipodi:nodetypes="ccc"/><path id="shape311" transform="translate(395.201994441922, 216.099297554243)" fill="none" stroke="#ff0061" stroke-width="1.35" stroke-linecap="square" stroke-linejoin="bevel" d="M0 18.3331C3.73253 16.1953 9.3728 14.0308 12.4418 11.207C15.4564 7.09414 19.893 -1.87922 24.5355 0.350707C30.4131 3.17749 24.6467 11.3501 23.1293 14.9195C21.4528 18.8738 18.8264 25.5203 12.948 23.1882" sodipodi:nodetypes="ccccc"/><path id="shape32" transform="translate(412.702867253566, 222.142011720428)" fill="none" stroke="#ff0061" stroke-width="1.35" stroke-linecap="square" stroke-linejoin="bevel" d="M4.97184 0C2.60103 3.08642 0.56792 7.66611 0 11.4949" sodipodi:nodetypes="cc"/><path id="shape33" transform="translate(313.46485944285, 220.272596956071)" fill="none" stroke="#ff0061" stroke-width="1.35" stroke-linecap="square" stroke-linejoin="bevel" d="M95.0219 15.5917C92.8343 26.2951 88.5751 40.1972 84.2827 49.2809M84.2827 49.2809C73.526 55.0758 59.6427 58.0639 46.6558 60.8952C36.7075 61.0203 25.8708 58.2323 13.3245 53.5368C8.06531 48.7309 2.32694 38.6673 0 31.5414C0.79631 22.2536 2.81207 9.46242 4.01724 0" sodipodi:nodetypes="ccccccc"/><path id="shape34" transform="translate(314.671863611542, 185.907220152436)" fill="none" stroke="#ff0061" stroke-width="1.35" stroke-linecap="square" stroke-linejoin="bevel" d="M8.61739 0C7.98495 5.05422 5.77035 11.0831 5.19676 15.9099C2.48949 23.6103 3.15015 30.706 4.71946 35.1609C-2.02891 32.9907 0.413222 24.6166 0.503318 18.6941C0.271983 9.00657 4.28989 9.45844 6.39 8.83" sodipodi:nodetypes="ccccc"/><path id="shape35" transform="translate(322.85169753628, 178.389782364201)" fill="none" stroke="#ff0061" stroke-width="1.35" stroke-linecap="square" stroke-linejoin="bevel" d="M25.8934 5.96621C19.7082 3.51906 10.6611 1.1619 1.82964 0C1.00705 1.6808 0.195554 4.80626 0 6.80148C6.95985 8.00982 16.8192 10.3494 24.1831 11.9324C25.1954 10.5781 26.1179 7.56957 25.8934 5.96621Z" sodipodi:nodetypes="ccccc"/><path id="shape36" transform="translate(362.680548548887, 186.543604944558)" fill="none" stroke="#ff0061" stroke-width="1.35" stroke-linecap="square" stroke-linejoin="bevel" d="M0.701621 0C-0.00384535 2.0608 -0.0893155 5.23614 0.065225 6.72193C8.39319 9.11361 22.1454 10.5601 29.1803 10.1823C30.2043 8.97182 30.7251 4.8772 30.4929 3.42063C21.2991 3.61191 10.122 1.46335 0.701621 0Z" sodipodi:nodetypes="ccccc"/><path id="shape37" transform="translate(324.99953089487, 191.001777820148)" fill="none" stroke="#ff0061" stroke-width="1.35" stroke-linecap="square" stroke-linejoin="bevel" d="M0 7.95156C0.345142 10.2587 15.1961 14.367 17.4611 13.2018C18.6846 11.8783 19.4418 3.3157 12.5005 0.43413C5.00442 -1.86651 0.755892 5.61429 0 7.95156Z" sodipodi:nodetypes="cccc"/><path id="shape38" transform="translate(330.854674554484, 194.538331367863)" fill="none" stroke="#ff0061" stroke-width="1.35" stroke-linecap="square" stroke-linejoin="bevel" d="M4.08855 0C0.162963 0.063409 -0.555442 3.4981 0.349721 4.97184C1.2037 6.73776 5.22337 7.2609 6.64533 5.32982C7.67834 4.1079 6.65221 0.21041 4.08855 0Z" sodipodi:nodetypes="cccc"/><path id="shape39" transform="translate(363.779931330625, 197.857567184391)" fill="none" stroke="#ff0061" stroke-width="1.35" stroke-linecap="square" stroke-linejoin="bevel" d="M0 10.2042C0.667352 13.111 17.8342 16.4971 21.0408 15.5738C22.2672 13.9369 22.2337 2.52999 11.9722 0.260493C4.58522 -1.68489 0.255514 7.82652 0 10.2042Z" sodipodi:nodetypes="cccc"/><path id="shape40" transform="translate(368.920220494198, 201.488752548999)" fill="none" stroke="#ff0061" stroke-width="1.35" stroke-linecap="square" stroke-linejoin="bevel" d="M5.1216 0.169263C2.12397 -0.895103 -0.584953 3.32421 0.109978 5.45931C0.523425 7.46373 5.59773 8.98386 7.03079 7.48782C8.81193 6.24096 9.25321 1.96558 5.1216 0.169263Z" sodipodi:nodetypes="cccc"/><path id="shape411" transform="translate(337.97011284683, 191.952967491258)" fill="none" stroke="#ff0061" stroke-width="1.35" stroke-linecap="square" stroke-linejoin="bevel" d="M11.5704 0C11.7638 6.47586 10.2288 14.0637 7.43386 18.7737C1.45124 18.3649 0.0540503 23.0083 0.0357669 25.2172C-0.456435 29.4111 4.25644 30.9169 6.47928 31.3823C12.3511 33.0485 16.4303 32.8036 17.1389 27.4844C16.8198 29.0993 16.4444 32.0013 18.4117 32.4562C21.3219 32.3872 22.0352 31.5971 22.7074 26.3707" sodipodi:nodetypes="ccccccc"/><path id="shape42" transform="translate(333.924638633929, 213.152913524962)" fill="none" stroke="#ff0061" stroke-width="1.35" stroke-linecap="square" stroke-linejoin="bevel" d="M0.620831 0C-1.41961 5.3855 2.04477 7.77994 4.16079 6.48329" sodipodi:nodetypes="cc"/><path id="shape43" transform="translate(317.306248564427, 218.045217001654)" fill="none" stroke="#ff0061" stroke-width="1.35" stroke-linecap="square" stroke-linejoin="bevel" d="M16.404 0C8.67175 2.37853 6.19479 8.4353 4.55108 13.3643C1.83177 22.905 1.36533 33.3098 0 41.8579" sodipodi:nodetypes="ccc"/><path id="shape44" transform="translate(360.438836917791, 221.386290695699)" fill="none" stroke="#ff0061" stroke-width="1.35" stroke-linecap="square" stroke-linejoin="bevel" d="M0 0C11.4692 3.82734 16.7286 10.7538 16.5768 19.3356C16.6839 30.4128 14.864 45.264 14.1299 56.3762" sodipodi:nodetypes="ccc"/><path id="shape45" transform="translate(320.850003467653, 220.387502381884)" fill="none" stroke="#ff0061" stroke-width="1.35" stroke-linecap="square" stroke-linejoin="bevel" d="M15.4125 0C9.64125 2.66062 6.0375 6.66372 4.6125 11.025C2.10821 20.0166 0.689867 30.5166 0 39.7125C0.961155 42.2391 4.48197 45.7554 6.89398 49.2058C11.068 51.3207 13.9476 51.8912 16.1217 52.4275C17.0704 48.7452 18.8494 38.3681 20.25 32.3438" sodipodi:nodetypes="cccccc"/><path id="shape46" transform="translate(341.704932046636, 224.437511828357)" fill="none" stroke="#ff0061" stroke-width="1.35" stroke-linecap="square" stroke-linejoin="bevel" d="M17.0576 0C24.5801 1.87401 30.3974 6.19395 31.3451 14.0625C31.5996 23.881 30.6636 33.3394 29.2742 47.9798C24.0872 49.682 18.8131 51.2789 13.6825 52.1959C9.68917 51.9706 4.81201 51.0807 0 49.2924C1.03207 44.5089 3.00838 35.2041 4.0968 29.1663" sodipodi:nodetypes="cccccc"/><path id="shape47" transform="translate(327.89920037052, 233.318715314222)" fill="none" stroke="#ff0061" stroke-width="1.35" stroke-linecap="square" stroke-linejoin="bevel" d="M38.2672 8.11405C36.6907 11.1312 29.1689 19.2342 24.0278 21.5579C17.7992 19.7411 11.7672 19.516 3.94159 16.427C1.42409 12.9404 -0.804557 3.22031 0.282314 0C10.0701 1.37039 30.1225 4.53944 38.2672 8.11405Z" sodipodi:nodetypes="ccccc"/><path id="shape48" transform="translate(332.795378628383, 229.937861103225)" fill="none" stroke="#ff0061" stroke-width="1.35" stroke-linecap="square" stroke-linejoin="bevel" d="M0 3.26153C2.52967 2.28307 5.86683 0.104968 8.43225 0C11.1399 2.93813 12.9526 3.53991 15.4326 2.06829C18.3961 3.44951 21.8642 6.32816 24.6206 8.15382" sodipodi:nodetypes="cccc"/><path id="shape49" transform="translate(321.098976810504, 172.30306848609)" fill="none" stroke="#ff0061" stroke-width="1.35" stroke-linecap="square" stroke-linejoin="bevel" d="M44.5106 2.06946C30.6648 -0.0987244 14.6385 -1.0216 3.7017 1.59216C0.0848751 2.87821 -1.65887 5.81628 2.11071 8.75162" sodipodi:nodetypes="ccc"/><path id="shape50" transform="translate(326.953139299148, 177.808616574164)" fill="none" stroke="#ff0061" stroke-width="1.35" stroke-linecap="square" stroke-linejoin="bevel" d="M0 0.728892C11.8736 -0.444831 32 -0.386973 44.7817 2.29148C61.5198 6.23719 81.3444 13.1671 98.4656 23.1164C98.8658 23.552 99.013 25.0748 99.0844 25.2258C100.949 25.6232 102.24 22.5988 100.041 19.882" sodipodi:nodetypes="ccccc"/><path id="shape511" transform="translate(405.161380263951, 192.271179874708)" fill="none" stroke="#ff0061" stroke-width="1.35" stroke-linecap="square" stroke-linejoin="bevel" d="M2.45034 0C-3.29607 18.276 2.23646 23.3359 7.06421 27.2855" sodipodi:nodetypes="cc"/><path id="shape52" transform="translate(420.018772993963, 201.881261052007)" fill="none" stroke="#ff0061" stroke-width="1.35" stroke-linecap="square" stroke-linejoin="bevel" d="M5.34375 0C3.74063 4.32 1.60313 10.08 0 14.4" sodipodi:nodetypes="cc"/><path id="shape53" transform="translate(327.028053625764, 132.051289914487)" fill="none" stroke="#ff0061" stroke-width="1.35" stroke-linecap="square" stroke-linejoin="bevel" d="M0 40.3325C5.37868 28.2567 10.7329 10.1183 14.747 0.0799617C43.5022 -0.926208 86.4054 7.70302 105.591 18.08C106.146 25.3554 105.292 40.2832 103.573 49.7989" sodipodi:nodetypes="cccc"/><path id="shape54" transform="translate(422.553261901393, 182.60167117465)" fill="none" stroke="#ff0061" stroke-width="1.35" stroke-linecap="square" stroke-linejoin="bevel" d="M11.2467 3.47333C10.0485 -0.562033 5.46974 -0.540103 3.54048 0.829581C0.719798 2.50602 -1.84174 7.45027 1.79673 10.7858C2.78329 12.2554 7.26663 13.6935 9.78423 12.5296C11.7307 10.8119 13.2394 5.97032 11.2467 3.47333Z" sodipodi:nodetypes="ccccc"/><path id="shape55" transform="translate(423.755676003614, 193.822394631571)" fill="none" stroke="#ff0061" stroke-width="1.35" stroke-linecap="square" stroke-linejoin="bevel" d="M0.601208 0C0.804059 0.847202 -1.26192 1.91287 1.27737 2.82401C3.52114 4.28581 3.42123 2.04442 4.34003 1.71031" sodipodi:nodetypes="ccc"/><path id="shape56" transform="translate(433.18126506035, 194.512506762588)" fill="none" stroke="#ff0061" stroke-width="1.35" stroke-linecap="square" stroke-linejoin="bevel" d="M0 0C1.5525 5.95125 3.92099 9.87863 7.70625 12.4313C13.4823 16.4343 20.651 21.1838 22.1625 24.6938C24.0503 23.6131 27.8438 12.8756 18.5063 3.7125" sodipodi:nodetypes="cccc"/><path id="shape57" transform="translate(434.141454708737, 182.324050730897)" fill="none" stroke="#ff0061" stroke-width="1.35" stroke-linecap="square" stroke-linejoin="bevel" d="M0.397776 7.91862C4.35934 10.1142 9.35968 14.0415 13.603 15.2372C15.9304 15.893 19.465 15.958 21.8761 15.5951C27.8507 14.696 40.4589 10.8638 41.2067 8.71411C40.7666 6.39958 25.7595 0.740316 18.8532 0.00342797C13.2771 -0.0659853 5.25934 0.917991 0 3.02631" sodipodi:nodetypes="cccccc"/><path id="shape58" transform="translate(426.703575457199, 186.503827863424)" fill="none" stroke="#ff0061" stroke-width="1.35" stroke-linecap="square" stroke-linejoin="bevel" d="M7.51743 0C3.43893 0.311441 0.688443 3.75015 0 7.8754" sodipodi:nodetypes="cc"/><path id="shape59" transform="translate(288.45000948809, 236.182511821671)" fill="none" stroke="#ff0061" stroke-width="1.35" stroke-linecap="square" stroke-linejoin="bevel" d="M0 97.83C16.335 83.115 23.8129 67.67 21.825 42.03C21.862 29.6716 16.9414 11.4022 13.9177 0C19.2191 0.504806 22.8829 1.22506 26.7252 1.75009" sodipodi:nodetypes="cccc"/><path id="shape611" transform="translate(199.032881007234, 287.810137283842)" fill="none" stroke="#ff0061" stroke-width="1.35" stroke-linecap="square" stroke-linejoin="bevel" d="M75.6921 18.7524C65.4236 25.1026 48.1868 26.6384 30.9534 20.7541C20.0449 17.0294 9.13769 10.3316 0 0" sodipodi:nodetypes="ccc"/><path id="shape62" transform="translate(266.252222852506, 222.966314333588)" fill="none" stroke="#ff0061" stroke-width="1.35" stroke-linecap="square" stroke-linejoin="bevel" d="M35.9564 13.8525C26.2894 4.08465 12.4052 -3.50551 0 1.68146" sodipodi:nodetypes="cc"/><path id="shape63" transform="translate(231.568634814355, 218.086371806173)" fill="none" stroke="#ff0061" stroke-width="1.35" stroke-linecap="square" stroke-linejoin="bevel" d="M45.2637 14.2777C33.242 4.06627 15.6144 -3.05981 0 1.3111" sodipodi:nodetypes="cc"/><path id="shape64" transform="translate(180.000012896123, 211.050015120704)" fill="none" stroke="#ff0061" stroke-width="1.35" stroke-linecap="square" stroke-linejoin="bevel" d="M67.275 53.325C70.5825 40.7363 70.2169 19.1593 53.55 9.1125C39.2835 1.31633 19.8834 1.14276 0 0" sodipodi:nodetypes="ccc"/><path id="shape65" transform="translate(157.275010304917, 246.937516179751)" fill="none" stroke="#ff0061" stroke-width="1.35" stroke-linecap="square" stroke-linejoin="bevel" d="M65.4188 39.9938C53.9796 42.154 36.2316 42.8588 25.875 31.3875C14.6537 21.4636 3.6116 1.02177 0 0" sodipodi:nodetypes="ccc"/><path id="shape66" transform="translate(148.561525929436, 191.993553820099)" fill="none" stroke="#ff0061" stroke-width="1.35" stroke-linecap="square" stroke-linejoin="bevel" d="M32.3385 35.9314C34.296 32.4777 34.3086 28.0242 33.2385 24.2314C29.7435 16.8803 25.752 6.89898 20.301 1.39393C14.6438 -1.29094 6.3389 0.164405 3.87595 3.53143C-1.19525 8.53061 -1.19302 28.2331 3.31345 28.7314C9.37633 29.9441 13.2697 17.5264 12.3135 10.3939" sodipodi:nodetypes="cccccc"/><path id="shape67" transform="translate(147.723443643006, 210.567558063025)" fill="none" stroke="#ff0061" stroke-width="1.35" stroke-linecap="square" stroke-linejoin="bevel" d="M12.887 0C17.5168 9.25956 27.133 22.0888 28.3196 30.8652C29.1949 36.5723 14.5436 37.746 9.70504 36.5132C5.70051 35.805 2.68651 30.7896 0 26.6491" sodipodi:nodetypes="cccc"/><path id="shape68" transform="translate(129.749848864761, 225.511852606343)" fill="none" stroke="#ff0061" stroke-width="1.35" stroke-linecap="square" stroke-linejoin="bevel" d="M19.6441 16.08C14.5441 17.3793 8.00822 17.2236 1.90255 12.1529C-3.42574 4.4222 3.88849 2.66484 6.20021 1.20425C14.4987 -0.484646 23.274 -0.962968 26.1274 3.59074C26.9538 10.4021 19.8336 10.9609 10.5938 11.0757" sodipodi:nodetypes="ccccc"/><path id="shape69" transform="translate(155.996594430738, 239.961354932823)" fill="none" stroke="#ff0061" stroke-width="1.35" stroke-linecap="square" stroke-linejoin="bevel" d="M13.3643 1.23276C8.25654 -0.918558 2.89978 0.0294668 0 1.90894" sodipodi:nodetypes="cc"/><path id="shape70" transform="translate(125.917109744824, 214.7625032805)" fill="none" stroke="#ff0061" stroke-width="1.35" stroke-linecap="square" stroke-linejoin="bevel" d="M4.86415 14.9625C1.15456 15.9798 -1.5346 9.38961 0.982897 4.55625C4.24896 0.285178 15.6529 0.185625 22.5829 0" sodipodi:nodetypes="ccc"/><path id="shape711" transform="translate(153.450002343951, 220.612503369859)" fill="none" stroke="#ff0061" stroke-width="1.35" stroke-linecap="square" stroke-linejoin="bevel" d="M1.06875 0C2.94188 2.7675 1.95188 4.2075 0 5.2875" sodipodi:nodetypes="cc"/><path id="shape72" transform="translate(123.32478980219, 203.552316580157)" fill="none" stroke="#ff0061" stroke-width="1.35" stroke-linecap="square" stroke-linejoin="bevel" d="M22.5877 10.9289C25.1777 7.25385 24.8626 0.88127 18.7506 0.293306C12.9902 -0.835202 4.40936 1.44597 2.78771 4.51645C-1.67006 9.08887 -0.269517 14.3284 3.39757 15.8452" sodipodi:nodetypes="cccc"/><path id="shape73" transform="translate(120.208868550516, 188.395271174843)" fill="none" stroke="#ff0061" stroke-width="1.35" stroke-linecap="square" stroke-linejoin="bevel" d="M5.90365 19.6735C-0.222661 20.0094 -1.27576 15.1571 1.34282 9.0864C2.90568 5.23318 11.509 0.0118404 15.8606 0.0177509C22.9189 -0.296911 24.3994 3.65244 24.5315 5.46689C24.729 8.38004 16.1748 12.3479 12.8775 15.4106" sodipodi:nodetypes="ccccc"/><path id="shape74" transform="translate(77.7375046816863, 155.250009349822)" fill="none" stroke="#ff0061" stroke-width="1.35" stroke-linecap="square" stroke-linejoin="bevel" d="M45.675 38.025C31.9725 29.655 12.4268 17.8864 0 10.125C5.16456 6.32852 12.0635 1.26824 16.425 0C31.6943 10.4635 50.3855 20.6533 63.7875 29.5875C67.0092 32.3008 70.4025 36.99 73.2375 40.1625" sodipodi:nodetypes="ccccc"/><path id="shape75" transform="translate(78.4755956810505, 155.531249116976)" fill="none" stroke="#ff0061" stroke-width="1.35" stroke-linecap="square" stroke-linejoin="bevel" d="M15.9119 0C14.2266 9.84841 6.89487 11.3768 0 10.0908" sodipodi:nodetypes="cc"/><path id="shape76" transform="translate(148.996243291756, 177.554519501975)" fill="none" stroke="#ff0061" stroke-width="1.35" stroke-linecap="square" stroke-linejoin="bevel" d="M10.5005 13.603C10.374 8.3389 4.93593 3.38211 0 0" sodipodi:nodetypes="cc"/><path id="shape77" transform="translate(51.3956595214578, 115.108146264708)" fill="none" stroke="#ff0061" stroke-width="1.35" stroke-linecap="square" stroke-linejoin="bevel" d="M90.3616 69.2876C95.0073 66.1534 98.9784 59.2571 99.7484 55.1278C77.1223 41.729 34.2806 15.2508 12.3235 0C21.5452 5.57104 13.6964 23.6712 5.91977 23.308C-0.890661 25.0681 -2.43645 12.4563 4.52766 5.48892C6.69778 2.46831 9.77268 0.121056 12.4031 0.318198" sodipodi:nodetypes="cccccc"/><path id="shape78" transform="translate(55.0125035780001, 137.418758937683)" fill="none" stroke="#ff0061" stroke-width="1.35" stroke-linecap="square" stroke-linejoin="bevel" d="M0 0C8.93346 5.8866 31.1157 17.8221 34.242 20.0097" sodipodi:nodetypes="cc"/><path id="shape79" transform="translate(36.3866087286309, 121.381253400601)" fill="none" stroke="#ff0061" stroke-width="1.35" stroke-linecap="square" stroke-linejoin="bevel" d="M42.7009 41.4625C31.2016 34.9419 18.1817 28.1632 4.82004 20.1771C-0.688206 19.4963 -1.3124 13.5112 2.11651 6.55937C5.13129 1.31657 9.28446 -0.572424 12.2978 0.146874C14.008 0.510038 13.9638 1.32054 14.1821 1.94687M14.883 8.88107C13.1506 12.6398 8.62408 18.6884 4.82004 20.0578" sodipodi:nodetypes="ccccccc"/><path id="shape80" transform="translate(55.0255245681895, 121.290651661317)" fill="none" stroke="#ff0061" stroke-width="1.35" stroke-linecap="square" stroke-linejoin="bevel" d="M8.97206 3.16456C8.12023 6.57013 5.15447 11.8964 1.21599 10.6022C-0.616576 8.75556 -0.540466 6.56109 2.56832 2.40884C5.55592 -0.986451 8.77744 -0.844091 8.97206 3.16456Z" sodipodi:nodetypes="cccc"/><path id="shape811" transform="translate(39.0732366380358, 125.751615672584)" fill="none" stroke="#ff0061" stroke-width="1.35" stroke-linecap="square" stroke-linejoin="bevel" d="M5.59381 0.175263C9.71552 -0.959616 8.32113 3.71392 7.14503 5.66419C5.35299 8.67441 3.1414 11.674 0.303772 9.8803C-1.10174 6.83042 2.66301 1.78623 5.59381 0.175263Z" sodipodi:nodetypes="cccc"/><path id="shape011" transform="translate(401.168182864815, 260.962170114619)" fill="none" stroke="#ff0061" stroke-width="1.35" stroke-linecap="square" stroke-linejoin="bevel" d="M0 0C1.58625 0.84375 4.10154 0.667691 5.68779 1.51144" sodipodi:nodetypes="cc"/>
</svg>
