<?xml version="1.0" standalone="no"?>
<!DOCTYPE svg PUBLIC "-//W3C//DTD SVG 20010904//EN" "http://www.w3.org/TR/2001/REC-SVG-20010904/DTD/svg10.dtd">
<!-- Created using Krita: https://krita.org -->
<svg xmlns="http://www.w3.org/2000/svg" 
    xmlns:xlink="http://www.w3.org/1999/xlink"
    xmlns:krita="http://krita.org/namespaces/svg/krita"
    xmlns:sodipodi="http://sodipodi.sourceforge.net/DTD/sodipodi-0.dtd"
    width="675pt"
    height="675pt"
    viewBox="0 0 675 675">
<defs/>
<path id="shape0" transform="translate(455.625023494931, 108.225005580771)" fill="none" stroke="#ff0061" stroke-width="1.35" stroke-linecap="square" stroke-linejoin="bevel" d="M17.6625 41.5125C18.81 45.5175 22.5488 57.8066 23.4 61.5375C26.4224 57.1567 27.7504 54.3578 29.5875 50.85C30.8973 43.9695 31.7904 33.9788 31.1625 26.8875C30.6352 20.9332 29.8553 11.3811 26.325 7.3125C21.2744 5.32022 13.4289 2.36119 8.2125 0C3.60734 2.30586 2.74076 17.4355 1.575 25.0875C1.25 35.8254 0.696301 51.378 0 61.0875C4.94512 59.8515 11.058 58.0041 15.3 55.8C17.5288 37.8619 22.1425 21.6981 26.325 7.5375" sodipodi:nodetypes="cccccccccc"/><path id="shape1" transform="translate(331.64772498197, 109.462508173756)" fill="none" stroke="#ff0061" stroke-width="1.35" stroke-linecap="square" stroke-linejoin="bevel" d="M127.577 8.1C125.215 5.67 122.715 1.83442 119.702 0C114.583 1.55974 106.031 3.88463 99.9023 5.5125C99.3225 7.06667 98.4287 8.58057 97.4273 9.5625C84.4204 10.501 68.6639 12.6182 56.2523 12.825C42.8567 12.8662 28.2456 10.6936 12.0062 10.3391C8.77688 13.5461 3.48669 18.9954 0.4523 23.625C-0.6148 39.7945 0.279609 59.6885 2.3648 75.7125" sodipodi:nodetypes="cccccccc"/><path id="shape2" transform="translate(404.662511266256, 109.518753049124)" fill="none" stroke="#ff0061" stroke-width="1.35" stroke-linecap="square" stroke-linejoin="bevel" d="M0 19.575C13.7981 18.225 34.3153 12.7811 45.0563 8.8875C45.475 6.51098 46.1194 2.66625 46.575 0" sodipodi:nodetypes="ccc"/><path id="shape3" transform="translate(391.50000974387, 150.18750373795)" fill="none" stroke="#ff0061" stroke-width="1.35" stroke-linecap="square" stroke-linejoin="bevel" d="M65.025 6.075C58.68 6.51375 50.2127 7.62543 43.875 7.5375C36.7457 6.87843 28.0102 6.09563 20.7 5.2875C14.3491 3.3972 6.21 1.58625 0 0" sodipodi:nodetypes="cccc"/><path id="shape4" transform="translate(331.762508745996, 133.537503520345)" fill="none" stroke="#ff0061" stroke-width="1.35" stroke-linecap="square" stroke-linejoin="bevel" d="M0 8.6625C2.295 6.06375 5.51229 2.33245 7.65 0C12.6561 0.982611 20.2461 1.54015 25.65 2.1375C29.8545 2.16425 36.378 1.02172 40.5292 0.582972" sodipodi:nodetypes="cccc"/><path id="shape5" transform="translate(371.058694523932, 131.079101990725)" fill="none" stroke="#ff0061" stroke-width="1.35" stroke-linecap="square" stroke-linejoin="bevel" d="M0 0.893537C3.76767 5.24078 10.9305 17.2513 13.3245 22.4912C16.0306 23.3262 20.8214 24.5292 22.3136 24.2413C20.1207 20.3667 14.8041 6.25217 12.1313 0.0184923C9.2646 -0.016503 4.68725 -0.102746 0 0.893537Z" sodipodi:nodetypes="ccccc"/><path id="shape6" transform="translate(372.824998313201, 153.848754753996)" fill="none" stroke="#ff0061" stroke-width="1.35" stroke-linecap="square" stroke-linejoin="bevel" d="M31.9229 0C33.1878 4.29567 33.6641 10.8989 36.139 14.3189C40.1255 17.5337 47.7137 20.1672 49.5034 23.5467C48.7668 26.1694 46.1185 29.2064 45.7875 31.7762C54.8867 45.9768 57.2799 64.5805 52.5375 71.6012C50.2656 75.6872 40.7345 75.4576 34.3125 74.3012C24.1505 71.0778 10.2937 64.93 0 60.9137" sodipodi:nodetypes="ccccccc"/><path id="shape7" transform="translate(365.625022583484, 148.612509179318)" fill="none" stroke="#ff0061" stroke-width="1.35" stroke-linecap="square" stroke-linejoin="bevel" d="M2.3625 0C1.65375 3.07125 0.769113 7.92311 0 10.2375C8.33165 12.1946 16.8585 14.93 25.4404 18.7199C31.4533 20.3225 37.8743 19.2816 41.4 16.425" sodipodi:nodetypes="cccc"/><path id="shape8" transform="translate(385.312522661861, 165.20625971648)" fill="none" stroke="#ff0061" stroke-width="1.35" stroke-linecap="square" stroke-linejoin="bevel" d="M0 0C0.54 4.35375 0.926469 11.0106 1.8 14.5125C7.57815 15.5485 13.2304 16.1409 18.0563 16.425C19.8581 15.8865 21.6852 13.3123 23.2875 12.0375C26.9261 11.4414 28.2713 9.60188 29.925 7.03125" sodipodi:nodetypes="ccccc"/><path id="shape9" transform="translate(397.747572083549, 181.611541413348)" fill="none" stroke="#ff0061" stroke-width="1.35" stroke-linecap="square" stroke-linejoin="bevel" d="M1.98874 0C3.01493 3.0547 4.64378 7.16442 5.40937 10.1823C5.44055 15.0774 5.8619 21.3159 4.77297 25.774C3.98823 28.9868 1.14669 33.4245 0 35.9564C3.55698 38.4113 11.0597 40.998 15.9099 42.559C19.6733 42.9511 24.6524 42.3363 28.3992 42.2408" sodipodi:nodetypes="cccccc"/><path id="shape10" transform="translate(353.925002573108, 136.125000989657)" fill="none" stroke="#ff0061" stroke-width="1.35" stroke-linecap="square" stroke-linejoin="bevel" d="M8.6625 16.0875C6.975 11.2613 4.21461 1.27624 3.0375 0C2.58573 3.32348 1.03229 14.3583 0 20.5875C1.04285 28.9415 7.59912 37.5555 8.55 38.7C9.38811 38.516 8.62875 29.7225 8.6625 25.875" sodipodi:nodetypes="ccccc"/><path id="shape11" transform="translate(347.062511466364, 164.925005448846)" fill="none" stroke="#ff0061" stroke-width="1.35" stroke-linecap="square" stroke-linejoin="bevel" d="M21.375 33.1875C16.1775 27.5175 7.93624 20.743 4.05 14.2875C1.93728 10.5023 0.343169 2.58085 0 0C2.99792 2.87806 11.97 7.95375 17.1 11.3625" sodipodi:nodetypes="cccc"/><path id="shape12" transform="translate(365.211813680025, 186.62315724098)" fill="none" stroke="#ff0061" stroke-width="1.35" stroke-linecap="square" stroke-linejoin="bevel" d="M0.795495 0C4.23203 4.67751 9.05933 11.5074 12.2506 15.5917C11.7986 17.6279 11.4103 20.2308 10.3414 21.9557C7.58184 22.7844 3.10243 23.2364 0 23.7853" sodipodi:nodetypes="cccc"/><path id="shape13" transform="translate(323.88750117507, 166.725000604881)" fill="none" stroke="#ff0061" stroke-width="1.35" stroke-linecap="square" stroke-linejoin="bevel" d="M8.775 4.275C6.1425 2.9925 3.06036 1.00676 0 0C2.82314 9.80128 7.08428 13.2204 8.70902 21.4096" sodipodi:nodetypes="ccc"/><path id="shape14" transform="translate(306.265636497339, 191.873432527684)" fill="none" stroke="#ff0061" stroke-width="1.35" stroke-linecap="square" stroke-linejoin="bevel" d="M14.9553 24.1831C12.2824 21.2238 8.15774 17.6353 6.04576 14.3189C3.57617 10.4409 1.4734 4.05692 0 0C6.49491 1.36303 22.0753 2.98484 31.2344 5.40937C36.4516 14.3561 39.7061 30.6149 45.5023 40.093C57.1714 59.1743 79.7484 82.2601 94.5719 97.4766C102.038 105.224 107.723 116.455 113.359 124.589" sodipodi:nodetypes="ccccccc"/><path id="shape15" transform="translate(321.985216096577, 172.907096461499)" fill="none" stroke="#ff0061" stroke-width="1.35" stroke-linecap="square" stroke-linejoin="bevel" d="M2.01996 21.1142C1.49493 16.9378 -0.770239 11.9781 0.269869 7.19301C3.20721 8.05656 8.14052 13.9449 10.671 15.9236C12.3646 11.2477 15.0215 2.39767 18.9461 0.0616641C21.3513 -0.173016 24.7052 0.350418 25.9211 0.174164C24.4682 4.2493 22.6051 7.01457 22.9961 9.68041C23.3499 12.0932 26.6848 15.2576 28.0023 17.1617C23.2326 18.1024 14.6162 13.5162 14.2773 9.62416" sodipodi:nodetypes="cccccccc"/><path id="shape16" transform="translate(338.400001193527, 197.381250696158)" fill="none" stroke="#ff0061" stroke-width="1.35" stroke-linecap="square" stroke-linejoin="bevel" d="M0 0C10.4288 13.5844 23.6354 32.2953 34.7625 45.2813C44.442 56.5778 57.4405 70.1347 69.0526 81.2011C73.0553 86.5795 78.0017 94.4973 80.1895 100.77C84.0584 111.864 84.4581 128.314 86.2875 140.119" sodipodi:nodetypes="ccccc"/><path id="shape17" transform="translate(419.782799051613, 224.329636787104)" fill="none" stroke="#ff0061" stroke-width="1.35" stroke-linecap="square" stroke-linejoin="bevel" d="M0.397748 0C1.96487 6.11736 2.77678 13.5409 2.70468 19.3305C2.63473 24.948 0.811405 32.4164 0 38.0247" sodipodi:nodetypes="ccc"/><path id="shape18" transform="translate(425.033049629868, 198.635134741864)" fill="none" stroke="#ff0061" stroke-width="1.35" stroke-linecap="square" stroke-linejoin="bevel" d="M0 0C5.65597 0.453432 16.5287 0.350384 20.467 0.602379C21.6395 13.3234 23.5076 40.1591 26.5695 56.4802C32.0279 65.9204 41.0058 78.9656 43.9909 89.4137C44.4447 92.9883 43.4761 98.293 43.7522 102.062" sodipodi:nodetypes="ccccc"/><path id="shape19" transform="translate(421.593755341741, 252.618753200768)" fill="none" stroke="#ff0061" stroke-width="1.35" stroke-linecap="square" stroke-linejoin="bevel" d="M0 0C7.77994 5.96621 18.7942 12.1669 25.9518 18.8042C30.8133 23.3123 37.6075 29.6689 40.748 35.3505C46.7383 43.7411 49.4737 57.1847 49.8166 66.8521C48.9393 68.7974 46.8097 70.583 45.521 72.1819" sodipodi:nodetypes="ccccc"/><path id="shape20" transform="translate(420.260094494305, 338.56274127726)" fill="none" stroke="#ff0061" stroke-width="1.35" stroke-linecap="square" stroke-linejoin="bevel" d="M0 0C3.4604 7.39811 8.6219 18.2792 11.5347 24.6604C15.2588 27.6189 19.3305 30.7857 22.6716 33.4108" sodipodi:nodetypes="ccc"/><path id="shape21" transform="translate(402.520539022109, 323.358183494928)" fill="none" stroke="#ff0061" stroke-width="1.35" stroke-linecap="square" stroke-linejoin="bevel" d="M0 14.1418C7.61289 14.1418 17.7176 15.4104 25.3763 14.1418C32.8337 11.5846 41.5248 4.8068 48.4457 0.806085C52.5095 0.588054 57.7951 -0.260469 61.992 0.0793154C66.7035 3.78092 67.1389 18.4054 66.8857 26.1793C66.6446 33.584 64.1287 43.2761 60.6167 50.6836" sodipodi:nodetypes="cccccc"/><path id="shape22" transform="translate(274.52536573029, 216.692772314585)" fill="none" stroke="#ff0061" stroke-width="1.35" stroke-linecap="square" stroke-linejoin="bevel" d="M72.9871 4.81973C65.2799 2.97079 57.9065 0.78759 50.9912 9.87702e-05C42.9203 -0.0125907 31.5732 1.19669 23.4671 4.05712C16.6902 8.30243 6.181 15.4884 0 20.0466" sodipodi:nodetypes="cccc"/><path id="shape23" transform="translate(213.84983598969, 235.784765201181)" fill="none" stroke="#ff0061" stroke-width="1.35" stroke-linecap="square" stroke-linejoin="bevel" d="M77.3809 0C70.3647 0.453431 60.8791 0.309975 53.9934 1.51144C46.7442 2.77631 36.7776 5.07084 30.2876 8.3527C21.9214 14.6982 11.8345 22.936 1.47516 30.5027C1.45091 37.1901 -0.343692 44.4002 0.0588072 50.2753C0.871049 62.1312 5.55704 77.7418 8.33196 89.4136C9.51918 94.4073 11.0616 101.779 12.7072 105.96C16.8446 107.653 23.0645 106.461 27.5034 106.676" sodipodi:nodetypes="cccccccc"/><path id="shape24" transform="translate(258.918755668754, 254.558433080218)" fill="none" stroke="#ff0061" stroke-width="1.35" stroke-linecap="square" stroke-linejoin="bevel" d="M57.8474 0C49.7745 7.91585 40.6887 17.9217 34.65 25.0603C28.9469 29.5549 20.6655 33.544 13.275 37.0416C8.78705 37.0074 3.9825 36.4116 0 36.1416" sodipodi:nodetypes="cccc"/><path id="shape25" transform="translate(251.615108595841, 277.786898266416)" fill="none" stroke="#ff0061" stroke-width="1.35" stroke-linecap="square" stroke-linejoin="bevel" d="M5.64802 0C3.95361 0.906864 0.3129 1.77078 0 3.02288C2.48332 8.25113 11.0755 18.6278 15.2735 25.8536C18.7546 32.9908 21.721 43.2501 23.6262 51.2299" sodipodi:nodetypes="cccc"/><path id="shape26" transform="translate(226.954753637619, 327.463329203199)" fill="none" stroke="#ff0061" stroke-width="1.35" stroke-linecap="square" stroke-linejoin="bevel" d="M0 13.8438C6.49493 8.37084 15.3453 4.76761 22.5125 3.02511C29.9671 1.20111 46.0897 -2.29232 48.6445 2.18984C49.5902 4.32617 42.7062 7.02645 39.1384 8.872" sodipodi:nodetypes="cccc"/><path id="shape27" transform="translate(271.012504117873, 254.925003873433)" fill="none" stroke="#ff0061" stroke-width="1.35" stroke-linecap="square" stroke-linejoin="bevel" d="M32.0625 0C27.4388 4.69125 21.4129 11.6323 16.65 15.6375C11.2386 18.2613 4.995 20.835 0 23.0625" sodipodi:nodetypes="ccc"/><path id="shape28" transform="translate(223.852337058519, 264.343040527882)" fill="none" stroke="#ff0061" stroke-width="1.35" stroke-linecap="square" stroke-linejoin="bevel" d="M11.6938 47.9684C8.18565 38.136 2.69774 25.3138 0 15.194C0.206241 10.7617 0.83527 4.55819 1.19324 0" sodipodi:nodetypes="ccc"/><path id="shape29" transform="translate(269.10001369628, 292.050014864358)" fill="none" stroke="#ff0061" stroke-width="1.35" stroke-linecap="square" stroke-linejoin="bevel" d="M0 0C1.96875 11.5988 7.92309 22.8126 10.6875 32.85C9.92707 36.9473 7.82107 42.8772 7.425 47.25C6.9236 52.7857 8.10435 60.9575 8.2125 65.925C10.3491 71.2668 16.5738 78.4935 21.6 81.225C39.9208 85.3103 66.2373 87.7825 85.3875 90.45C99.4847 92.4136 118.25 96.1512 132.412 96.75C144.146 97.2461 160.852 97.7737 171.675 94.8375" sodipodi:nodetypes="cccccccc"/><path id="shape30" transform="translate(435.255154361709, 373.40139320665)" fill="none" stroke="#ff0061" stroke-width="1.35" stroke-linecap="square" stroke-linejoin="bevel" d="M27.2886 0.154872C24.1269 -1.10543 15.9899 5.64029 11.9523 9.01299C8.0604 12.6024 0.800667 18.4545 0 21.8801C0.186318 22.6009 3.16263 23.5063 4.37522 23.312C9.70991 20.4146 13.7218 17.1484 17.1636 13.908C21.8003 10.7151 29.0515 2.42464 27.7948 1.13923C27.3495 0.663564 17.5822 8.04828 13.5917 11.4611C9.89891 14.6194 5.55922 19.5133 2.11672 22.9642" sodipodi:nodetypes="cccccccc"/><path id="shape31" transform="translate(420.001439660096, 375.274739057233)" fill="none" stroke="#ff0061" stroke-width="1.35" stroke-linecap="square" stroke-linejoin="bevel" d="M2.26732 12.9065C0.602162 11.0255 -0.558109 7.44249 0.278527 5.76743C1.60321 3.11523 9.64931 -1.06671 12.6736 0.250277C14.6954 1.10702 15.122 4.67991 14.8673 6.49402C14.395 8.781 11.1492 11.3765 8.2017 13.0472" sodipodi:nodetypes="ccccc"/><path id="shape32" transform="translate(225.898740686597, 334.107959803388)" fill="none" stroke="#ff0061" stroke-width="1.35" stroke-linecap="square" stroke-linejoin="bevel" d="M13.7839 0C14.476 3.94167 15.6735 8.36024 15.2954 11.8131C14.9075 15.355 12.5787 20.7274 11.1588 23.308C10.3042 28.8451 11.9445 33.6264 13.2271 37.2292C11.987 40.1246 11.4274 44.171 11.477 46.8547C10.3002 50.4477 9.02062 52.6522 6.52626 55.3108C5.32104 56.5954 1.43594 57.0765 0.0575109 58.4045C-0.327074 59.4192 1.31484 65.5592 2.08251 65.7733C14.1433 62.4221 21.7644 46.8589 23.2888 47.9983C24.1506 48.6425 20.5316 58.849 18.395 63.017C16.9378 65.8598 13.1029 69.6658 11.5888 71.5108C11.692 75.3272 16.1122 76.0442 17.7763 74.492C25.6325 71.5505 32.9321 51.4722 35.045 50.192C35.2274 54.7513 34.0324 61.9648 33.245 66.9545C32.1401 71.1608 30.5166 74.8973 30.3763 80.6795C31.0727 83.4524 37.4823 85.2577 40.433 81.8564C43.9147 74.1601 45.3652 52.0949 47.195 50.867C48.7534 52.1889 50.4412 64.3373 51.0763 69.9921C51.4048 72.9176 50.1889 77.9174 51.6388 79.3295C53.998 82.3923 60.0523 81.383 60.8075 78.8795C62.4509 77.1447 61.0379 71.926 61.2013 67.967C61.9432 61.6151 61.0667 56.2376 57.0388 48.842C59.4714 39.7473 55.3474 39.8227 48.7062 35.7177C45.1125 28.9928 45.4855 30.4811 42.5263 24.5421" sodipodi:nodetypes="cccccccccccccccccccccccc"/><path id="shape33" transform="translate(263.070245082249, 328.53949567272)" fill="none" stroke="#ff0061" stroke-width="1.35" stroke-linecap="square" stroke-linejoin="bevel" d="M0 0C0.978459 4.74911 1.50808 11.3871 3.26153 15.8304C5.69791 17.8905 7.83928 20.7722 9.76579 23.966C12.6586 28.7617 15.067 34.2613 17.2622 38.7406C17.6803 40.311 16.4275 48.2161 16.3798 49.9105" sodipodi:nodetypes="ccccc"/><path id="shape34" transform="translate(283.500019016375, 367.762524668464)" fill="none" stroke="#ff0061" stroke-width="1.35" stroke-linecap="square" stroke-linejoin="bevel" d="M0 0C3.47625 3.94875 7.22681 10.9847 11.5875 13.1625C27.0819 16.4023 48.1892 15.4515 63.7875 17.2125C78.3915 18.8613 97.6493 23.2705 112.275 24.4125C124.225 25.3455 138.96 26.3363 152.325 24.75" sodipodi:nodetypes="ccccc"/><path id="shape35" transform="translate(290.025022021485, 377.550028667224)" fill="none" stroke="#ff0061" stroke-width="1.35" stroke-linecap="square" stroke-linejoin="bevel" d="M0 0C2.32875 5.29875 3.9079 13.9465 7.7625 17.6625C14.8261 25.3725 24.4431 27.8303 33.3 27.7875C44.2096 34.8735 59.0595 51.755 64.9125 58.725C53.1396 56.7753 45.7292 66.7606 39.825 72.5625C35.6218 80.3411 31.5927 87.0465 28.125 92.925C32.5091 98.7264 37.7785 105.396 41.2192 110.486C50.924 113.686 60.5118 117.816 69.3001 118.918C73.6592 117.508 77.7249 116.339 80.7553 114.464C81.3337 109.468 80.8951 101.67 80.3575 96.2469C77.8839 90.7495 76.4512 81.7703 76.6982 75.6436C80.5549 67.4337 83.3644 58.2576 83.4187 50.0062C85.679 44.012 86.4542 35.8304 85.4487 29.7435C85.4115 24.524 86.2839 17.5485 86.6419 12.3221" sodipodi:nodetypes="cccccccccccccc"/><path id="shape36" transform="translate(319.521875893761, 479.812529633534)" fill="none" stroke="#ff0061" stroke-width="1.35" stroke-linecap="square" stroke-linejoin="bevel" d="M5.26564 0C0.180644 4.21313 -0.562695 8.60835 0.315644 12.2625C4.26739 21.3998 8.65502 29.8856 12.8498 37.4871C15.516 42.3185 18.1042 46.7927 20.4531 50.85C22.9871 52.9965 28.0986 54.668 31.8156 54.5625C35.248 52.7028 41.3754 48.9829 43.4031 45.5625C43.2956 42.124 41.7327 36.532 39.8031 33.4125C33.7963 33.5828 31.7704 27.3767 29.6781 23.9625C29.1691 21.1939 27.5519 16.56 26.6406 13.3875" sodipodi:nodetypes="ccccccccc"/><path id="shape37" transform="translate(302.924540527514, 489.865893006416)" fill="none" stroke="#ff0061" stroke-width="1.35" stroke-linecap="square" stroke-linejoin="bevel" d="M16.3872 0C11.471 4.65365 3.41642 9.9809 0 15.5122C0.0636181 20.5734 0.00239276 23.7805 0.954594 27.0468C2.79535 31.134 6.40425 36.397 7.23901 38.9793C12.0029 35.7295 16.0992 34.8191 17.8191 36.5928C20.5914 45.9588 15.2532 45.9377 14.1598 49.9571C16.5467 54.3268 21.7707 61.3255 26.3309 63.8783C31.4847 66.7633 41.0827 68.3379 46.9342 67.3785C51.9192 65.8197 58.6525 62.705 61.7304 59.4235C59.4167 54.6882 56.9195 46.9188 57.9916 38.1042" sodipodi:nodetypes="cccccccccc"/><path id="shape38" transform="translate(349.10702634819, 534.65229801011)" fill="none" stroke="#ff0061" stroke-width="1.35" stroke-linecap="square" stroke-linejoin="bevel" d="M2.42229 0C-1.13873 10.4759 -0.0500674 17.0845 1.14949 21.5579" sodipodi:nodetypes="cc"/><path id="shape39" transform="translate(382.951370307498, 391.065420945505)" fill="none" stroke="#ff0061" stroke-width="1.35" stroke-linecap="square" stroke-linejoin="bevel" d="M47.0933 2.38646C49.9252 12.4892 52.1667 19.1164 48.3661 34.6836C51.2848 46.8547 56.3677 64.8472 61.4122 74.4583C60.8457 75.4926 57.9094 75.6489 55.8438 75.8902C44.0319 70.3702 26.6234 62.7295 15.2735 56.7984C16.7782 48.6683 21.4437 36.5756 26.0987 28.3346C28.7034 26.1699 34.0213 25.2654 35.7973 23.7058C31.5885 18.7205 9.22774 9.02092 0 0" sodipodi:nodetypes="cccccccc"/><path id="shape40" transform="translate(401.523334236259, 451.91251092241)" fill="none" stroke="#ff0061" stroke-width="1.35" stroke-linecap="square" stroke-linejoin="bevel" d="M3.36418 0C2.72772 3.6522 0.989783 8.47371 0.281252 9.91218C0.760341 13.4816 -0.769295 16.4973 0.551675 18.225C2.99333 19.7201 6.3849 21.0977 9.21418 21.6C11.3715 21.178 14.4694 17.8292 15.5142 15.6375C14.3644 11.6511 16.0654 8.47125 16.3017 5.4" sodipodi:nodetypes="cccccc"/><path id="shape41" transform="translate(391.225929618592, 469.580784544779)" fill="none" stroke="#ff0061" stroke-width="1.35" stroke-linecap="square" stroke-linejoin="bevel" d="M10.6582 0C7.69307 2.12988 3.39485 4.76545 1.84907 7.53172C0.82319 9.3676 -0.455725 12.8953 0.161572 14.6192C6.11652 21.6144 19.8683 28.3618 27.7241 35.5442C34.4246 44.5181 46.4385 49.0886 52.6991 47.5817C57.4145 46.7855 59.5098 41.2176 59.7866 38.2442C60.0597 35.3091 57.0826 29.8217 54.6116 27.8942C51.55 27.2162 45.1048 26.9621 41.8991 25.0817C34.4438 20.7087 27.7233 12.4349 21.7616 2.46922" sodipodi:nodetypes="ccccccccc"/><path id="shape42" transform="translate(375.232533691813, 484.854266410512)" fill="none" stroke="#ff0061" stroke-width="1.35" stroke-linecap="square" stroke-linejoin="bevel" d="M72.8699 30.6266C70.8617 37.7816 70.6095 43.5535 71.6766 47.7297C72.236 52.1821 73.5925 59.9445 68.355 60.7145C60.2789 62.5474 54.9815 60.8464 48.7237 59.7582C43.2374 58.0102 32.8989 53.5651 27.9244 49.5593C30.873 42.3415 32.9898 37.6355 27.8448 35.32C23.9194 33.9512 22.6842 38.3711 18.6171 43.6727C14.7646 40.6911 10.3582 38.2975 6.44602 35.0813C4.30286 32.7294 -0.120436 27.4077 0.00251085 23.308C3.19224 18.6333 14.8517 3.90055 16.3102 0" sodipodi:nodetypes="cccccccccc"/><path id="shape43" transform="translate(442.433824819761, 517.151404138995)" fill="none" stroke="#ff0061" stroke-width="1.35" stroke-linecap="square" stroke-linejoin="bevel" d="M1.61157 0C-1.1917 13.5297 0.391368 20.9277 0.975178 27.6832" sodipodi:nodetypes="cc"/>
</svg>
