<?xml version="1.0" standalone="no"?>
<!DOCTYPE svg PUBLIC "-//W3C//DTD SVG 20010904//EN" "http://www.w3.org/TR/2001/REC-SVG-20010904/DTD/svg10.dtd">
<!-- Created using Krita: https://krita.org -->
<svg xmlns="http://www.w3.org/2000/svg" 
    xmlns:xlink="http://www.w3.org/1999/xlink"
    xmlns:krita="http://krita.org/namespaces/svg/krita"
    xmlns:sodipodi="http://sodipodi.sourceforge.net/DTD/sodipodi-0.dtd"
    width="675pt"
    height="675pt"
    viewBox="0 0 675 675">
<defs/>
<path id="shape0" transform="translate(293.35035009847, 402.88672273451)" fill="none" stroke="#ff0061" stroke-width="1.125" stroke-linecap="square" stroke-linejoin="bevel" d="M41.3371 19.6487C39.532 20.5556 37.2154 22.404 35.32 22.6716C26.8465 23.0276 13.9807 20.8317 6.84126 17.3418C1.32268 13.7761 1.32113 5.70879 0 0" sodipodi:nodetypes="cccc"/><path id="shape1" transform="translate(292.635632350874, 395.878139426035)" fill="none" stroke="#ff0061" stroke-width="1.125" stroke-linecap="square" stroke-linejoin="bevel" d="M7.10692 0C2.62677 0.778705 -0.58422 3.19093 0.0893895 5.57813C0.792161 10.7066 14.7078 16.7703 21.6894 20.0343C27.3887 22.6989 35.8291 26.2934 42.0519 25.9969C36.8379 22.9901 29.871 20.0748 24.7269 17.3906C20.1004 14.9765 10.6044 12.6328 9.46517 9.03709C9.3056 8.53343 10.2169 7.50576 10.5391 6.84948" sodipodi:nodetypes="ccccccc"/><path id="shape2" transform="translate(295.090816904176, 306.237830451615)" fill="none" stroke="#ff0061" stroke-width="1.125" stroke-linecap="square" stroke-linejoin="bevel" d="M33.8625 94.9551C36.495 95.6301 40.753 96.4987 42.6375 97.2051C41.3343 99.8994 38.6529 106.87 36.2329 107.897C29.2655 107.884 20.8225 103.187 13.8375 100.13C9.35217 95.8965 3.45805 89.1831 0 84.1551C3.27906 79.4412 6.31821 70.5537 10.125 69.0801C14.0399 57.6461 18.1877 44.0631 20.1342 33.0622C21.6211 24.6591 23.1073 12.4729 24.8592 4.93718C27.1452 2.83909 30.863 0.699745 33.6342 0.0996764C45.0953 -0.7931 59.5205 4.54343 70.9842 6.84968" sodipodi:nodetypes="cccccccccc"/><path id="shape3" transform="translate(326.025021670803, 360.112505180324)" fill="none" stroke="#ff0061" stroke-width="1.125" stroke-linecap="square" stroke-linejoin="bevel" d="M0 47.25C1.73812 41.5294 4.26745 33.806 5.79375 28.1813C7.03087 19.6804 8.54372 8.92712 7.53748 0" sodipodi:nodetypes="ccc"/><path id="shape4" transform="translate(319.480045609659, 343.740461839143)" fill="none" stroke="#ff0061" stroke-width="1.125" stroke-linecap="square" stroke-linejoin="bevel" d="M0.629527 0C0.671772 2.31266 -0.262312 6.3235 0.0726808 8.43225C3.89041 11.2954 11.7541 15.2631 16.67 16.7054C17.3155 14.8834 17.1627 13.5181 16.67 12.4893C12.6809 9.67331 6.85175 4.72536 0.629527 0Z" sodipodi:nodetypes="ccccc"/><path id="shape5" transform="translate(323.100020520381, 313.98752028826)" fill="none" stroke="#ff0061" stroke-width="1.125" stroke-linecap="square" stroke-linejoin="bevel" d="M0 31.6125C3.54124 24.8721 3.59645 13.0759 5.175 5.9625C7.14293 3.638 11.7113 1.78875 14.5125 0" sodipodi:nodetypes="ccc"/><path id="shape6" transform="translate(333.675012287292, 362.475013606255)" fill="none" stroke="#ff0061" stroke-width="1.125" stroke-linecap="square" stroke-linejoin="bevel" d="M0 0C2.73375 1.51875 6.67813 3.56707 9.1125 5.0625C11.8214 7.94367 12.6676 14.6334 15.075 17.55C19.0238 17.9944 21.5325 17.4712 24.3 17.4375" sodipodi:nodetypes="cccc"/><path id="shape7" transform="translate(333.31480365699, 341.910834755078)" fill="none" stroke="#ff0061" stroke-width="1.125" stroke-linecap="square" stroke-linejoin="bevel" d="M9.64147 25.0642C10.6371 23.9504 12.255 22.4484 12.9602 21.3517C10.6044 14.4511 9.59219 5.70843 9.86414 0.715946C7.65815 0.435211 2.95924 0.214784 0 0" sodipodi:nodetypes="cccc"/><path id="shape8" transform="translate(344.98124978398, 357.412499942541)" fill="none" stroke="#ff0061" stroke-width="1.125" stroke-linecap="square" stroke-linejoin="bevel" d="M1.85625 17.6062C4.08375 16.4587 4.79238 14.3526 8.71876 14.4C10.1272 11.6045 9.59818 8.58128 9.95626 5.17501C7.52713 3.65646 3.1361 0.50625 0 0" sodipodi:nodetypes="cccc"/><path id="shape9" transform="translate(352.912507540627, 375.300008018977)" fill="none" stroke="#ff0061" stroke-width="1.125" stroke-linecap="square" stroke-linejoin="bevel" d="M0 0C7.61711 7.45458 13.734 12.2413 21.15 15.4125C25.4381 15.3886 33.8886 16.5548 37.0125 14.0625C39.8702 12.2353 41.242 13.006 43.425 10.2375C51.9102 10.0979 59.4113 8.78627 65.25 6.07502" sodipodi:nodetypes="ccccc"/><path id="shape10" transform="translate(354.998857321796, 369.473556704993)" fill="none" stroke="#ff0061" stroke-width="1.125" stroke-linecap="square" stroke-linejoin="bevel" d="M0 0C2.1717 1.71827 5.14073 4.00822 7.23901 5.72756C11.2057 6.75869 15.0132 8.00218 18.2964 8.90955C22.1521 7.47862 27.0205 7.57228 30.2012 5.60145C30.6068 8.18608 31.3274 10.5263 32.0012 12.8015C33.6944 14.4945 34.2785 16.7276 34.5887 18.764" sodipodi:nodetypes="cccccc"/><path id="shape11" transform="translate(326.712200604596, 334.512778009025)" fill="none" stroke="#ff0061" stroke-width="1.125" stroke-linecap="square" stroke-linejoin="bevel" d="M0 0.238599C6.15119 3.33643 29.2053 8.87331 29.1947 8.9095C24.673 2.04841 15.5106 -0.900724 0 0.238599Z" sodipodi:nodetypes="ccc"/><path id="shape12" transform="translate(349.603421356927, 328.977316577367)" fill="none" stroke="#ff0061" stroke-width="1.125" stroke-linecap="square" stroke-linejoin="bevel" d="M4.1625 11.8125C2.91375 8.26875 3.2258 4.87826 0 0C3.49307 2.29634 5.67973 3.74139 8.92624 6.40344" sodipodi:nodetypes="ccc"/><path id="shape13" transform="translate(354.233991444101, 327.432502724509)" fill="none" stroke="#ff0061" stroke-width="1.125" stroke-linecap="square" stroke-linejoin="bevel" d="M15.1598 1.96752C10.4685 -1.03623 0.453319 -0.109682 0 1.50475C6.85904 7.68868 21.1715 29.6345 32.0068 34.9163C41.4268 32.1798 51.4581 28.9313 59.7943 26.3663" sodipodi:nodetypes="cccc"/><path id="shape14" transform="translate(360.677483119217, 244.217012892141)" fill="none" stroke="#ff0061" stroke-width="1.125" stroke-linecap="square" stroke-linejoin="bevel" d="M0 57.3552C3.58321 63.4392 6.65312 68.5282 7.63675 75.1743C14.3101 84.9571 38.0226 98.5467 44.7068 99.7551M4.85252 62.6055C4.87503 56.7609 5.32885 49.0352 4.49753 43.2205C7.75635 36.7982 10.6573 32.0484 14.735 25.6705C22.1984 18.4306 35.2017 8.65098 43.3545 3.81838C47.581 1.31308 50.4365 1.72125 55.1278 0" sodipodi:nodetypes="cccccccc"/><path id="shape15" transform="translate(392.287511477898, 320.737509384424)" fill="none" stroke="#ff0061" stroke-width="1.125" stroke-linecap="square" stroke-linejoin="bevel" d="M0 0C4.98375 3.00375 7.94902 6.3942 10.3921 10.1885C9.84084 14.0092 13.2813 21.6008 15.4833 25.7802C17.8553 29.1061 20.4006 33.9768 22.8814 36.758C28.1128 40.0426 36.9656 43.5515 42.8483 45.7471" sodipodi:nodetypes="ccccc"/><path id="shape16" transform="translate(374.625003996752, 311.17500355224)" fill="none" stroke="#ff0061" stroke-width="1.125" stroke-linecap="square" stroke-linejoin="bevel" d="M0 0C1.92375 5.29875 4.46528 12.5408 6.4125 17.6625C11.2461 20.5545 15.8713 23.3065 19.861 25.399C23.3699 25.4574 26.9938 26.325 29.9638 26.325" sodipodi:nodetypes="cccc"/><path id="shape17" transform="translate(392.850002636615, 387.900002603393)" fill="none" stroke="#ff0061" stroke-width="1.125" stroke-linecap="square" stroke-linejoin="bevel" d="M0 0C3.2842 9.4826 4.85114 11.827 9.225 17.4375C13.7378 28.876 14.0186 50.7413 13.4093 55.7476C19.6026 59.0701 37.0209 56.899 42.75 54.3375C42.1772 49.7973 40.8303 44.9361 40.5 38.25C40.6884 31.9416 40.9275 26.6737 41.0063 21.3188" sodipodi:nodetypes="cccccc"/><path id="shape18" transform="translate(433.863062726677, 380.962609180298)" fill="none" stroke="#ff0061" stroke-width="1.125" stroke-linecap="square" stroke-linejoin="bevel" d="M0 50.1162C6.77331 48.8874 11.7454 47.7866 16.0807 48.6187C20.8193 48.9957 27.1978 49.798 33.4538 51.622C31.9374 47.6203 30.1548 24.8802 29.187 19.0874C26.3982 14.142 24.8751 6.03781 22.1943 0" sodipodi:nodetypes="ccccc"/><path id="shape19" transform="translate(370.253056255316, 441.787519197279)" fill="none" stroke="#ff0061" stroke-width="1.125" stroke-linecap="square" stroke-linejoin="bevel" d="M36.097 0C29.7452 2.4041 28.0641 4.65536 23.2386 5.47963C19.6524 6.09221 8.41008 2.02542 8.99923 5.91713C8.85047 7.10228 20.825 8.178 20.8124 8.54227C20.7938 9.07752 -1.02609 5.34995 1.40227 9.65597C-0.972889 14.1021 19.8862 10.7992 19.9373 11.7243C19.9939 12.7476 0.225143 10.4497 0.0499215 14.3891C0.00435422 15.5499 -0.317562 17.8554 1.52159 17.8893C6.88489 17.9883 18.8717 14.6526 19.2214 15.7813C19.4961 16.6679 8.30836 17.5326 5.22065 20.2758C4.8975 23.0286 6.44916 23.345 7.52758 24.6112C9.52145 25.5226 15.9571 23.454 20.0169 22.901C24.6765 24.575 29.0399 23.1229 32.7448 20.4747C36.4041 20.744 41.1532 22.8691 44.7568 23.8953" sodipodi:nodetypes="cccccccccccccc"/><path id="shape20" transform="translate(390.600000586379, 445.500000668797)" fill="none" stroke="#ff0061" stroke-width="1.125" stroke-linecap="square" stroke-linejoin="bevel" d="M31.05 0C30.9069 5.458 29.9079 9.7975 30.7125 12.2063C28.8801 15.3561 26.9977 16.8029 25.5938 19.9688C21.2113 22.5886 20.9687 22.3802 17.7188 23.4C14.1009 20.8257 12.3734 20.4648 7.93125 22.5563C5.9181 22.8238 1.62005 23.9231 0 20.025" sodipodi:nodetypes="cccccc"/><path id="shape21" transform="translate(390.429012133995, 453.375012185502)" fill="none" stroke="#ff0061" stroke-width="1.125" stroke-linecap="square" stroke-linejoin="bevel" d="M27.621 0C23.2537 0.0238649 20.1382 1.46616 15.7508 1.64821C12.5937 2.66398 8.25646 5.42602 4.93207 5.70523C3.24805 5.38911 1.47962 5.03702 0 4.75064" sodipodi:nodetypes="cccc"/><path id="shape23" transform="translate(407.622248470393, 385.337845184693)" fill="none" stroke="#ff0061" stroke-width="1.125" stroke-linecap="square" stroke-linejoin="bevel" d="M32.1275 10.2619C33.6788 14.7007 33.3912 24.4863 30.0286 24.3191M30.0286 24.3191C21.5423 21.6606 22.842 12.5284 25.6044 9.78459M19.9564 8.9891C21.5571 15.8078 18.9243 23.5415 15.2324 26.9442C12.9435 29.0538 10.3976 31.7537 5.44776 31.6377C-1.18867 28.3349 0.0866695 20.6882 0.117943 16.4437C0.741315 9.0504 5.17609 4.59796 9.0581 0" sodipodi:nodetypes="ccccccccc"/><path id="shape24" transform="translate(412.312519366784, 411.018769125304)" fill="none" stroke="#ff0061" stroke-width="1.125" stroke-linecap="square" stroke-linejoin="bevel" d="M0 5.625C1.24881 9.90034 5.26556 14.9929 7.875 16.0313C9.84616 16.4896 11.7845 13.9576 11.8688 12.9375C10.4503 11.0864 4.72392 5.46057 4.8375 5.34375C4.96875 5.20875 12.0856 13.7857 13.8375 13.2188C14.5731 12.9807 15.0029 9.86313 14.9625 8.325C13.5339 7.16106 8.16582 3.97906 8.38125 3.4875C8.60645 2.97364 14.1808 7.92841 16.7625 5.11875C17.5993 0.0151537 13.3353 0.66058 12.0938 0" sodipodi:nodetypes="ccccccccc"/><path id="shape25" transform="translate(432.831775957921, 348.651163387023)" fill="none" stroke="#ff0061" stroke-width="1.125" stroke-linecap="square" stroke-linejoin="bevel" d="M0 38.5875C3.74625 34.335 8.26557 28.6403 12.4875 24.4125C12.2326 21.6822 11.0692 17.27 12.2625 15.3C16.674 13.0594 21.4566 10.4072 25.5375 8.775C28.3583 5.92715 31.365 2.6325 33.8625 0" sodipodi:nodetypes="ccccc"/><path id="shape26" transform="translate(406.800025628085, 302.962519086403)" fill="none" stroke="#ff0061" stroke-width="1.125" stroke-linecap="square" stroke-linejoin="bevel" d="M0 0C8.13375 4.55625 20.7606 10.9153 27.6994 16.1901C30.5828 19.7395 33.3064 25.6684 35.9726 29.0771" sodipodi:nodetypes="ccc"/><path id="shape27" transform="translate(403.580813458259, 264.130715176422)" fill="none" stroke="#ff0061" stroke-width="1.125" stroke-linecap="square" stroke-linejoin="bevel" d="M2.3625 0C1.30588 2.78749 0.262935 10.4899 0 13.1625C9.73104 13.371 18.716 12.2634 27.7875 11.925C30.1736 9.52542 34.7296 6.02306 36 3.9375C31.2337 3.78549 18.2404 1.8555 2.3625 0Z" sodipodi:nodetypes="ccccc"/><path id="shape01" transform="translate(415.350028646052, 223.034556954869)" fill="none" stroke="#ff0061" stroke-width="1.125" stroke-linecap="square" stroke-linejoin="bevel" d="M56.9218 148.988C62.3192 149.04 69.6469 147.319 75.3114 145.996C80.4251 144.676 86.2151 143.416 90.028 140.507C91.1875 138.974 90.9606 137.007 91.8577 134.779C98.4897 130.593 111.274 124.549 116.438 118.312C121.661 111.829 130.137 106.281 125.984 91.2656C118.583 81.7242 101.309 65.6551 89.775 55.853C79.2336 47.3488 66.5036 35.1197 55.6627 26.3532C46.065 17.3488 35.1564 7.31545 23.2875 0.0529583C19.5623 -0.0756847 15.5935 -0.127772 10.8 1.85296C6.66626 7.04732 1.48758 14.8299 0 22.6655" sodipodi:nodetypes="ccccccccccc"/><path id="shape111" transform="translate(491.175032171433, 328.380391546252)" fill="none" stroke="#ff0061" stroke-width="1.125" stroke-linecap="square" stroke-linejoin="bevel" d="M45.466 0C40.5135 1.24139 36.0508 1.85063 33.2949 1.98873C28.9949 3.96033 25.3472 5.69789 19.9306 7.63674C15.1002 9.14896 10.2229 8.94453 10.575 16.6572C7.5184 19.2046 2.9025 21.0334 0 22.5072" sodipodi:nodetypes="ccccc"/><path id="shape211" transform="translate(498.536783220286, 337.5)" fill="none" stroke="#ff0061" stroke-width="1.125" stroke-linecap="square" stroke-linejoin="bevel" d="M0 24.1321C2.59167 22.1988 5.75572 20.8341 6.68216 16.8931C7.44383 12.9881 7.38742 9.32273 7.0004 5.19932C5.61786 3.51412 4.35847 1.55489 2.70472 0" sodipodi:nodetypes="cccc"/><path id="shape31" transform="translate(435.037530003869, 220.139389865561)" fill="none" stroke="#ff0061" stroke-width="1.125" stroke-linecap="square" stroke-linejoin="bevel" d="M0 1.93562C3.17063 -0.152496 6.06238 -0.325448 9.225 0.360624C19.4832 5.76576 26.3465 15.065 34.65 21.8481C41.2555 27.2441 50.0619 37.2296 56.8125 42.4356C67.6767 50.8139 81.4399 64.7937 92.475 73.0356C97.6752 78.5884 99.3513 79.8026 103.751 84.7739C104.487 86.4709 106.819 87.2556 106.988 89.0106" sodipodi:nodetypes="ccccccc"/><path id="shape41" transform="translate(530.451676825993, 308.587501397875)" fill="none" stroke="#ff0061" stroke-width="1.125" stroke-linecap="square" stroke-linejoin="bevel" d="M5.27333 0C0.689656 1.66319 -0.152628 5.35625 0.0207382 8.73745C-0.12888 11.3835 0.886879 14.5814 3.20272 14.6241C5.73446 14.6007 7.29779 10.5122 7.89614 8.41925C8.43676 6.52828 8.28594 4.75201 7.25975 1.41889" sodipodi:nodetypes="ccccc"/><path id="shape51" transform="translate(541.068771605897, 304.931262176481)" fill="none" stroke="#ff0061" stroke-width="1.125" stroke-linecap="square" stroke-linejoin="bevel" d="M0 24.6375C0.978459 26.141 1.86688 29.6735 3.65625 29.25C6.18507 28.5531 7.27088 0.949579 4.275 0C2.42454 0.145422 0.309638 6.32203 0.73125 8.8875" sodipodi:nodetypes="cccc"/><path id="shape61" transform="translate(440.212528693357, 211.098340883361)" fill="none" stroke="#ff0061" stroke-width="1.125" stroke-linecap="square" stroke-linejoin="bevel" d="M0 8.72666C2.83746 5.60482 9.16655 2.39085 12.9375 0.795414C22.6533 -1.51136 29.7853 1.61128 35.775 4.90166C40.9504 8.12503 44.5957 11.1588 46.9125 16.7142" sodipodi:nodetypes="cccc"/><path id="shape91" transform="translate(503.298475625601, 163.620644310412)" fill="none" stroke="#ff0061" stroke-width="1.125" stroke-linecap="square" stroke-linejoin="bevel" d="M1.71245 12.8885C0.726031 10.3747 -0.724288 5.17081 0.420286 3.72311C2.56422 1.29932 9.07813 -1.07524 12.3453 0.51686C14.6368 2.74077 15.912 9.26096 14.5199 10.8201" sodipodi:nodetypes="cccc"/><path id="shape101" transform="translate(470.981268616397, 90.3937538039644)" fill="none" stroke="#ff0061" stroke-width="1.125" stroke-linecap="square" stroke-linejoin="bevel" d="M31.95 78.9187C28.6987 75.7687 25.232 72.9212 23.4 68.6812C16.7235 66.0199 8.77399 64.6772 1.51875 61.0313C0.91988 58.8825 0.56837 56.2208 0 52.9875C1.96005 46.4176 7.31057 37.5404 12.4312 33.6937C16.1382 36.8121 19.5143 40.6958 23.175 37.8562C27.1289 33.5799 20.9486 29.8437 19.35 26.2687C25.2398 18.9689 31.8427 10.2679 39.4313 4.725C42.6013 2.82039 44.8048 1.60698 47.3625 0C53.5341 6.0102 60.4341 15.0484 66.6 19.8C71.5892 24.0771 75.6028 26.602 74.3307 32.6693C74.1915 36.3643 70.3911 41.9171 67.8076 44.9995C62.065 47.6578 56.4731 53.8565 53.1563 58.275C51.147 62.4222 51.0696 67.0075 49.3521 72.0463C49.0174 73.8193 49.9328 76.0889 50.0681 77.5353C48.6863 77.7749 48.1541 77.8945 47.1247 78.0126" sodipodi:nodetypes="cccccccccccccccc"/><path id="shape1111" transform="translate(494.66251981197, 141.131254785977)" fill="none" stroke="#ff0061" stroke-width="1.125" stroke-linecap="square" stroke-linejoin="bevel" d="M0 18.0001C3.99388 12.8054 10.2758 4.4452 15.4687 0" sodipodi:nodetypes="cc"/><path id="shape121" transform="translate(521.526598705933, 109.975095439745)" fill="none" stroke="#ff0061" stroke-width="1.125" stroke-linecap="square" stroke-linejoin="bevel" d="M0 11.7357C4.89378 7.19871 8.84789 4.21875 14.2986 0" sodipodi:nodetypes="cc"/><path id="shape131" transform="translate(510.693771054475, 258.750010667539)" fill="none" stroke="#ff0061" stroke-width="1.125" stroke-linecap="square" stroke-linejoin="bevel" d="M0 0C2.6538 4.08252 11.9067 17.2789 15.0749 20.475C21.5245 24.8215 22.3761 26.0403 28.2375 31.05C30.0759 35.2296 29.5444 45.1038 31.7249 48.7125" sodipodi:nodetypes="cccc"/><path id="shape011" transform="translate(538.312504298558, 257.737514169918)" fill="none" stroke="#ff0061" stroke-width="1.125" stroke-linecap="square" stroke-linejoin="bevel" d="M46.6875 28.4062C40.2327 25.706 14.137 4.09321 16.425 0C7.40555 9.67426 1.40282 20.045 0 25.5937" sodipodi:nodetypes="ccc"/><path id="shape0111" transform="translate(541.687498783102, 286.3124993568)" fill="none" stroke="#ff0061" stroke-width="1.125" stroke-linecap="square" stroke-linejoin="bevel" d="M41.85 0C24.7314 1.23793 12.5146 3.12816 0 8.325" sodipodi:nodetypes="cc"/><path id="shape11111" transform="translate(560.505863967637, 251.69465705274)" fill="none" stroke="#ff0061" stroke-width="1.125" stroke-linecap="square" stroke-linejoin="bevel" d="M0 14.3985C1.631 12.127 6.60707 6.0664 9.38684 3.97748C12.836 1.38554 13.7787 1.42302 15.6713 0C18.3784 3.1687 21.1545 6.00262 23.8191 9.1366C21.3706 10.1394 19.5696 13.1932 17.66 14.5576C14.224 16.1615 11.3676 19.243 8.6709 22.2739" sodipodi:nodetypes="cccccc"/><path id="shape01111" transform="translate(481.831394474549, 173.497482871053)" fill="none" stroke="#ff0061" stroke-width="1.125" stroke-linecap="square" stroke-linejoin="bevel" d="M0 52.7413C15.1952 51.6897 28.0395 50.3496 37.3883 50.1162C33.2458 47.2249 24.4675 41.7107 21.8311 39.5775C18.9945 31.9765 13.984 17.3607 15.8686 5.60252C26.9288 3.51014 30.7182 1.65726 37.9451 0C44.8286 0.507429 55.868 0.786711 62.2077 1.27279C65.6526 3.33028 66.1989 3.08435 67.8557 4.93207C63.5504 10.6876 52.4312 26.7866 48.6624 37.4963C48.5947 42.2679 48.3101 48.8248 48.3661 55.2869C44.7765 61.3918 41.8075 71.956 38.4811 77.5463C35.1779 80.7568 33.1596 84.9654 30.6205 90.1739C21.2011 87.2432 18.0638 83.2923 11.7734 75.8902C6.85803 69.55 3.10088 60.0799 0 52.7413Z" sodipodi:nodetypes="ccccccccccccc"/><path id="shape0111" transform="translate(584.606251296323, 212.062503423438)" fill="none" stroke="#ff0061" stroke-width="1.125" stroke-linecap="square" stroke-linejoin="bevel" d="M1.01253 48.6C11.9308 49.9051 19.7339 52.9966 26.2125 58.8938C32.591 66.2092 35.603 68.6075 41.625 68.85C45.5789 68.2696 51.7696 64.7093 54.0562 61.3125C59.771 53.1721 73.1387 47.3859 76.3312 41.5688C69.8159 36.3051 56.7642 27.1292 46.575 20.25C44.2079 22.2904 38.8521 29.2537 34.8188 26.4375C30.655 22.8126 36.4138 16.0952 39.0375 13.8938C32.458 9.20809 25.039 5.45237 15.6937 0C12.3838 6.63202 6.62363 17.484 0 24.6656C6.67653 33.9192 24.7762 43.1145 35.3812 47.9813C41.2935 50.715 48.3268 57.3703 53.6593 61.1503" sodipodi:nodetypes="cccccccccccc"/><path id="shape01" transform="translate(413.120615551053, 354.487499207338)" fill="none" stroke="#ff0061" stroke-width="1.125" stroke-linecap="square" stroke-linejoin="bevel" d="M7.96689 6.38438C1.87303 13.7142 -0.666894 18.2543 0.148147 24.0188C2.07974 29.3484 5.90226 33.2817 11.2294 36.7875C15.8064 40.3838 27.572 41.184 30.4474 37.9303C35.9365 34.4691 38.5157 28.3981 43.7419 25.65C49.7959 22.1093 54.7081 19.4441 59.8856 16.7625C67.7485 11.7252 68.4474 11.8349 77.7794 7.4628C79.3779 5.49838 80.2246 2.35817 81.2044 0" sodipodi:nodetypes="cccccccc"/><path id="shape0" transform="translate(575.662523936127, 236.64375983968)" fill="none" stroke="#ff0061" stroke-width="1.125" stroke-linecap="square" stroke-linejoin="bevel" d="M9.3375 24.1313C5.77096 21.3149 1.34247 16.2097 0 13.725C0.966786 8.21538 3.55514 2.72538 9.05625 0" sodipodi:nodetypes="ccc"/>
</svg>
