<?xml version="1.0" standalone="no"?>
<!DOCTYPE svg PUBLIC "-//W3C//DTD SVG 20010904//EN" "http://www.w3.org/TR/2001/REC-SVG-20010904/DTD/svg10.dtd">
<!-- Created using Krita: https://krita.org -->
<svg xmlns="http://www.w3.org/2000/svg" 
    xmlns:xlink="http://www.w3.org/1999/xlink"
    xmlns:krita="http://krita.org/namespaces/svg/krita"
    xmlns:sodipodi="http://sodipodi.sourceforge.net/DTD/sodipodi-0.dtd"
    width="675pt"
    height="675pt"
    viewBox="0 0 675 675">
<defs/>
<path id="shape0" transform="translate(514.208073445647, 208.897029837294)" fill="none" stroke="#ff0061" stroke-width="1.125" stroke-linecap="square" stroke-linejoin="bevel" d="M49.798 24.8194C44.9455 17.9941 38.2481 8.09423 31.5016 3.65928C28.6443 1.8878 24.3106 0.0115419 19.8874 0C11.7198 3.51534 5.01162 22.783 0 33.5699" sodipodi:nodetypes="cccc"/><path id="shape1" transform="translate(547.312518422704, 212.850007164595)" fill="none" stroke="#ff0061" stroke-width="1.125" stroke-linecap="square" stroke-linejoin="bevel" d="M0 0C5.94 3.07125 13.5215 8.21938 19.8 10.2375C24.4114 11.7197 31.2157 12.9441 36 12.6C39.1207 12.3755 43.6363 8.82218 46.2375 9.5625C53.9819 11.7666 66.1884 25.3979 67.3875 33.3C67.7977 36.0029 64.7926 40.6437 62.8875 43.2C61.2671 45.3743 58.3335 48.1763 55.9125 49.275C54.6049 49.8684 52.4536 49.8836 50.9625 49.95C48.0718 50.0788 44.0427 50.2081 41.2875 49.5C39.2551 48.9777 36.7988 47.295 34.875 46.35" sodipodi:nodetypes="cssssssssc"/><path id="shape01" transform="translate(579.756857208649, 224.633793678844)" fill="none" stroke="#ff0061" stroke-width="1.125" stroke-linecap="square" stroke-linejoin="bevel" d="M19.8874 0.57088C21.1522 0.403826 23.1663 -0.0890283 24.1035 0.0140334C26.8687 1.2473 28.8615 2.89855 30.6266 4.38926C33.4937 8.0448 36.8445 12.4845 38.0247 16.4012C38.624 18.3901 38.9609 21.7015 38.2633 23.5607C36.9709 26.5553 35.3933 28.549 33.9307 31.2475C31.4965 33.6101 25.1385 38.284 22.2739 39.8683C18.7536 40.986 15.3677 41.676 11.2165 42.573C7.79914 41.1315 3.36494 38.7865 0 37.1637" sodipodi:nodetypes="ccccccccc"/><path id="shape011" transform="translate(592.087506770711, 245.700002809659)" fill="none" stroke="#ff0061" stroke-width="1.125" stroke-linecap="square" stroke-linejoin="bevel" d="M0 0C6.64875 0.253125 15.5138 0.590625 22.1625 0.84375" sodipodi:nodetypes="cc"/><path id="shape11" transform="translate(552.710013788009, 243.168748929744)" fill="none" stroke="#ff0061" stroke-width="1.125" stroke-linecap="square" stroke-linejoin="bevel" d="M29.0275 0C30.4787 1.90687 32.9622 4.48112 33.865 6.35625C33.9862 9.86482 29.3013 16.2437 25.99 18.3375C24.9538 18.9927 22.6335 18.3382 21.5462 18.9562C18.4164 22.2277 13.9776 27.5011 11.296 31.7544C11.1917 38.8794 8.38087 45.2321 6.92081 49.7326C5.10065 51.6689 2.07624 53.2964 0 54.8237" sodipodi:nodetypes="ccccccc"/><path id="shape2" transform="translate(542.418745952877, 249.149076119465)" fill="none" stroke="#ff0061" stroke-width="1.125" stroke-linecap="square" stroke-linejoin="bevel" d="M20.3941 1.67054C22.5069 1.00063 25.2401 0.00371323 27.1558 0C29.6381 0.588703 33.829 2.78393 35.0312 4.61387C32.8278 7.58752 25.4363 13.7201 21.5873 19.8078C19.9105 21.3195 18.3835 23.3454 16.0188 24.5808C14.9888 24.3864 14.4019 21.198 13.3937 19.6487C11.8407 23.1967 10.2127 31.9406 9.5625 38.7947C9.05891 40.8846 7.43927 43.7475 5.34375 44.4759C4.04509 44.0156 1.6015 43.7278 0 43.4072" sodipodi:nodetypes="ccccccccc"/><path id="shape3" transform="translate(577.410130579812, 253.642914454793)" fill="none" stroke="#ff0061" stroke-width="1.125" stroke-linecap="square" stroke-linejoin="bevel" d="M0 0.000703559C2.29636 -0.0197655 5.07454 0.40676 6.84126 1.23372" sodipodi:nodetypes="cc"/><path id="shape4" transform="translate(537.627255975528, 271.574998372505)" fill="none" stroke="#ff0061" stroke-width="1.125" stroke-linecap="square" stroke-linejoin="bevel" d="M1.83836 0C0.946802 1.63125 -0.843894 4.7916 0.460239 5.625C3.76496 7.754 7.38461 3.40031 9.91024 1.88437" sodipodi:nodetypes="ccc"/><path id="shape5" transform="translate(538.171871774843, 270.224998380596)" fill="none" stroke="#ff0061" stroke-width="1.125" stroke-linecap="square" stroke-linejoin="bevel" d="M11.2219 0C11.6437 0.57375 12.667 1.37191 12.6281 1.9125C12.4586 4.26759 7.9068 8.73636 5.37187 9.28125C2.8629 9.78166 0.599062 9.37125 0 7.2" sodipodi:nodetypes="cccc"/><path id="shape6" transform="translate(590.512507321843, 229.500002845601)" fill="none" stroke="#ff0061" stroke-width="1.125" stroke-linecap="square" stroke-linejoin="bevel" d="M0 0C1.9575 2.12625 4.5675 4.96125 6.525 7.0875" sodipodi:nodetypes="cc"/><path id="shape7" transform="translate(509.405034811072, 232.087499202204)" fill="none" stroke="#ff0061" stroke-width="1.125" stroke-linecap="square" stroke-linejoin="bevel" d="M8.76996 0C5.67621 0.118125 1.99677 -0.261301 0.332463 2.08125C-0.567139 4.23052 0.526615 9.91765 1.62103 12.4079" sodipodi:nodetypes="ccc"/><path id="shape8" transform="translate(502.874069253137, 242.70555497586)" fill="none" stroke="#ff0061" stroke-width="1.125" stroke-linecap="square" stroke-linejoin="bevel" d="M10.6976 17.66C11.3896 12.362 12.6059 2.92595 13.0045 0C10.6124 0.946392 2.78661 4.83099 0.117483 8.1936C-1.17589 14.5017 8.55114 30.5208 12.5272 33.3312C13.7155 33.5476 15.9797 30.1015 17.4593 28.7174" sodipodi:nodetypes="ccccc"/><path id="shape9" transform="translate(508.175687035879, 260.606256870162)" fill="none" stroke="#ff0061" stroke-width="1.125" stroke-linecap="square" stroke-linejoin="bevel" d="M22.5431 7.7625C20.6085 8.1012 18.1198 8.93506 15.9618 8.49375C15.4953 7.4502 16.3347 3.77074 15.3993 2.75625C11.5735 1.7008 6.07866 0.456111 0.155577 0C0.315973 2.57073 1.33808 6.0332 1.28058 8.60625C-0.50168 9.52849 -0.0794808 12.7603 0.503696 13.6407C2.31068 14.2101 4.37356 14.3597 6.06183 14.6813C9.83555 13.9716 13.306 12.9082 16.5243 12.3188" sodipodi:nodetypes="cccccccc"/><path id="shape10" transform="translate(488.925005146239, 257.512502710479)" fill="none" stroke="#ff0061" stroke-width="1.125" stroke-linecap="square" stroke-linejoin="bevel" d="M0 8.775C4.32 6.1425 10.08 2.6325 14.4 0" sodipodi:nodetypes="cc"/><path id="shape111" transform="translate(503.325005297808, 243.562502563647)" fill="none" stroke="#ff0061" stroke-width="1.125" stroke-linecap="square" stroke-linejoin="bevel" d="M0 6.75C1.485 9.72 3.98987 15.5039 4.95 16.65C6.98551 13.2173 10.0688 4.995 12.2625 0" sodipodi:nodetypes="ccc"/><path id="shape12" transform="translate(478.288072704184, 235.799998144506)" fill="none" stroke="#ff0061" stroke-width="1.125" stroke-linecap="square" stroke-linejoin="bevel" d="M31.2807 0C27.7682 4.48021 22.6532 6.61031 18.5119 8.4375C13.3077 10.5173 2.50398 9.55652 0.00567354 13.1062C-0.0447807 16.8265 0.235616 21.2038 1.07442 24.075C10.3393 33.5044 23.0437 41.718 34.7268 46.6008C48.1512 51.7164 63.6051 57.7906 75.4561 63.7039C85.0715 68.5017 97.9309 77.9216 106.487 82.6875C103.369 94.7045 101.093 100.216 95.6617 111.115C97.2485 114.458 100.716 120.785 100.116 124.48C99.9472 125.523 98.4459 126.707 97.73 127.662" sodipodi:nodetypes="cccccccccc"/><path id="shape13" transform="translate(477.481291600216, 253.799999049381)" fill="none" stroke="#ff0061" stroke-width="1.125" stroke-linecap="square" stroke-linejoin="bevel" d="M0.868707 0C-1.18268 5.07455 0.78573 12.3085 2.78121 16.65C8.08166 23.364 15.4831 31.1525 21.2312 36.5625C28.3063 39.3137 33.717 41.4527 39.1187 42.6375C46.8316 45.1868 54.2302 51.8609 59.2393 56.9204C63.085 60.3494 67.0637 65.6437 70.5062 69.525" sodipodi:nodetypes="cccccc"/><path id="shape011" transform="translate(429.750014166652, 253.012512449013)" fill="none" stroke="#ff0061" stroke-width="1.125" stroke-linecap="square" stroke-linejoin="bevel" d="M48.7688 0C44.8875 0.405 39.8002 0.997821 35.8313 1.35C31.6549 4.6296 25.9265 8.406 22.6481 12.2851C17.0386 20.2176 10.1711 31.8024 7.05637 40.9229C7.59214 49.9865 6.46673 58.8331 4.6125 65.7C5.20136 70.6094 7.78052 75.2966 7.5375 79.3125C3.31611 86.211 1.99399 94.329 0 101.137C2.49457 112.468 6.98956 127.058 13.6125 135.225C18.6124 142.759 30.8049 149.4 39.2625 152.325C70.2522 156.455 102.334 160.511 122.85 158.85C131.132 154.327 140.018 140.536 140.625 125.775" sodipodi:nodetypes="ccccccccccc"/><path id="shape01" transform="translate(562.415065724126, 337.5)" fill="none" stroke="#ff0061" stroke-width="1.125" stroke-linecap="square" stroke-linejoin="bevel" d="M7.7163 39.9624C11.9846 38.6446 12.7382 30.6481 12.5688 26.7572C12.213 18.5814 6.9769 7.23967 0 0" sodipodi:nodetypes="ccc"/><path id="shape11" transform="translate(480.439296773652, 335.698932685296)" fill="none" stroke="#ff0061" stroke-width="1.125" stroke-linecap="square" stroke-linejoin="bevel" d="M20.5232 22.3886C19.4495 22.4974 18.1471 22.3371 16.944 22.7512C15.2108 26.8323 13.0696 31.1876 10.9381 34.3256C7.91234 36.9281 2.65764 39.4203 0 41.6044C9.91894 48.5902 13.0254 50.589 17.1482 56.4761C21.3308 65.1697 27.6668 70.1912 34.9222 74.8163C44.3197 70.9982 65.6234 61.6517 77.5607 60.0198C81.1319 57.4566 84.7672 54.2753 87.4607 50.9073C88.8912 45.6115 86.3753 35.9928 84.9191 29.9902C83.3982 26.5457 80.6323 23.1491 79.1915 18.2169C73.7344 11.4333 64.2209 4.5096 56.2017 0" sodipodi:nodetypes="ccccccccccc"/><path id="shape21" transform="translate(522.163019875746, 356.063631469202)" fill="none" stroke="#ff0061" stroke-width="1.125" stroke-linecap="square" stroke-linejoin="bevel" d="M0 0C3.34108 5.44119 7.18711 13.1812 11.1369 18.1373C13.2874 20.8356 16.9281 23.8171 19.4101 26.2513" sodipodi:nodetypes="ccc"/><path id="shape31" transform="translate(456.300010501767, 364.612508391575)" fill="none" stroke="#ff0061" stroke-width="1.125" stroke-linecap="square" stroke-linejoin="bevel" d="M0 0C2.80125 2.12625 6.53625 4.96125 9.3375 7.0875" sodipodi:nodetypes="cc"/><path id="shape41" transform="translate(482.850011112817, 312.750007197957)" fill="none" stroke="#ff0061" stroke-width="1.125" stroke-linecap="square" stroke-linejoin="bevel" d="M0 0C4.01625 4.21875 9.37125 9.84375 13.3875 14.0625" sodipodi:nodetypes="cc"/><path id="shape51" transform="translate(438.243758491175, 380.306257368609)" fill="none" stroke="#ff0061" stroke-width="1.125" stroke-linecap="square" stroke-linejoin="bevel" d="M76.2188 30.9938C72.2994 32.9933 45.8173 32.32 33.4849 30.6465C27.6526 28.0067 21.0726 25.9375 16.3688 22.95C13.0992 20.8735 9.31543 17.5163 6.46875 14.4563C3.69545 10.7409 1.94063 4.33688 0 0" sodipodi:nodetypes="ccccc"/><path id="shape61" transform="translate(431.199170119867, 367.087524656274)" fill="none" stroke="#ff0061" stroke-width="1.125" stroke-linecap="square" stroke-linejoin="bevel" d="M100.112 45.0585C108.115 55.9806 113.074 60.7355 110.613 76.1624C113.306 84.2559 120.151 94.9012 122.784 97.6805C122.786 99.6843 123.141 103.132 122.068 104.522C117.447 106.905 113.057 108.454 105.82 110.644C100.04 109.091 94.8059 109.007 87.6509 106.875C85.5551 104.298 83.6581 100.776 82.4196 97.8188C81.6328 89.8891 86.3602 76.1189 91.7571 70.2C94.384 69.0472 97.7662 68.3648 98.3384 67.275C94.3968 65.5153 72.371 60.2473 60.3133 55.7437C54.1928 56.8566 45.2355 57.7805 39.7339 55.8772C30.3816 52.6418 19.1816 41.8453 12.3689 34.0807C10.4115 28.8689 7.31616 21.4934 0.436501 14.2729C-0.0248729 10.1777 -0.664073 0.963106 1.75711 0" sodipodi:nodetypes="cccccccccccccc"/><path id="shape71" transform="translate(529.163341078919, 428.93095837305)" fill="none" stroke="#ff0061" stroke-width="1.125" stroke-linecap="square" stroke-linejoin="bevel" d="M0 5.60824C2.31489 7.27878 5.4057 8.40411 9.30733 7.07994C8.9518 5.15618 8.03173 2.48194 5.52869 0" sodipodi:nodetypes="ccc"/><path id="shape81" transform="translate(436.837517861993, 405.622982260301)" fill="none" stroke="#ff0061" stroke-width="1.125" stroke-linecap="square" stroke-linejoin="bevel" d="M28.209 14.7962C24.4701 21.4068 21.357 29.9887 20.254 37.6269C15.2239 34.0354 1.32722 13.7907 0 5.95828C2.67414 3.39941 7.19197 1.55122 10.3899 0" sodipodi:nodetypes="cccc"/><path id="shape101" transform="translate(453.487518542801, 424.293767349088)" fill="none" stroke="#ff0061" stroke-width="1.125" stroke-linecap="square" stroke-linejoin="bevel" d="M4.8375 0C3.00176 4.20188 1.24805 9.80438 0 14.0063" sodipodi:nodetypes="cc"/><path id="shape111" transform="translate(427.736364142561, 419.385031469823)" fill="none" stroke="#ff0061" stroke-width="1.125" stroke-linecap="square" stroke-linejoin="bevel" d="M11.9338 0C9.53138 0.202851 8.20476 0.120936 5.80848 0.636396C4.03439 1.55698 1.77258 3.6338 0.00136617 5.09117C-0.088589 7.24395 4.28607 12.8309 6.52444 13.0064C9.11385 10.9727 12.7055 8.13395 15.3545 6.04577" sodipodi:nodetypes="ccccc"/><path id="shape121" transform="translate(400.134049372764, 421.453318802565)" fill="none" stroke="#ff0061" stroke-width="1.125" stroke-linecap="square" stroke-linejoin="bevel" d="M32.0585 0C25.1469 2.37281 21.7773 1.49398 16.2281 8.11405C13.1243 12.7375 6.48638 19.789 0 24.6603C3.29923 29.5668 8.37942 36.6856 12.5688 39.7748C17.9431 35.584 17.5007 34.9203 21.5579 36.4337C23.9796 40.9319 20.6748 43.7625 18.5351 46.6955C21.4062 51.1484 39.7994 53.7141 45.8205 50.1161C45.6233 45.9319 43.8329 40.6488 47.0933 34.604C47.7946 31.2699 52.5425 28.956 50.8322 23.7853C48.7241 22.4329 45.3445 21.7963 39.9339 20.2851C37.3872 18.2065 36.2985 13.8813 35.0814 10.3414" sodipodi:nodetypes="ccccccccccc"/><path id="shape131" transform="translate(417.237194624283, 429.249171056746)" fill="none" stroke="#ff0061" stroke-width="1.125" stroke-linecap="square" stroke-linejoin="bevel" d="M17.5009 24.024C14.0631 16.0645 2.35068 9.41863 0 0" sodipodi:nodetypes="cc"/><path id="shape14" transform="translate(439.312516618911, 455.850017244514)" fill="none" stroke="#ff0061" stroke-width="1.125" stroke-linecap="square" stroke-linejoin="bevel" d="M0 0C2.38057 0.465248 5.27625 0.595022 7.5375 0.225" sodipodi:nodetypes="cc"/><path id="shape15" transform="translate(518.231274784186, 445.275021295085)" fill="none" stroke="#ff0061" stroke-width="1.125" stroke-linecap="square" stroke-linejoin="bevel" d="M0 27.5625C1.65952 19.0738 4.6205 5.72855 6.8625 0" sodipodi:nodetypes="cc"/><path id="shape16" transform="translate(515.25885371688, 474.412501707038)" fill="none" stroke="#ff0061" stroke-width="1.125" stroke-linecap="square" stroke-linejoin="bevel" d="M4.94115 0C-0.348657 5.14514 -0.967284 8.4817 1.09704 14.1011C4.68932 22.4025 0.21833 30.498 1.65389 36.0567C5.3716 40.4333 14.8565 45.4798 19.3934 46.0004C20.5377 43.0904 19.6742 37.561 23.6096 37.4091C27.7714 37.6541 28.7311 43.9532 28.1439 48.0687C48.004 55.3711 66.0296 48.7121 67.1231 35.8181C64.5601 34.3392 58.9056 27.2585 56.4635 21.7378" sodipodi:nodetypes="cccccccc"/><path id="shape17" transform="translate(537.277415380607, 478.092577204242)" fill="none" stroke="#ff0061" stroke-width="1.125" stroke-linecap="square" stroke-linejoin="bevel" d="M0 0C4.5025 4.60592 11.4471 7.52512 17.66 7.00036C22.0315 5.50335 24.9103 6.09407 27.1264 7.31856C30.9644 9.433 34.6172 13.8705 34.2226 17.8074C33.4807 22.6639 28.48 25.3123 19.5413 25.1762" sodipodi:nodetypes="ccccc"/><path id="shape18" transform="translate(516.634317901357, 477.562497816386)" fill="none" stroke="#ff0061" stroke-width="1.125" stroke-linecap="square" stroke-linejoin="bevel" d="M18.9782 0C16.2782 1.08 13.4323 2.77645 9.97818 3.6C7.86822 3.24227 5.31939 1.10539 3.11568 1.4625C1.51161 2.12987 0.608728 7.07353 0 10.3942" sodipodi:nodetypes="cccc"/><path id="shape19" transform="translate(533.578372247765, 492.212624909636)" fill="none" stroke="#ff0061" stroke-width="1.125" stroke-linecap="square" stroke-linejoin="bevel" d="M12.4495 3.77859C10.2837 3.2929 2.72262 1.24142 0 0" sodipodi:nodetypes="cc"/><path id="shape20" transform="translate(525.305205295834, 493.60472441524)" fill="none" stroke="#ff0061" stroke-width="1.125" stroke-linecap="square" stroke-linejoin="bevel" d="M12.0518 5.09117C10.3693 4.57655 2.79615 1.19079 0 0" sodipodi:nodetypes="cc"/><path id="shape21" transform="translate(545.073258967111, 491.297788584483)" fill="none" stroke="#ff0061" stroke-width="1.125" stroke-linecap="square" stroke-linejoin="bevel" d="M15.9099 1.35234C12.9958 3.06879 3.79245 1.5324 0 0" sodipodi:nodetypes="cc"/><path id="shape22" transform="translate(568.938115722009, 500.76418323127)" fill="none" stroke="#ff0061" stroke-width="1.125" stroke-linecap="square" stroke-linejoin="bevel" d="M8.43225 18.9328C4.21507 13.7592 2.19217 7.59234 0 0" sodipodi:nodetypes="cc"/><path id="shape0" transform="translate(523.12502964644, 308.025017456334)" fill="none" stroke="#ff0061" stroke-width="1.125" stroke-linecap="square" stroke-linejoin="bevel" d="M0 0C5.16375 3.27375 12.7012 6.86864 17.2125 10.9125C19.2066 12.9885 20.6775 16.8975 22.1625 19.4625" sodipodi:nodetypes="ccc"/>
</svg>
