<?xml version="1.0" standalone="no"?>
<!DOCTYPE svg PUBLIC "-//W3C//DTD SVG 20010904//EN" "http://www.w3.org/TR/2001/REC-SVG-20010904/DTD/svg10.dtd">
<!-- Created using Krita: https://krita.org -->
<svg xmlns="http://www.w3.org/2000/svg" 
    xmlns:xlink="http://www.w3.org/1999/xlink"
    xmlns:krita="http://krita.org/namespaces/svg/krita"
    xmlns:sodipodi="http://sodipodi.sourceforge.net/DTD/sodipodi-0.dtd"
    width="675pt"
    height="675pt"
    viewBox="0 0 675 675">
<defs/>
<path id="shape0" transform="translate(283.612500286135, 115.200000116225)" fill="none" stroke="#ff0061" stroke-width="1.125" stroke-linecap="square" stroke-linejoin="bevel" d="M6.075 46.9125C8.87625 44.0775 12.894 40.2893 15.4125 37.4625C15.3493 31.2569 14.8306 19.9096 11.925 13.6125C8.78724 9.50337 3.5775 4.08375 0 0" sodipodi:nodetypes="cccc"/><path id="shape1" transform="translate(246.762594430902, 113.788075975792)" fill="none" stroke="#ff0061" stroke-width="1.125" stroke-linecap="square" stroke-linejoin="bevel" d="M43.1556 46.3848C45.0409 42.7216 47.035 39.9165 48.5252 36.2423C48.4025 32.0038 47.431 27.107 46.8367 22.1966C45.1907 17.0079 43.4499 11.6227 41.5248 7.44539C35.798 0.779034 34.8727 1.55783 31.1039 0.126828C24.2275 -0.469541 14.0481 1.01467 7.95495 5.0589C5.6427 6.85654 3.3259 9.35156 1.35615 11.7056C0.646823 16.0503 0.312752 20.2021 0 23.9121C4.48863 35.1379 6.87189 38.4724 15.7508 46.9019C20.7017 48.0653 25.2913 48.4874 29.672 48.8907C33.5584 47.6031 38.677 42.7653 40.4907 38.1515" sodipodi:nodetypes="ccccccccccc"/><path id="shape2" transform="translate(253.856260866955, 127.087159704652)" fill="none" stroke="#ff0061" stroke-width="1.125" stroke-linecap="square" stroke-linejoin="bevel" d="M36.0563 36.8254C35.626 33.0876 34.1589 26.7369 33.3 23.1003C32.0855 17.9581 29.809 11.0093 27.2319 6.43669C26.1343 4.48905 24.3408 1.38758 22.4987 0.550028C19.8388 -0.659366 14.7926 0.420846 11.6005 0.98755C9.17534 1.41808 5.31943 1.97621 3.7125 3.52535C1.60065 5.56126 0.00295479 10.6905 3.64193e-06 13.7628C-0.00278341 16.6643 1.59444 21.2773 3.4875 23.4378C6.77547 27.1903 14.7652 31.94 19.35 31.6503C21.6127 31.5074 25.3679 28.7089 26.6063 26.6441C28.0696 24.2042 28.0534 19.345 27.7875 16.2941C27.4027 11.879 24.795 6.17472 23.5125 1.83785" sodipodi:nodetypes="cssssssssssc"/><path id="shape3" transform="translate(236.667333176936, 120.040217008117)" fill="none" stroke="#ff0061" stroke-width="1.125" stroke-linecap="square" stroke-linejoin="bevel" d="M15.6637 0C10.9942 2.39444 4.67913 6.20275 0.628867 9.70504C0.162972 14.3956 -0.224982 20.3798 0.15157 24.8194C2.06234 29.569 5.51278 34.9478 7.78832 39.5361C11.5643 43.3871 17.0177 47.8331 21.0731 51.3094C28.0519 52.5306 34.3352 53.4297 39.8014 54.841C43.0507 52.754 46.863 50.331 49.87 48.4457" sodipodi:nodetypes="ccccccc"/><path id="shape4" transform="translate(235.387549104276, 133.961379629961)" fill="none" stroke="#ff0061" stroke-width="1.125" stroke-linecap="square" stroke-linejoin="bevel" d="M1.27226 0C-1.16196 1.87737 0.629775 11.2528 0.71541 16.069C4.24974 24.3779 4.80179 32.6618 2.09997 37.0386" sodipodi:nodetypes="ccc"/><path id="shape01" transform="translate(232.708980914875, 184.395776745071)" fill="none" stroke="#ff0061" stroke-width="1.125" stroke-linecap="square" stroke-linejoin="bevel" d="M0.22227 9.10423C-0.225596 13.8164 0.143788 17.4079 0.13244 20.6033C2.43485 18.6665 5.32956 17.9969 8.80334 17.66C15.4931 17.3629 25.5932 15.9043 31.1568 11.8529C33.2214 10.1671 35.6653 7.42252 37.7992 7.15945C39.7914 6.91384 42.6253 8.6724 44.8791 9.90391C46.5071 10.2745 48.8386 10.5208 50.4873 10.3414C54.4221 9.91337 59.7616 7.89413 63.3346 6.4435C62.8453 4.51045 62.193 1.93305 61.7038 0" sodipodi:nodetypes="ccccccccc"/><path id="shape11" transform="translate(228.704842346738, 171.11099683055)" fill="none" stroke="#ff0061" stroke-width="1.125" stroke-linecap="square" stroke-linejoin="bevel" d="M15.9895 18.535C15.1128 17.1997 10.4842 14.0451 8.11405 10.8983C7.69863 6.81147 8.45775 2.13037 8.6709 0C5.57519 1.50829 2.85895 2.2703 0 4.37522C1.28208 7.97176 6.48573 17.651 9.62549 20.4442C11.744 19.84 14.5774 19.1477 15.9895 18.535Z" sodipodi:nodetypes="cccccc"/><path id="shape21" transform="translate(222.637506969341, 176.793755534269)" fill="none" stroke="#ff0061" stroke-width="1.125" stroke-linecap="square" stroke-linejoin="bevel" d="M5.68125 0C4.49625 0.5509 1.31865 3.9483 0 5.2875C3.34713 8.97265 8.15061 14.3363 11.9813 16.2563C13.7674 15.4209 14.2366 15.4633 15.0188 15.0188" sodipodi:nodetypes="cccc"/><path id="shape31" transform="translate(285.662307962494, 164.418274867261)" fill="none" stroke="#ff0061" stroke-width="1.125" stroke-linecap="square" stroke-linejoin="bevel" d="M0 15.6023C0.883669 11.4912 2.17255 4.66851 1.49396 0.309862C3.02233 0.133562 4.70978 -0.00942683 5.76896 0.000486166C7.7003 3.88187 9.34451 10.9815 4.77297 17.6706C3.09324 17.5055 1.51904 16.3166 0 15.6023Z" sodipodi:nodetypes="ccccc"/><path id="shape41" transform="translate(290.753470767841, 167.488282247736)" fill="none" stroke="#ff0061" stroke-width="1.125" stroke-linecap="square" stroke-linejoin="bevel" d="M0 14.7597C1.29937 14.8103 2.22433 15.6198 3.50018 15.8734C4.87866 14.2203 6.3968 12.5235 7.31856 9.66848C7.51601 5.70717 7.37819 4.41304 7.15945 0.400962C6.30282 -0.312639 4.26074 0.159918 3.3013 0.0827658" sodipodi:nodetypes="ccccc"/><path id="shape5" transform="translate(265.500004181337, 194.540777132464)" fill="none" stroke="#ff0061" stroke-width="1.125" stroke-linecap="square" stroke-linejoin="bevel" d="M0 9.75922C1.05739 11.1786 3.21999 12.203 4.8375 13.4717C8.70553 12.9967 11.6099 12.7715 14.2313 11.3342C14.792 10.4072 15.0196 8.47926 15.3563 7.17172C13.5309 5.29249 11.3773 2.32175 9.28125 0.309224C7.20133 -0.42839 3.81697 0.198065 2.75625 1.71547C1.75131 4.29374 1.19129 6.86616 0 9.75922Z" sodipodi:nodetypes="ccccccc"/><path id="shape6" transform="translate(239.682681378225, 190.839287679071)" fill="none" stroke="#ff0061" stroke-width="1.125" stroke-linecap="square" stroke-linejoin="bevel" d="M0 11.5347C0.986414 15.2894 2.11698 21.8851 1.43189 23.3875C6.88775 21.2168 10.9877 19.1949 15.4375 17.7023C19.7383 15.3255 23.0197 12.7338 25.9331 11.296C29.0279 11.1571 31.7104 12.8842 34.8427 13.3643C36.7035 13.0713 38.295 9.76228 39.9339 8.94932C42.219 8.36568 45.6677 9.84201 48.5252 10.8187C52.2724 10.8256 58.5066 11.2485 60.577 9.98346C59.2673 8.37387 56.697 3.95129 56.4404 0" sodipodi:nodetypes="ccccccccc"/><path id="shape7" transform="translate(268.256259843979, 196.481257210111)" fill="none" stroke="#ff0061" stroke-width="1.125" stroke-linecap="square" stroke-linejoin="bevel" d="M7.5375 0C4.95313 2.43059 2.15993 1.10296 0 0.5625" sodipodi:nodetypes="cc"/><path id="shape8" transform="translate(259.48125952197, 184.44375676838)" fill="none" stroke="#ff0061" stroke-width="1.125" stroke-linecap="square" stroke-linejoin="bevel" d="M9 21.8813C9.7425 19.2319 12.1315 16.5613 11.475 13.05C8.78663 10.3724 4.27777 4.94914 0 0" sodipodi:nodetypes="ccc"/><path id="shape9" transform="translate(272.934370383316, 183.679819648813)" fill="none" stroke="#ff0061" stroke-width="1.125" stroke-linecap="square" stroke-linejoin="bevel" d="M3.10243 22.9898C2.42228 20.2215 1.26169 16.5689 0.83527 13.7621C0.216541 9.68938 0.250581 4.12862 0 0" sodipodi:nodetypes="csc"/><path id="shape10" transform="translate(222.722994611688, 183.361623139302)" fill="none" stroke="#ff0061" stroke-width="1.125" stroke-linecap="square" stroke-linejoin="bevel" d="M0.134965 0C-0.686285 9.10125 2.3945 22.3889 5.20202 30.2759C6.47078 32.4289 10.0058 34.2134 12.0645 35.9009" sodipodi:nodetypes="ccc"/><path id="shape111" transform="translate(233.437504803579, 208.462504289654)" fill="none" stroke="#ff0061" stroke-width="1.125" stroke-linecap="square" stroke-linejoin="bevel" d="M9.28125 33.4125C4.08755 22.1185 3.77224 20.279 2.34725 14.9125C1.86111 8.58359 0.76695 3.4361 0 0" sodipodi:nodetypes="ccc"/><path id="shape12" transform="translate(245.648893466169, 210.726657639858)" fill="none" stroke="#ff0061" stroke-width="1.125" stroke-linecap="square" stroke-linejoin="bevel" d="M4.69342 0C3.28539 6.46738 1.42894 15.3829 0 21.5579C0.909298 24.7977 2.11602 28.5185 3.02288 31.5016" sodipodi:nodetypes="ccc"/><path id="shape13" transform="translate(231.0726557151, 217.125009910806)" fill="none" stroke="#ff0061" stroke-width="1.125" stroke-linecap="square" stroke-linejoin="bevel" d="M0.00235482 0C-0.111343 12.6692 3.90838 19.2287 8.55236 19.7438" sodipodi:nodetypes="cc"/><path id="shape14" transform="translate(298.032259170642, 178.429562877286)" fill="none" stroke="#ff0061" stroke-width="1.125" stroke-linecap="square" stroke-linejoin="bevel" d="M0 0C1.85625 6.44625 3.32745 15.0095 5.49276 20.5829C5.29914 22.4304 3.96276 27.0405 3.69276 28.6267" sodipodi:nodetypes="ccc"/><path id="shape15" transform="translate(255.194829881915, 202.500012752264)" fill="none" stroke="#ff0061" stroke-width="1.125" stroke-linecap="square" stroke-linejoin="bevel" d="M40.7365 0C43.1946 3.26948 49.8924 8.14548 52.4365 11.1938C54.7807 16.0125 57.7602 21.9431 57.3552 27.2389C55.2677 29.9818 45.8931 31.6814 41.0475 31.9324C34.8712 32.1424 27.5809 33.4911 22.433 34.478C15.0797 35.8877 7.20719 38.352 0 40.5237" sodipodi:nodetypes="cccccc"/><path id="shape16" transform="translate(263.62708419875, 231.215637758456)" fill="none" stroke="#ff0061" stroke-width="1.125" stroke-linecap="square" stroke-linejoin="bevel" d="M47.6604 0C46.9878 2.86629 42.9946 7.9272 38.3429 8.22839C31.1126 10.2538 23.9341 10.0224 18.3759 11.2513C10.7339 12.9408 7.6275 13.8715 0 16.2629" sodipodi:nodetypes="cccc"/><path id="shape17" transform="translate(199.828373022034, 242.662500095488)" fill="none" stroke="#ff0061" stroke-width="1.125" stroke-linecap="square" stroke-linejoin="bevel" d="M0 37.8291C9.03649 28.6066 21.5233 16.7826 30.1216 7.0875C34.8662 3.27009 40.9031 0.147105 45.7591 0C51.7516 0.651095 57.9775 0.700222 61.7341 2.25C63.9908 3.97218 62.3441 9.95194 59.8216 11.1375C50.7618 7.88154 46.2455 7.78662 32.9341 12.9375C34.6826 14.6227 46.1187 17.2209 47.1091 20.475C47.7288 21.5307 46.8247 25.7738 44.5216 25.3125C40.0613 22.2612 29.2915 20.3625 29.1091 20.8125C28.9559 21.1905 41.3965 24.4945 42.2806 27.249C43.5184 28.6577 41.1568 31.6115 39.9736 32.1811C37.994 30.3969 28.1533 26.7323 28.0014 27.1694C27.8741 27.5359 38.5794 33.4231 38.8599 35.2039C39.0121 36.1698 37.9092 37.0599 36.4735 37.8291C33.3782 35.8721 32.7229 35.1424 28.956 33.7721" sodipodi:nodetypes="ccccccccccccccc"/><path id="shape18" transform="translate(167.850004324552, 246.262506344802)" fill="none" stroke="#ff0061" stroke-width="1.125" stroke-linecap="square" stroke-linejoin="bevel" d="M58.8375 6.1875C53.2688 5.07375 45.8935 3.20604 40.275 2.475C28.2986 0.916728 10.0216 0.645171 0 0C0.772844 6.62076 1.69346 14.1586 2.3625 19.9125C5.119 24.8381 10.7865 30.9711 13.275 35.2125C14.1712 39.4972 15.1373 44.568 15.8063 49.1625C17.9565 53.2059 21.9962 58.6413 24.075 60.75C27.1951 58.9526 29.7907 52.8665 32.175 48.4875C36.037 45.6041 39.8556 41.9876 42.996 39.5589C49.2972 36.8997 50.3142 36.1793 57.9115 35.1041" sodipodi:nodetypes="cccccccccc"/><path id="shape19" transform="translate(307.125009481694, 238.275007356127)" fill="none" stroke="#ff0061" stroke-width="1.125" stroke-linecap="square" stroke-linejoin="bevel" d="M0 0C3.5775 4.15125 8.3475 9.68625 11.925 13.8375" sodipodi:nodetypes="cc"/><path id="shape20" transform="translate(289.242022207052, 252.000012742002)" fill="none" stroke="#ff0061" stroke-width="1.125" stroke-linecap="square" stroke-linejoin="bevel" d="M30.3142 0C27.158 1.12213 24.6595 4.86631 21.9892 12.4313C15.2106 14.7474 4.5632 16.944 0 18.4683" sodipodi:nodetypes="ccc"/><path id="shape22" transform="translate(268.762514930741, 265.69537433219)" fill="none" stroke="#ff0061" stroke-width="1.125" stroke-linecap="square" stroke-linejoin="bevel" d="M40.7646 0C40.719 7.77139 41.4889 18.2281 40.6125 25.9046C39.7848 31.1442 38.6938 37.8246 36.7875 42.8921C31.0371 48.0902 25.006 53.8007 19.4625 59.4296C14.2317 62.9354 5.83875 65.4934 0 68.0921" sodipodi:nodetypes="ccccc"/><path id="shape24" transform="translate(154.800003940233, 295.875007531114)" fill="none" stroke="#ff0061" stroke-width="1.125" stroke-linecap="square" stroke-linejoin="bevel" d="M28.4625 0C19.9238 9.3825 6.6242 20.9506 0 31.275C1.37315 36.9344 2.51379 41.8068 4.3875 47.025C10.5675 51.817 15.6488 57.9713 20.475 62.6625" sodipodi:nodetypes="cccc"/><path id="shape25" transform="translate(176.801008593215, 305.549690863934)" fill="none" stroke="#ff0061" stroke-width="1.125" stroke-linecap="square" stroke-linejoin="bevel" d="M4.324 26.2128C-0.492434 18.2071 -0.508428 19.1218 0.594416 11.6142C2.09162 7.42785 4.43918 3.5775 7.03793 0" sodipodi:nodetypes="ccc"/><path id="shape26" transform="translate(191.142767729316, 307.350006914923)" fill="none" stroke="#ff0061" stroke-width="1.125" stroke-linecap="square" stroke-linejoin="bevel" d="M0.838488 0C-0.438387 7.1325 0.0482071 20.1182 0.332238 25.65C3.45539 27.3477 5.95724 28.7437 8.20724 30.15" sodipodi:nodetypes="ccc"/><path id="shape27" transform="translate(174.770284475956, 301.071743252294)" fill="none" stroke="#ff0061" stroke-width="1.125" stroke-linecap="square" stroke-linejoin="bevel" d="M4.53431 74.4815C2.38647 71.2995 0.756604 58.4498 0 51.7304C1.45101 42.8766 4.75767 29.5324 10.3414 23.0925C19.9951 17.3113 32.746 12.2908 41.1172 6.72827C50.4189 4.32691 60.785 1.33805 69.3547 0.54077C78.1968 -0.281849 90.0001 -0.208983 98.8005 1.0573C104.851 1.92786 112.965 5.5952 119.006 6.62576C129.255 6.55102 138.193 7.28267 149.871 9.17134" sodipodi:nodetypes="cccccccc"/><path id="shape28" transform="translate(178.987499148216, 358.649998293219)" fill="none" stroke="#ff0061" stroke-width="1.125" stroke-linecap="square" stroke-linejoin="bevel" d="M13.6125 33.8625C9.52875 28.53 3.7418 21.6403 0 16.0875C0.255864 13.9623 0.342122 10.0168 0.9 8.2125C12.0292 3.29176 23.7375 1.45125 34.0875 0" sodipodi:nodetypes="cccc"/><path id="shape29" transform="translate(185.827655829642, 367.757385659432)" fill="none" stroke="#ff0061" stroke-width="1.125" stroke-linecap="square" stroke-linejoin="bevel" d="M29.8311 0C20.5635 0.373834 9.2227 2.7031 0.159099 5.80711C-0.173528 9.53083 0.257633 10.2537 0 12.7279C5.63125 21.1666 9.24369 27.723 12.8075 33.8085" sodipodi:nodetypes="cccc"/><path id="shape30" transform="translate(186.162741369037, 345.343746921579)" fill="none" stroke="#ff0061" stroke-width="1.125" stroke-linecap="square" stroke-linejoin="bevel" d="M3.4833 16.9247C2.50484 15.3735 0.729156 13.4465 0.221771 11.754C0.00481553 9.55744 -0.0626458 6.17065 0.0626724 3.71952C1.52189 2.02816 2.52902 0.745971 3.3154 0.0594039C4.54017 -0.0461563 6.46778 -0.0885 8.29352 0.621904C9.40536 2.38925 10.3995 5.10717 10.9373 6.2469C10.8074 9.18655 10.1364 13.153 8.49492 16.1292" sodipodi:nodetypes="ccccccc"/><path id="shape311" transform="translate(213.113142238857, 339.040019493098)" fill="none" stroke="#ff0061" stroke-width="1.125" stroke-linecap="square" stroke-linejoin="bevel" d="M0.477297 13.7621C2.20587 10.6232 4.96006 6.32554 6.44351 3.42063C9.44174 2.15668 12.5101 0.906476 14.7962 0C18.7537 1.26773 22.4117 2.08213 25.2172 3.42063C27.5849 5.57112 30.4557 7.9012 32.4562 9.70504C34.1453 13.2273 35.8101 17.1501 37.2292 20.4442C37.3517 23.8488 37.1138 28.3565 37.1496 31.4221C35.7089 33.2964 34.0559 35.526 32.3767 38.0247C29.0577 39.5194 25.3194 40.7167 21.0806 42.3203C17.9865 41.5732 14.7335 40.8982 12.012 40.0134C9.53658 37.5309 6.47658 34.4497 4.21612 31.8198C3.11865 29.3517 1.15386 25.9216 0 23.308C0.0836082 20.4112 0.234164 16.5751 0.477297 13.7621Z" sodipodi:nodetypes="ccccccccccccc"/><path id="shape32" transform="translate(249.944571280793, 356.931299154415)" fill="none" stroke="#ff0061" stroke-width="1.125" stroke-linecap="square" stroke-linejoin="bevel" d="M114.499 54.9875C111.417 43.355 102.181 29.7752 97.0504 25.0655C93.7712 21.5636 92.7008 19.9719 83.2088 13.4512C74.6191 9.69869 62.3432 5.23095 45.1046 2.79161C38.804 2.70834 15.2881 -0.969212 0 0.246016" sodipodi:nodetypes="ccccc"/><path id="shape33" transform="translate(250.740076160701, 365.829328015284)" fill="none" stroke="#ff0061" stroke-width="1.125" stroke-linecap="square" stroke-linejoin="bevel" d="M0 0.098449C16.6099 -0.211794 37.5765 0.069462 54.571 3.04178C65.8602 5.8185 82.3993 11.6898 90.4478 19.429C98.0469 26.7361 104.028 41.1867 107.235 52.6707" sodipodi:nodetypes="cccc"/><path id="shape34" transform="translate(273.26250167684, 339.300002082071)" fill="none" stroke="#ff0061" stroke-width="1.125" stroke-linecap="square" stroke-linejoin="bevel" d="M5.90625 18.2812C1.215 16.1156 0.551093 11.6773 0 7.9875C0.963091 5.68582 2.71675 2.83369 4.1625 1.125C6.38496 0.458465 8.91033 0.15545 10.8 0C13.0048 0.916434 15.662 2.49938 17.55 4.05C17.9472 5.92409 18.3082 9.05268 18.5625 10.9125C17.4616 12.766 15.82 15.3964 14.625 17.325C12.8586 17.9792 11.16 18.3488 9.675 18.7875" sodipodi:nodetypes="cccccccc"/><path id="shape35" transform="translate(354.711280502274, 248.400431861282)" fill="none" stroke="#ff0061" stroke-width="1.125" stroke-linecap="square" stroke-linejoin="bevel" d="M21.5579 3.93063C14.4121 0.894219 11.4392 -0.409919 0 0.112247" sodipodi:nodetypes="cc"/><path id="shape36" transform="translate(375.791900385029, 244.455654081963)" fill="none" stroke="#ff0061" stroke-width="1.125" stroke-linecap="square" stroke-linejoin="bevel" d="M15.8206 38.5944C10.6401 28.3588 8.31 22.5624 5.80813 15.9819C3.78582 10.8101 2.20766 7.1311 0 0" sodipodi:nodetypes="ccc"/><path id="shape1111" transform="translate(329.096327718292, 322.01643090179)" fill="none" stroke="#ff0061" stroke-width="1.125" stroke-linecap="square" stroke-linejoin="bevel" d="M63.401 0C62.2298 14.2711 54.3324 29.0722 49.86 42.1461M48.9318 38.8554C53.1926 58.3963 48.5009 73.1203 41.1271 85.5157C25.1197 95.4837 21.6536 113.49 0 122.904" sodipodi:nodetypes="ccccc"/><path id="shape2111" transform="translate(281.923482303267, 388.462498385905)" fill="none" stroke="#ff0061" stroke-width="1.125" stroke-linecap="square" stroke-linejoin="bevel" d="M15.3578 6.13125C17.6696 4.29187 20.7752 1.48098 23.064 0C29.0729 0.524292 35.7698 0.749479 40.5578 1.6875C44.8312 7.15622 48.2381 12.8842 51.414 17.55C52.5831 21.2462 52.001 27.049 51.5828 31.05C49.2917 38.5758 47.4552 46.7597 46.5203 53.6063C44.4087 69.0693 45.0978 91.0586 43.8765 105.75C34.5138 100.813 21.2579 94.6443 11.9324 88.5959C7.8858 85.3909 3.3576 81.0644 0 76.9817C5.95537 70.2099 11.2579 63.2548 14.7962 56.2988C18.967 48.9126 21.5652 44.4593 27.1264 36.3319C31.2946 33.3326 31.3609 24.2654 31.263 21.2971C29.0038 17.1115 25.7104 11.0431 22.3534 8.48956" sodipodi:nodetypes="ccccccccccccc"/><path id="shape3111" transform="translate(282.241666358507, 474.870808153075)" fill="none" stroke="#ff0061" stroke-width="1.125" stroke-linecap="square" stroke-linejoin="bevel" d="M0 24.8592C0.140828 20.999 1.07981 15.0427 1.75009 11.2563C3.44056 9.13356 6.22022 4.38876 8.6709 0" sodipodi:nodetypes="ccc"/><path id="shape411" transform="translate(297.753826300259, 483.342856138129)" fill="none" stroke="#ff0061" stroke-width="1.125" stroke-linecap="square" stroke-linejoin="bevel" d="M6.44352 0C5.10709 2.01658 3.23838 4.69366 3.57973 7.75606C3.07381 10.54 2.32682 13.4916 0 15.1542" sodipodi:nodetypes="ccc"/><path id="shape51" transform="translate(264.262501806821, 496.290887284816)" fill="none" stroke="#ff0061" stroke-width="1.125" stroke-linecap="square" stroke-linejoin="bevel" d="M22.6688 5.23414C20.0363 4.59289 16.042 4.05034 13.8938 3.09664C12.3527 5.29973 8.88526 10.6381 6.46876 13.7279C8.14546 25.4933 7.79499 39.4831 6.3 50.2341C5.33872 57.147 1.39464 67.3166 0 72.8466C3.82624 75.9932 12.4316 78.8251 19.2375 78.6966C21.0503 70.9861 23.7483 61.4669 29.1375 61.9341C34.809 62.6948 32.1497 76.0298 31.0253 79.6476C44.2332 80.9625 60.356 76.8122 68.85 74.8716C79.2771 72.1777 87.1735 72.8837 98.4375 74.1966C95.4406 67.3395 92.6983 60.2848 89.9715 51.2484C89.4636 47.9901 87.356 32.6937 88.5938 23.0091C85.091 18.5213 82.2124 15.7403 79.9875 10.6341C78.1232 9.92916 75.2581 8.59467 73.2375 8.60911C67.8017 10.5086 61.2792 13.0752 53.1 14.9654C48.5616 15.8811 38.7916 16.0203 34.425 10.4091C31.1187 9.4787 26.9323 8.42705 23.5125 6.92164C23.2481 4.93605 23.4985 1.66558 24.0188 0.227887C26.1474 -0.227732 28.855 0.101063 30.9375 0.340387C32.4957 1.78247 34.4839 3.91109 35.2688 5.34664C34.7191 6.86329 34.4419 8.81164 34.0875 10.2966" sodipodi:nodetypes="ccccccccccccccccccccc"/><path id="shape61" transform="translate(298.469762017965, 570.369987651602)" fill="none" stroke="#ff0061" stroke-width="1.125" stroke-linecap="square" stroke-linejoin="bevel" d="M0 5.88666C10.7392 7.99473 24.2625 10.0081 35.0018 10.2619C41.637 9.38197 49.5676 8.00091 56.4404 6.36396C59.3763 5.3819 61.7622 1.93305 63.9578 0" sodipodi:nodetypes="cccc"/><path id="shape71" transform="translate(272.137507666466, 522.675014724432)" fill="none" stroke="#ff0061" stroke-width="1.125" stroke-linecap="square" stroke-linejoin="bevel" d="M0 0C13.1063 3.27375 29.8923 5.22123 41.625 9.225C50.7295 9.55592 60.7376 5.50483 67.05 3.15C71.9144 2.22291 77.355 3.2175 80.325 5.7375" sodipodi:nodetypes="cccc"/><path id="shape81" transform="translate(339.904350989654, 525.742750783649)" fill="none" stroke="#ff0061" stroke-width="1.125" stroke-linecap="square" stroke-linejoin="bevel" d="M5.97694 43.1158C2.82323 31.3745 -0.20345 14.6883 0.0107312 0" sodipodi:nodetypes="cc"/><path id="shape91" transform="translate(214.312510733254, 434.47502175949)" fill="none" stroke="#ff0061" stroke-width="1.125" stroke-linecap="square" stroke-linejoin="bevel" d="M82.1685 11.6386C80.7842 11.6382 78.1257 11.1613 73.5772 11.0022C67.1551 11.6762 58.1007 14.6056 51.8602 14.9797C39.7753 14.5904 29.9719 13.511 26.4839 12.5137C19.1409 11.0357 4.7938 6.09204 0 0" sodipodi:nodetypes="ccccc"/><path id="shape101" transform="translate(178.350008295261, 393.45189162728)" fill="none" stroke="#ff0061" stroke-width="1.125" stroke-linecap="square" stroke-linejoin="bevel" d="M52.3436 9.86414C48.4412 6.5738 43.904 3.1749 40.5187 0.860613C36.4732 0.745586 33.9108 0.403381 30.2288 0C22.1444 6.42214 11.5808 19.0972 0 30.2288C0.774086 33.9572 1.62684 35.9922 2.06829 41.2067C6.2131 48.602 2.79062 72.437 1.90919 85.7544C3.20468 90.6179 6.54765 97.8394 7.63675 101.664C12.9732 101.943 16.6907 102.317 20.2056 101.823C23.3231 98.6312 26.1804 97.2188 29.5924 94.4253C31.1217 93.2453 32.6111 92.0808 34.2063 90.6069C36.2806 84.1091 38.7053 79.8915 39.225 75.7856C42.4301 70.6135 42.7826 61.7787 41.925 56.4356C38.6478 51.3119 32.0009 44.334 30.225 39.1106C35.941 42.3692 52.7894 42.4771 60.7125 42.4294" sodipodi:nodetypes="cccccccccccccc"/><path id="shape0111" transform="translate(358.875009224645, 235.575015042069)" fill="none" stroke="#ff0061" stroke-width="1.125" stroke-linecap="square" stroke-linejoin="bevel" d="M56.925 0C58.7324 10.8442 63.6696 34.6445 70.3125 49.8375C69.8099 54.0522 70.155 58.3426 70.2 62.1C67.0859 66.2946 63.7844 70.6865 60.4125 75.375C42.6069 81.2094 25.4004 89.2719 1.35 101.925C1.60754 98.2572 2.35736 91.225 2.11483 83.5811C1.95808 78.6405 1.38676 73.4447 0 68.7375C7.21456 65.4397 25.148 55.2891 32.2875 48.6C36.545 41.5215 40.3177 35.7996 43.3125 29.8125C41.9456 24.5644 40.1231 17.5669 38.7563 12.3188" sodipodi:nodetypes="cccccccccc"/><path id="shape011" transform="translate(156.915592971366, 481.453618079056)" fill="none" stroke="#ff0061" stroke-width="1.125" stroke-linecap="square" stroke-linejoin="bevel" d="M57.6219 0.0464082C61.8453 -0.497592 69.7922 3.86175 71.4594 6.79641C74.4768 9.76081 74.8004 16.3436 73.5969 19.3964C68.7281 26.7567 60.2283 31.8558 51.8223 37.1296C46.4008 40.0943 38.1645 49.8222 30.5031 53.3577C20.9522 56.5772 9.06463 52.7256 0.194692 55.2669C-0.947525 52.0646 3.21514 41.7458 5.42191 37.3964C6.33568 35.5954 8.90869 33.5193 10.7657 32.5589C18.075 31.2747 28.6631 31.1161 33.7719 27.4401C39.4353 24.2592 45.4775 17.2758 46.8781 10.5089" sodipodi:nodetypes="cccccccccc"/><path id="shape11111" transform="translate(158.383076743321, 500.062521110831)" fill="none" stroke="#ff0061" stroke-width="1.125" stroke-linecap="square" stroke-linejoin="bevel" d="M72.4669 0C76.6966 13.4591 84.1545 26.6254 88.2204 35.2262C83.9288 45.01 74.1038 49.1657 70.6669 51.3C69.6253 47.8444 65.3026 40.2385 59.1848 42.4652C53.2016 45.3045 55.7456 54.8897 58.2302 59.807C53.2858 63.4575 47.948 66.6694 37.2291 70.4666C28.6464 72.2611 7.58378 75.8496 0 70.387C3.054 60.8179 3.18766 48.2948 2.62513 33.9533" sodipodi:nodetypes="cccccccc"/><path id="shape21111" transform="translate(167.531273179911, 537.595605009419)" fill="none" stroke="#ff0061" stroke-width="1.125" stroke-linecap="square" stroke-linejoin="bevel" d="M0 34.0472C2.59583 21.0318 2.65888 9.37088 1.75009 0" sodipodi:nodetypes="cc"/><path id="shape111111" transform="translate(367.957142896484, 163.158892673589)" fill="none" stroke="#ff0061" stroke-width="1.125" stroke-linecap="square" stroke-linejoin="bevel" d="M39.4955 65.3869C42.2645 66.9165 45.7558 65.9711 47.6891 70.9553C41.2981 85.9454 22.3746 87.8531 12.7668 83.1264C2.47187 80.0412 6.97618 73.5631 11.3929 69.9411C15.4286 67.0563 18.7674 66.5055 22.6991 65.2724M44.0741 75.3974C42.0661 72.9644 39.029 69.6998 38.4491 64.9349C41.2653 61.5771 43.8417 61.8199 49.6991 58.8599C55.606 55.6231 61.7577 48.001 62.6929 46.7661C65.7451 42.7359 68.2637 36.2409 71.0766 31.9761C72.5065 30.1935 75.2828 28.0546 77.5201 26.7656C77.2805 25.0494 77.4855 23.3919 77.1621 21.4755C74.9735 20.1581 69.6276 18.5802 65.8263 18.0549C64.2395 19.0316 62.0373 20.1835 60.4965 21.396C59.5699 23.2956 58.8199 26.133 57.0759 27.5213C55.9276 28.5159 53.1844 34.9774 51.8256 46.0563C50.8884 45.8375 52.1789 26.9698 51.9052 24.6575C53.1984 21.0545 52.3772 16.5393 51.4279 12.8046C51.6044 9.74573 54.3147 4.29788 53.0179 2.66612C50.2755 -0.0626278 47.5795 -1.33705 43.6804 1.99112C42.2592 4.05568 43.0564 8.05617 42.3304 10.4849C41.6463 12.7733 39.73 15.4506 39.0679 17.7411C37.5818 22.8819 38.3133 35.8006 37.4929 35.8536C36.9004 35.8919 35.4134 26.8074 34.9054 22.9161C34.3084 18.3439 34.393 10.3228 33.2741 7.55986C30.2609 5.66961 27.2679 5.65154 24.6679 8.06612C24.0227 10.5468 24.1796 14.7008 24.0629 17.6969C23.8512 23.1308 24.6449 36.14 24.2179 36.1911C23.8419 36.2361 23.9356 22.6849 21.0679 20.4974C14.1672 17.4654 14.4089 17.3569 10.5491 21.2286C11.6371 23.9502 13.5081 25.4602 14.0929 27.4724C14.9277 30.3451 15.1571 37.575 14.5991 37.7099C13.5371 37.9666 13.4864 24.9291 7.99386 21.8733C5.48804 19.3783 -1.46752 25.8498 0.277555 27.044C2.18197 29.0889 5.10536 32.3344 6.83661 34.8411C8.60856 37.4068 10.2571 41.3683 11.4145 44.3062C11.7135 49.7402 14.0425 56.6409 17.0179 60.4911C20.577 63.7965 23.0095 65.8433 24.8584 67.2165C27.2286 72.2083 25.3017 80.6237 24.6197 84.3992" sodipodi:nodetypes="ccccccccccccccccccccccccccccccccccccccc"/><path id="shape01111" transform="translate(309.447605116763, 207.000015680953)" fill="none" stroke="#ff0061" stroke-width="1.125" stroke-linecap="square" stroke-linejoin="bevel" d="M0 87.9696C8.24956 77.0202 56.8452 24.7601 62.7024 18.45C64.2828 14.2272 68.4279 3.4402 69.5087 0" sodipodi:nodetypes="ccc"/><path id="shape1111111" transform="translate(319.275021199895, 204.18750842021)" fill="none" stroke="#ff0061" stroke-width="1.125" stroke-linecap="square" stroke-linejoin="bevel" d="M58.725 0C52.3885 3.35292 44.8913 6.78643 35.6625 11.925C28.3604 19.1737 5.29875 41.6306 0 47.25" sodipodi:nodetypes="ccc"/>
</svg>
