<?xml version="1.0" standalone="no"?>
<!DOCTYPE svg PUBLIC "-//W3C//DTD SVG 20010904//EN" "http://www.w3.org/TR/2001/REC-SVG-20010904/DTD/svg10.dtd">
<!-- Created using Krita: https://krita.org -->
<svg xmlns="http://www.w3.org/2000/svg" 
    xmlns:xlink="http://www.w3.org/1999/xlink"
    xmlns:krita="http://krita.org/namespaces/svg/krita"
    xmlns:sodipodi="http://sodipodi.sourceforge.net/DTD/sodipodi-0.dtd"
    width="675pt"
    height="675pt"
    viewBox="0 0 675 675">
<defs/>
<path id="shape2" transform="translate(110.573826991424, 227.352511185332)" fill="none" stroke="#ff0061" stroke-width="1.575" stroke-linecap="square" stroke-linejoin="bevel" d="M55.0483 0C43.9094 21.248 17.7243 67.1852 3.72618 97.3225C2.36226 112.336 1.1859 124.891 0 139.212C2.82583 157.865 11.9902 189.649 14.3189 199.192C29.4724 194.099 54.4563 184.987 77.163 175.964C91.3363 165.726 101.806 157.316 111.276 149.747C130.537 117.856 149.661 80.3359 168.327 47.4115C154.09 41.475 135.839 34.0065 115.267 24.5808C91.0124 13.0143 73.7982 7.12117 55.0483 0Z" sodipodi:nodetypes="ccccccccc"/><path id="shape3" transform="translate(236.475015730227, 231.525015400955)" fill="none" stroke="#ff0061" stroke-width="1.575" stroke-linecap="square" stroke-linejoin="bevel" d="M0 24.6375C12.9263 17.2463 33.5452 5.08862 43.0875 0C50.5486 7.5112 57.6338 18.3263 62.1 28.2375" sodipodi:nodetypes="ccc"/><path id="shape4" transform="translate(239.125843754913, 233.716201791334)" fill="none" stroke="#ff0061" stroke-width="1.575" stroke-linecap="square" stroke-linejoin="bevel" d="M0 19.8877C4.11242 12.7006 18.949 -0.0682774 35.9564 0.000274905" sodipodi:nodetypes="cc"/><path id="shape5" transform="translate(251.535563429694, 239.483812050947)" fill="none" stroke="#ff0061" stroke-width="1.575" stroke-linecap="square" stroke-linejoin="bevel" d="M0 22.1148C4.43909 19.598 21.7252 9.17001 24.7645 7.50995C28.1615 4.78206 31.7076 2.53125 34.6438 0" sodipodi:nodetypes="ccc"/><path id="shape6" transform="translate(276.13125668456, 249.018756028223)" fill="none" stroke="#ff0061" stroke-width="1.575" stroke-linecap="square" stroke-linejoin="bevel" d="M0 0C2.62513 4.3434 6.5877 11.1797 9.21284 15.5231" sodipodi:nodetypes="cc"/><path id="shape7" transform="translate(260.126908286787, 257.581323863186)" fill="none" stroke="#ff0061" stroke-width="1.575" stroke-linecap="square" stroke-linejoin="bevel" d="M0 0C1.86146 3.48427 4.3434 8.12996 6.20486 11.6142" sodipodi:nodetypes="cc"/><path id="shape8" transform="translate(278.437515535049, 260.393915929745)" fill="none" stroke="#ff0061" stroke-width="1.575" stroke-linecap="square" stroke-linejoin="bevel" d="M0 13.5436C2.43 10.1349 7.37791 3.60531 10.6852 1.96037C24.5395 -2.40897 40.4779 1.64065 50.7384 3.39227C62.5356 7.34394 79.5221 18.3574 86.0625 28.506C92.4617 38.4355 96.7024 58.753 94.1625 70.1311C91.9252 80.1533 83.903 98.6388 72.1125 100.281C54.4244 96.7197 33.21 81.8536 16.5375 71.7061" sodipodi:nodetypes="ccccccc"/><path id="shape9" transform="translate(244.614749644209, 288.243080139636)" fill="none" stroke="#ff0061" stroke-width="1.575" stroke-linecap="square" stroke-linejoin="bevel" d="M22.5125 7.522C32.2811 0.0125262 46.0854 -2.52202 55.6051 2.90813C65.1888 7.47485 67.3141 8.85843 72.6286 9.90848C78.4738 8.61594 85.7709 9.80927 89.0158 9.90848C87.4695 16.0689 74.7892 27.4754 67.2193 32.9779C47.3879 43.1276 20.9304 55.7167 0 64.559" sodipodi:nodetypes="cccccc"/><path id="shape10" transform="translate(230.05718852297, 347.51250335353)" fill="none" stroke="#ff0061" stroke-width="1.575" stroke-linecap="square" stroke-linejoin="bevel" d="M8.78031 0C11.1101 2.61307 14.6872 7.0029 16.5463 8.71022C14.1141 10.703 4.96389 13.6105 0 15.7106" sodipodi:nodetypes="ccc"/><path id="shape11" transform="translate(225.602415854475, 360.836586148061)" fill="none" stroke="#ff0061" stroke-width="1.575" stroke-linecap="square" stroke-linejoin="bevel" d="M0 10.1823C4.26385 14.8598 9.31486 13.6389 11.296 12.2506C13.4394 10.7487 16.244 7.33446 13.3643 0" sodipodi:nodetypes="ccc"/><path id="shape12" transform="translate(269.831952212438, 294.174103561791)" fill="none" stroke="#ff0061" stroke-width="1.575" stroke-linecap="square" stroke-linejoin="bevel" d="M0 0C7.97086 10.2142 15.9774 26.182 18.6146 34.0472C26.7684 30.0527 30.7538 26.0286 35.9564 22.5921" sodipodi:nodetypes="ccc"/><path id="shape13" transform="translate(266.258402480928, 302.288162848682)" fill="none" stroke="#ff0061" stroke-width="1.575" stroke-linecap="square" stroke-linejoin="bevel" d="M8.98293 0C2.72239 1.766 -2.22079 5.29551 1.02798 9.94369C7.13244 15.3763 10.5818 8.68678 12.8808 5.88664" sodipodi:nodetypes="ccc"/><path id="shape14" transform="translate(258.468752801811, 313.537503398759)" fill="none" stroke="#ff0061" stroke-width="1.575" stroke-linecap="square" stroke-linejoin="bevel" d="M23.4563 20.9813C17.0343 22.5203 14.3876 18.1519 9.61876 13.95C6.23853 10.4598 2.1033 4.93465 0 0" sodipodi:nodetypes="ccc"/><path id="shape15" transform="translate(254.797082571799, 319.70948325197)" fill="none" stroke="#ff0061" stroke-width="1.575" stroke-linecap="square" stroke-linejoin="bevel" d="M0 0C2.52967 3.22176 5.91293 8.20108 8.43225 10.7392C6.94034 14.5655 5.16516 16.6479 3.57973 19.7283C8.50122 20.2831 11.9881 20.2851 15.5917 20.5238" sodipodi:nodetypes="cccc"/><path id="shape16" transform="translate(275.737502709748, 272.700012710857)" fill="none" stroke="#ff0061" stroke-width="1.575" stroke-linecap="square" stroke-linejoin="bevel" d="M0 16.9875C2.782 8.81765 11.1202 4.58841 14.5387 3.25725C20.3617 1.34837 31.1203 2.19808 38.1375 1.46249C42.7969 0.974062 46.0806 0.513808 52.4813 0C54.0074 0.479403 56.565 2.78999 58.05 3.59999" sodipodi:nodetypes="ccccc"/><path id="shape17" transform="translate(290.362514571695, 262.115647637621)" fill="none" stroke="#ff0061" stroke-width="1.575" stroke-linecap="square" stroke-linejoin="bevel" d="M11.2892 0C7.69391 3.257 1.58591 8.87493 0 13.4531" sodipodi:nodetypes="cc"/><path id="shape19" transform="translate(317.587523672959, 313.537523371072)" fill="none" stroke="#ff0061" stroke-width="1.575" stroke-linecap="square" stroke-linejoin="bevel" d="M0 31.8375C3.645 25.7963 8.75374 18.2466 12.15 11.7C12.2355 8.67369 12.2893 3.95063 11.8125 1.2375C9.6927 0.419251 6.3 0.37125 3.9375 0" sodipodi:nodetypes="cccc"/><path id="shape20" transform="translate(259.490517427774, 334.744358472125)" fill="none" stroke="#ff0061" stroke-width="1.575" stroke-linecap="square" stroke-linejoin="bevel" d="M39.6157 0C34.6518 7.15946 30.3858 19.5605 23.0694 23.8649C12.2246 24.1778 7.8754 22.3057 0 12.0915" sodipodi:nodetypes="ccc"/><path id="shape21" transform="translate(260.604197588429, 336.017133886912)" fill="none" stroke="#ff0061" stroke-width="1.575" stroke-linecap="square" stroke-linejoin="bevel" d="M21.8761 0C22.6192 7.31448 21.1048 16.1585 17.9782 17.8191C14.6612 19.5808 6.68721 17.42 0 10.6596" sodipodi:nodetypes="ccc"/><path id="shape22" transform="translate(283.859452927897, 335.587515737621)" fill="none" stroke="#ff0061" stroke-width="1.575" stroke-linecap="square" stroke-linejoin="bevel" d="M5.32181 14.6813C2.91994 11.5594 2.94244 8.18438 0.484311 0C-0.578814 4.87688 0.422436 15.3169 0.540561 20.7563" sodipodi:nodetypes="ccc"/><path id="shape23" transform="translate(349.200022558541, 288.900018663123)" fill="none" stroke="#ff0061" stroke-width="1.575" stroke-linecap="square" stroke-linejoin="bevel" d="M15.75 0C27.2925 11.61 42.9392 27.2073 54.225 38.7C63.4987 46.6152 79.5029 56.1532 87.3 62.55C87.9696 64.0509 86.5396 67.1918 86.625 68.85C78.5774 70.3113 70.0223 72.466 55.575 74.925C48.8092 77.8725 41.1202 80.5694 33.525 83.25C29.6223 86.8688 21.7903 89.7216 13.725 94.725C14.4123 91.0288 14.984 87.9236 14.0231 81.8803C9.69735 79.5759 5.75435 76.528 0 72.225" sodipodi:nodetypes="ccccccccc"/><path id="shape24" transform="translate(407.929915093499, 359.245616442943)" fill="none" stroke="#ff0061" stroke-width="1.575" stroke-linecap="square" stroke-linejoin="bevel" d="M26.2513 0C29.2423 4.37522 31.9197 7.36579 33.5699 11.0573C35.15 17.2658 36.9519 24.1919 38.0247 29.9106C36.3801 38.9763 35.4291 47.9051 33.4108 56.4801C29.3494 63.1846 27.6287 69.1962 22.9103 76.2084C15.2096 81.7786 8.94137 80.4245 0 81.1405" sodipodi:nodetypes="cccccc"/><path id="shape25" transform="translate(303.70616536136, 376.077604463651)" fill="none" stroke="#ff0061" stroke-width="1.575" stroke-linecap="square" stroke-linejoin="bevel" d="M63.0438 5.74741C70.5026 4.19491 80.3682 1.41432 87.9063 0.572405C91.7806 0.139702 98.3878 -0.344782 100.956 0.347405C103.043 5.33495 104.52 11.2067 104.556 15.8724C101.92 27.5753 100.635 34.078 98.2563 45.1224C93.5959 50.6859 87.8791 56.5881 83.0688 61.7724C73.969 68.7229 62.0488 71.446 49.1755 71.5475C37.8772 75.1471 29.4528 79.0134 12.8214 81.889C8.07547 77.5302 2.42829 66.0547 0.0934186 58.8991C-0.385766 55.8289 1.07691 51.3819 2.24126 48.0804C9.04588 43.6096 13.4051 41.3191 17.9921 38.1367C22.8237 32.8892 28.1533 28.7158 33.7938 26.1247" sodipodi:nodetypes="cccccccccccc"/><path id="shape26" transform="translate(368.943759875089, 396.337510608305)" fill="none" stroke="#ff0061" stroke-width="1.575" stroke-linecap="square" stroke-linejoin="bevel" d="M38.1375 0C33.9698 0.87948 18.7171 5.27285 7.48453 10.3196C5.25607 9.12695 2.48194 8.29778 0 6.6375" sodipodi:nodetypes="ccc"/><path id="shape27" transform="translate(367.836954375865, 400.770453318687)" fill="none" stroke="#ff0061" stroke-width="1.575" stroke-linecap="square" stroke-linejoin="bevel" d="M31.3425 23.0694C21.1868 20.4318 12.0925 16.6278 5.10056 14.5796C3.64949 10.0758 1.44885 4.6382 0 0" sodipodi:nodetypes="ccc"/><path id="shape28" transform="translate(364.734527415578, 383.030915922793)" fill="none" stroke="#ff0061" stroke-width="1.575" stroke-linecap="square" stroke-linejoin="bevel" d="M0 0C1.6069 6.69807 2.45013 12.6325 3.02288 18.2168" sodipodi:nodetypes="cc"/><path id="shape29" transform="translate(361.145767702915, 394.486049525492)" fill="none" stroke="#ff0061" stroke-width="1.575" stroke-linecap="square" stroke-linejoin="bevel" d="M24.8417 42.914C18.1592 37.0753 11.426 29.8835 0.31675 24.5765C-0.772537 18.4236 1.10177 5.7158 3.58876 0" sodipodi:nodetypes="ccc"/><path id="shape30" transform="translate(347.737522686254, 393.637525680752)" fill="none" stroke="#ff0061" stroke-width="1.575" stroke-linecap="square" stroke-linejoin="bevel" d="M18.7875 0C11.0372 0.870304 8.04258 0.315231 3.825 5.2875C1.39363 13.8233 1.35402 20.3949 0 28.8C7.59495 34.6565 15.1987 44.55 21.7125 51.3" sodipodi:nodetypes="cccc"/><path id="shape31" transform="translate(332.325020888239, 395.775024876379)" fill="none" stroke="#ff0061" stroke-width="1.575" stroke-linecap="square" stroke-linejoin="bevel" d="M20.925 51.75C14.4656 44.4553 5.26444 33.3474 0 28.35C1.98222 22.0492 3.91629 14.0955 6.4125 4.5C10.6358 0.398927 15.7702 0.415934 21.825 0" sodipodi:nodetypes="cccc"/><path id="shape32" transform="translate(371.178025258532, 414.612079833371)" fill="none" stroke="#ff0061" stroke-width="1.575" stroke-linecap="square" stroke-linejoin="bevel" d="M69.2081 0C56.512 9.35502 41.5705 22.5492 26.8878 31.1834C18.9324 34.5408 6.94133 36.8107 0 30.8652" sodipodi:nodetypes="ccc"/><path id="shape33" transform="translate(292.848873141512, 423.839799854025)" fill="none" stroke="#ff0061" stroke-width="1.575" stroke-linecap="square" stroke-linejoin="bevel" d="M12.6213 0C8.89834 2.67286 3.843 6.07717 0.211529 8.90955C0.821974 15.6411 -0.241192 22.6382 0.0524299 27.2059C1.28176 29.0454 5.28577 30.8941 8.32558 30.547C19.3456 35.0207 23.681 36.6248 32.1904 45.9796" sodipodi:nodetypes="ccccc"/><path id="shape34" transform="translate(296.242386127079, 453.591322689744)" fill="none" stroke="#ff0061" stroke-width="1.575" stroke-linecap="square" stroke-linejoin="bevel" d="M0 0C0.827315 10.3733 2.97168 20.4528 7.00036 27.6832C9.79833 27.9892 11.01 30.4358 11.7733 32.6153C20.6996 53.3515 25.5453 74.4265 33.4108 89.5727C35.4848 92.1547 41.5826 94.1699 43.1158 95.9367C43.7842 97.6556 42.6639 101.071 41.2576 102.062C38.7479 102.637 32.0844 102.984 27.8423 101.982C22.5053 96.141 14.4636 85.7091 12.5688 79.2313C14.5771 75.6216 21.7488 73.0901 25.6149 75.0947" sodipodi:nodetypes="ccccccccc"/><path id="shape35" transform="translate(284.389501566462, 530.015793269619)" fill="none" stroke="#ff0061" stroke-width="1.575" stroke-linecap="square" stroke-linejoin="bevel" d="M27.2855 1.21584C22.7035 0.833995 18.2536 -0.629996 13.9605 0.309244C10.7877 1.00341 4.65495 0.124269 0 5.75016C1.43264 14.2872 10.2341 20.746 17.8987 23.3306C25.5616 26.3699 35.328 27.2524 39.6157 25.6375" sodipodi:nodetypes="ccccc"/><path id="shape36" transform="translate(325.991907774118, 453.90951283301)" fill="none" stroke="#ff0061" stroke-width="1.575" stroke-linecap="square" stroke-linejoin="bevel" d="M8.91154 0C11.4889 3.38881 15.4749 8.49269 17.5029 11.296C19.5665 19.5497 19.2966 25.9905 19.253 32.2971C15.4474 51.1363 18.1278 69.2374 21.7986 79.2313C24.38 88.4762 20.2455 106.058 13.3663 108.346C8.50096 110.348 -0.1512 106.645 0.00200765 102.38" sodipodi:nodetypes="cccccc"/><path id="shape38" transform="translate(395.550016413793, 440.100007367258)" fill="none" stroke="#ff0061" stroke-width="1.575" stroke-linecap="square" stroke-linejoin="bevel" d="M28.125 0C23.7038 7.32375 18.1541 16.5977 13.6125 23.7375C9.28061 29.5921 4.08375 37.0462 0 42.75" sodipodi:nodetypes="ccc"/><path id="shape39" transform="translate(359.437503530723, 447.300004393788)" fill="none" stroke="#ff0061" stroke-width="1.575" stroke-linecap="square" stroke-linejoin="bevel" d="M7.0875 0C4.96125 8.1 1.83321 20.3216 0 27C7.1669 32.2398 14.0963 36.2138 20.1375 40.1625" sodipodi:nodetypes="ccc"/><path id="shape40" transform="translate(352.575005924833, 468.45000787205)" fill="none" stroke="#ff0061" stroke-width="1.575" stroke-linecap="square" stroke-linejoin="bevel" d="M8.1 0C4.93875 1.4175 1.00583 12.4101 0 17.1C1.78792 23.4271 7.61317 38.6755 14.5125 37.0125" sodipodi:nodetypes="ccc"/><path id="shape41" transform="translate(361.632072400635, 483.318412316332)" fill="none" stroke="#ff0061" stroke-width="1.575" stroke-linecap="square" stroke-linejoin="bevel" d="M48.0929 5.6066C41.1268 1.1318 32.1087 -1.06064 25.1376 0.501708C21.4471 3.85842 17.8085 6.1297 10.3414 9.09306C6.75622 9.96026 0.568682 10.3793 0 12.1159C2.52431 18.0863 13.4254 33.8914 21.3193 39.9583C22.9676 41.053 26.3087 40.7225 28.0679 41.7191C40.7662 53.6718 52.3862 64.6479 63.0555 76.0316C62.9351 81.1186 60.8564 86.526 60.243 92.7941C61.2127 95.3518 65.6934 97.6046 68.4555 99.4316C71.7122 98.5219 77.2301 96.1092 79.4805 93.8066C79.7425 91.8558 79.9897 88.0398 79.4805 85.5941C77.7231 84.2042 74.9917 82.9954 73.068 81.8816" sodipodi:nodetypes="cccccccccccc"/><path id="shape42" transform="translate(404.588818830549, 488.081246670713)" fill="none" stroke="#ff0061" stroke-width="1.575" stroke-linecap="square" stroke-linejoin="bevel" d="M4.57368 0C12.3602 9.62113 18.6355 19.6693 22.5737 29.4188C27.4608 40.3471 34.5883 49.5135 41.3612 55.9688C44.459 60.7998 48.3419 68.3007 50.9515 72.5439C51.2278 73.6513 50.6638 75.3372 50.8112 76.5C53.619 79.7628 56.1535 88.5461 55.5362 92.475C50.51 94.8806 40.8154 101.265 35.3995 104.244C27.2881 106.924 2.46224 115.358 0 98.4373C2.04908 95.113 5.56185 90.3521 8.27315 88.255C10.9407 87.3278 16.1287 86.1989 18.4674 85.3875" sodipodi:nodetypes="cccccccccc"/><path id="shape43" transform="translate(379.350002554644, 483.750003257701)" fill="none" stroke="#ff0061" stroke-width="1.575" stroke-linecap="square" stroke-linejoin="bevel" d="M0 5.4C2.16 7.29 5.35054 9.83489 7.2 11.7C11.0255 9.78981 16.5701 7.79126 18.45 5.2875C18.1107 4.21215 17.6625 1.58625 17.325 0" sodipodi:nodetypes="cccc"/><path id="shape44" transform="translate(438.079180723685, 544.277783641085)" fill="none" stroke="#ff0061" stroke-width="1.575" stroke-linecap="square" stroke-linejoin="bevel" d="M9.02887 0C6.21797 0.41942 1.8714 2.47935 0 3.3013C0.728361 4.85625 2.89263 8.26049 3.42063 9.62549C6.60766 9.0288 9.1702 7.81036 11.7521 7.42223" sodipodi:nodetypes="cccc"/><path id="shape45" transform="translate(383.40000876379, 455.118760403143)" fill="none" stroke="#ff0061" stroke-width="1.575" stroke-linecap="square" stroke-linejoin="bevel" d="M14.0625 4.21875C12.0944 3.24496 6.82668 1.28651 2.19375 0C1.74697 0.918833 0.609505 2.57578 0 3.6C2.10096 5.68806 8.62759 8.97998 11.1375 9.28125C12.3745 8.14708 13.4988 5.67822 14.0625 4.21875Z" sodipodi:nodetypes="ccccc"/><path id="shape0" transform="translate(186.075008942168, 80.5500020856542)" fill="none" stroke="#ff0061" stroke-width="1.575" stroke-linecap="square" stroke-linejoin="bevel" d="M20.925 162C19.5798 153.782 2.1934 38.1896 0 23.0625C0.804301 14.6318 0.922497 11.126 2.5875 0C5.57759 6.33019 9.71148 14.9779 13.117 20.8756C18.5736 63.8718 30.2201 124.171 34.5953 168.44" sodipodi:nodetypes="ccccc"/>
</svg>
