<?xml version="1.0" standalone="no"?>
<!DOCTYPE svg PUBLIC "-//W3C//DTD SVG 20010904//EN" "http://www.w3.org/TR/2001/REC-SVG-20010904/DTD/svg10.dtd">
<!-- Created using Krita: https://krita.org -->
<svg xmlns="http://www.w3.org/2000/svg" 
    xmlns:xlink="http://www.w3.org/1999/xlink"
    xmlns:krita="http://krita.org/namespaces/svg/krita"
    xmlns:sodipodi="http://sodipodi.sourceforge.net/DTD/sodipodi-0.dtd"
    width="675pt"
    height="675pt"
    viewBox="0 0 675 675">
<defs/>
<path id="shape0" transform="translate(325.74337022609, 173.362456170831)" fill="none" stroke="#ff0061" stroke-width="1.125" stroke-linecap="square" stroke-linejoin="bevel" d="M0.956626 59.5125C5.71714 70.041 14.526 85.8704 22.2191 91.8001C26.1785 92.4134 29.0177 92.6128 32.2316 92.0251C41.7377 84.4221 52.3278 71.8639 56.0943 61.4677C61.1883 50.0199 59.536 25.2277 57.1284 16.92C53.6262 9.48681 39.6677 -0.0242421 29.9816 4.6425e-05C21.3602 0.0254157 5.29257 6.59692 1.29413 17.325C-0.596177 23.9045 -0.153151 46.3292 0.956626 59.5125Z" sodipodi:nodetypes="cccccccc"/><path id="shape1" transform="translate(386.053797045239, 184.972792507668)" fill="none" stroke="#ff0061" stroke-width="1.125" stroke-linecap="square" stroke-linejoin="bevel" d="M0 25.913C6.19 21.4172 12.9301 18.8386 19.4524 11.2835C23.3749 7.01454 30.2376 -0.755497 33.8085 0.059371C37.339 0.865013 42.9281 11.4403 42.5589 15.9692C41.8952 22.8547 38.6115 27.3449 30.9447 30.7655C25.8557 44.2739 14.4143 61.392 2.78422 64.1762" sodipodi:nodetypes="cccccc"/><path id="shape01" transform="translate(422.567009661449, 184.519673448865)" fill="none" stroke="#ff0061" stroke-width="1.125" stroke-linecap="square" stroke-linejoin="bevel" d="M0 2.10348C4.24794 1.50686 10.0936 -0.496784 14.1598 0.114743C21.6791 1.24558 30.5519 9.43892 38.1042 11.3312C41.5399 12.1921 48.1458 10.0757 50.1162 11.9676C53.3228 15.0464 54.5891 28.2044 51.9458 31.4573C50.6054 33.1068 45.2833 33.6562 42.0817 32.5709C38.9561 29.892 35.0756 28.5992 30.3879 28.4344C23.5244 28.5049 15.5107 30.4758 7.3981 29.1503C5.81846 28.5582 4.08089 27.7264 2.94333 25.0137" sodipodi:nodetypes="ccccccccc"/><path id="shape11" transform="translate(469.068756145313, 196.139617865294)" fill="none" stroke="#ff0061" stroke-width="1.125" stroke-linecap="square" stroke-linejoin="bevel" d="M4.78125 1.18538C8.80313 -0.676489 14.5278 -0.2795 17.1563 1.91663C19.7487 3.85343 21.3494 10.3628 21.5438 14.0666C21.7311 17.638 20.0427 22.3321 18.5625 26.1604C17.1926 27.2252 12.7399 26.6292 11.1938 26.1041C13.3175 28.2043 15.3858 30.1226 15.6662 31.8891C16.0934 34.1982 13.4641 35.3838 11.7285 34.3153C7.65928 33.9395 3.53653 26.6148 0 21.6041" sodipodi:nodetypes="cccccccc"/><path id="shape3" transform="translate(298.787967511172, 222.897741463169)" fill="none" stroke="#ff0061" stroke-width="1.125" stroke-linecap="square" stroke-linejoin="bevel" d="M86.709 0C89.5693 2.33367 91.1697 6.25385 91.5615 9.46638C89.6416 22.5692 88.1991 34.9821 87.1863 45.9001C86.1506 60.114 85.7133 80.7976 80.6745 93.2273C75.3934 101.026 65.7714 110.534 57.8371 113.027C54.4665 114.086 48.4237 113.159 45.0683 111.677C39.8559 108.676 34.4522 102.375 29.9933 98.2898C22.7051 91.6118 17.2329 87.7633 10.4745 80.9648C5.18057 77.0247 1.81373 64.1249 0 59.1848" sodipodi:nodetypes="ccccccccc"/><path id="shape4" transform="translate(310.740244628602, 307.462515335928)" fill="none" stroke="#ff0061" stroke-width="1.125" stroke-linecap="square" stroke-linejoin="bevel" d="M41.9472 30.0375C22.8036 36.1427 15.4327 29.0326 9.88473 25.2C2.49034 18.8191 -0.912471 12.4383 0.209771 0" sodipodi:nodetypes="ccc"/><path id="shape5" transform="translate(293.139950019889, 237.375749571527)" fill="none" stroke="#ff0061" stroke-width="1.125" stroke-linecap="square" stroke-linejoin="bevel" d="M36.2747 1.98874C30.4835 5.17072 24.7552 2.02853 18.0578 0C12.4834 2.17676 3.02561 0.577975 0 11.0574" sodipodi:nodetypes="ccc"/><path id="shape7" transform="translate(401.933730951951, 462.81907755819)" fill="none" stroke="#ff0061" stroke-width="1.125" stroke-linecap="square" stroke-linejoin="bevel" d="M25.2472 0C32.2808 2.46496 36.7259 10.4985 38.6115 18.1373C41.2878 27.9093 41.5936 42.0826 42.1117 52.98C43.3639 71.432 47.9935 85.2107 56.2715 93.232C60.5278 96.7916 66.9892 103.643 67.0902 106.278C63.5915 109.656 50.7076 113.729 43.5435 112.801C41.6679 112.176 39.8141 108.583 38.691 106.517C38.1924 96.2397 32.1513 84.3472 27.8163 75.6059C23.9144 65.0972 13.0256 54.8685 7.62253 44.9497C2.81525 35.5277 -0.336853 25.8134 0.0287681 16.4872" sodipodi:nodetypes="cccccccccc"/><path id="shape8" transform="translate(360.194200755667, 391.275024232792)" fill="none" stroke="#ff0061" stroke-width="1.125" stroke-linecap="square" stroke-linejoin="bevel" d="M3.63082 0C2.4315 3.81977 -0.321067 8.95836 0.030822 12.6C0.769851 20.2481 7.0405 30.4271 12.5183 37.125C18.3157 43.8693 24.4993 51.5428 28.4933 58.3875C33.1123 66.3031 36.3465 79.951 40.8121 86.5687C44.7188 90.2885 52.1577 91.6425 57.1808 89.7187" sodipodi:nodetypes="cccccc"/><path id="shape011" transform="translate(309.924915828152, 386.451550588594)" fill="none" stroke="#ff0061" stroke-width="1.125" stroke-linecap="square" stroke-linejoin="bevel" d="M58.4689 0C51.7032 6.48268 42.7654 15.0903 34.604 19.1714C32.2408 20.4024 27.0755 21.3867 23.8649 19.8874C18.7802 15.2868 7.15946 8.08223 0 3.02288" sodipodi:nodetypes="cccc"/><path id="shape111" transform="translate(308.572574838143, 398.145330514284)" fill="none" stroke="#ff0061" stroke-width="1.125" stroke-linecap="square" stroke-linejoin="bevel" d="M15.1144 0C10.4352 3.51473 4.47504 3.18312 0 3.02288" sodipodi:nodetypes="cc"/><path id="shape2" transform="translate(255.937517904284, 366.412500398794)" fill="none" stroke="#ff0061" stroke-width="1.125" stroke-linecap="square" stroke-linejoin="bevel" d="M56.5875 34.5375C59.7454 40.2388 58.908 46.1922 57.0375 50.625C52.6258 61.4809 39.6167 72.6317 34.2 83.3625C31.8361 90.4301 31.4517 101.101 29.3625 107.1C26.0672 113.653 16.4673 115.571 11.9812 114.3C2.11551 108.687 4.21857 95.5447 0 86.2875C0.399791 82.1885 7.44179 76.3086 9.43965 72.2235C10.7235 61.3092 9.30028 53.9666 10.076 47.4836C11.1111 38.8334 12.0779 30.8752 15.4125 22.9781C18.7046 15.1815 25.7203 3.35622 32.4562 0" sodipodi:nodetypes="cccccccccc"/><path id="shape31" transform="translate(289.951905178376, 329.568763064799)" fill="none" stroke="#ff0061" stroke-width="1.125" stroke-linecap="square" stroke-linejoin="bevel" d="M1.02935 49.8938C0.465004 46.1507 -0.536196 36.4934 0.354354 31.8375C1.55315 26.8415 4.0678 20.3234 6.99185 16.1438C9.00828 12.8303 13.0066 9.29945 16.7794 10.1813C18.9943 7.0476 24.3668 2.03895 27.5231 0" sodipodi:nodetypes="ccccc"/><path id="shape41" transform="translate(466.478344048894, 571.085953602832)" fill="none" stroke="#ff0061" stroke-width="1.125" stroke-linecap="square" stroke-linejoin="bevel" d="M0 0C1.01028 5.04344 5.34674 8.47426 8.6709 10.9778C13.9254 14.7901 23.2998 20.5188 23.5467 23.8649C27.1257 27.0735 31.6603 31.592 33.0926 35.0813C33.7752 39.3438 29.9354 48.2719 26.7286 50.673C21.772 50.5117 14.5818 47.2463 9.11541 43.3328C8.06717 41.0008 7.54693 36.0283 8.27166 33.2641C8.80321 31.2366 10.7405 28.3564 12.4342 27.1328C16.5295 26.0744 20.191 24.9278 23.5154 23.9828" sodipodi:nodetypes="ccccccccc"/><path id="shape51" transform="translate(444.154181690186, 576.000005769092)" fill="none" stroke="#ff0061" stroke-width="1.125" stroke-linecap="square" stroke-linejoin="bevel" d="M4.38333 0C2.81676 2.30349 -2.33443 11.1403 1.23333 14.7375C5.56671 18.7694 10.6454 18.0209 14.3396 16.9875C18.6312 19.2059 23.0727 27.0824 24.6896 31.8938C26.0999 33.1785 28.6665 34.1381 30.3708 35.1" sodipodi:nodetypes="ccccc"/><path id="shape61" transform="translate(232.491752859139, 452.079867133398)" fill="none" stroke="#ff0061" stroke-width="1.125" stroke-linecap="square" stroke-linejoin="bevel" d="M43.9428 28.6378C41.8943 32.463 29.4295 36.7759 23.6577 37.4678C21.0453 41.6622 16.8567 45.084 13.6345 45.4228C9.76441 45.8297 1.56259 42.976 0.383247 38.2514C-1.19496 32.1112 2.34944 29.0653 6.47498 26.7684C10.4157 24.9116 14.4872 24.9969 17.652 24.0201C9.32957 16.8271 16.025 4.03713 25.9646 0" sodipodi:nodetypes="ccccccc"/><path id="shape9" transform="translate(214.466769486819, 491.175010274844)" fill="none" stroke="#ff0061" stroke-width="1.125" stroke-linecap="square" stroke-linejoin="bevel" d="M17.7332 0C13.9615 7.01641 5.03611 14.0014 2.067 21.0443C0.722345 24.2339 -0.487092 28.9487 0.197589 32.7779C2.70524 37.1265 9.40247 44.5158 12.846 44.1932C16.7903 42.6329 20.9492 36.269 22.193 31.7835C24.6028 28.3546 27.5111 22.5207 27.9206 18.5783C29.5035 13.2049 29.3048 13.2167 30.7844 8.15731" sodipodi:nodetypes="ccccccc"/><path id="shape10" transform="translate(224.568276219926, 248.382415999387)" fill="none" stroke="#ff0061" stroke-width="1.125" stroke-linecap="square" stroke-linejoin="bevel" d="M0 26.2623C0.79032 19.8773 8.03275 10.314 12.0755 9.18635C19.2494 8.09496 23.6268 10.2872 32.0982 11.3467C36.8129 9.62445 46.6965 3.52153 51.8663 1.56215C55.0296 0.563757 66.2992 -1.62003 70.5604 2.03944C71.2131 4.77234 76.8491 16.4985 79.8677 21.6086C81.6104 25.5002 80.7611 28.594 79.2313 31.4728" sodipodi:nodetypes="ccccccc"/><path id="shape0111" transform="translate(220.248996154942, 271.125731636278)" fill="none" stroke="#ff0061" stroke-width="1.125" stroke-linecap="square" stroke-linejoin="bevel" d="M4.55792 78.5739C2.58843 76.1125 1.46336 72.7453 2.27602 69.0743C3.66302 63.4177 7.16783 56.8107 6.60726 50.9055C5.84328 41.0978 2.20429 33.4712 0.813517 22.9493C-0.787547 14.1618 0.0787236 9.50988 2.50102 6.18679C4.95147 2.09303 14.5089 3.09883 18.8135 2.02428C23.1251 1.09665 29.6078 -1.24841 33.0729 0.84302C36.4572 3.06748 39.4256 6.62825 39.3211 14.815C39.9261 24.9296 37.5697 32.3839 36.0595 41.9016C33.3649 50.56 34.3072 63.0831 34.7071 71.8122C34.6076 75.2812 31.4119 82.532 29.4569 84.9379" sodipodi:nodetypes="ccccccccccc"/><path id="shape1111" transform="translate(218.662424706926, 347.631367126057)" fill="none" stroke="#ff0061" stroke-width="1.125" stroke-linecap="square" stroke-linejoin="bevel" d="M7.69571 1.27279C4.81266 3.09907 2.50116 8.86747 1.13288 12.1711C-0.641797 17.0997 -0.206152 23.4351 1.57041 27.723C1.78147 30.045 3.00618 31.1329 3.36027 32.6551C4.22043 39.2266 4.03744 46.4922 5.38134 51.1249C6.41992 52.7831 9.83256 52.9047 10.6688 51.3499C11.1782 44.9826 9.29389 28.09 9.60009 28.0624C10.7357 33.4417 12.6511 48.6598 13.5028 54.7301C15.1825 56.7308 16.1487 57.1298 17.8781 56.4404C19.8567 54.5833 17.5815 40.0053 17.3626 30.0312C17.5691 30.0101 20.1584 52.3624 20.9805 59.4633C22.9124 63.1402 26.0405 61.6457 27.1456 59.861C27.7628 56.2506 26.5623 44.9105 26.3501 39.1384C26.1789 34.4816 25.193 25.0811 25.6313 25.0249C26.1635 24.9566 31.78 57.853 33.072 61.7702C34.1612 62.805 37.8176 62.7447 38.8501 60.1812C38.5675 55.0578 37.4986 48.2586 37.0501 43.1374C36.6473 38.5377 34.3885 31.5873 35.9813 27.7812C36.357 26.8836 37.8705 27.5826 38.7376 25.4187C36.8737 18.7856 32.7426 8.10552 28.4979 2.54558C26.9169 1.09776 23.4064 0.274854 21.1396 0C17.4458 0.481087 13.7603 0.782166 7.69571 1.27279Z" sodipodi:nodetypes="cccccccccccccccccccccc"/><path id="shape21" transform="translate(253.60384430639, 358.768299191286)" fill="none" stroke="#ff0061" stroke-width="1.125" stroke-linecap="square" stroke-linejoin="bevel" d="M0 0C5.28766 1.87349 8.35573 7.17906 9.8641 11.6142C11.0302 18.2428 13.2352 27.6368 11.6142 32.3766C10.5692 34.5175 7.69855 35.209 6.04575 33.4903C4.94611 32.5695 5.38044 28.2816 6.20485 25.8535C5.55908 22.7002 4.06498 19.1555 2.70468 16.1485" sodipodi:nodetypes="cccccc"/><path id="shape311" transform="translate(487.912517884544, 205.593757536086)" fill="none" stroke="#ff0061" stroke-width="1.125" stroke-linecap="square" stroke-linejoin="bevel" d="M2.41875 0C4.12875 0.855 6.21591 5.89228 3.20625 6.13125C5.20034 6.20061 5.27718 7.95545 6.35625 9.675C5.81257 11.5041 5.81003 13.119 2.19375 11.7C5.48952 13.1393 5.86688 13.2863 6.4125 15.6375C5.64188 18.2588 5.90627 20.1291 3.99375 20.9813C2.81419 18.8522 1.24875 18.0338 0 16.1438" sodipodi:nodetypes="ccccccc"/><path id="shape01111" transform="translate(297.435619317107, 242.70555617451)" fill="none" stroke="#ff0061" stroke-width="1.125" stroke-linecap="square" stroke-linejoin="bevel" d="M0 0C2.32602 4.32446 4.00002 6.99165 5.60825 10.3415C8.90109 14.9281 9.98958 15.5823 13.603 17.7396" sodipodi:nodetypes="ccc"/><path id="shape11111" transform="translate(295.059395083255, 248.484378544876)" fill="none" stroke="#ff0061" stroke-width="1.125" stroke-linecap="square" stroke-linejoin="bevel" d="M0 3.45939C0.978755 2.93064 4.08374 0.360005 5.31561 0" sodipodi:nodetypes="cc"/><path id="shape0111" transform="translate(360.836602656286, 334.107965422487)" fill="none" stroke="#ff0061" stroke-width="1.125" stroke-linecap="square" stroke-linejoin="bevel" d="M62.5009 143.005C64.6902 139.678 66.0456 134.849 66.4238 132.927C66.1735 126.561 64.7465 119.944 62.327 118.091C59.464 113.631 54.0075 108.697 53.0509 101.155C52.221 96.7103 48.6999 71.387 47.7297 66.6625C47.7031 58.8931 32.2418 24.518 19.6384 21.617C16.6902 12.9841 10.3463 4.73502 0 0" sodipodi:nodetypes="ccccccc"/><path id="shape0" transform="translate(260.325792081093, 277.537521078966)" fill="none" stroke="#ff0061" stroke-width="1.125" stroke-linecap="square" stroke-linejoin="bevel" d="M0 7.0111C7.90875 5.16047 14.6444 4.96757 22.443 5.79373C28.4675 6.09566 38.034 4.98941 43.0305 2.3625C45.7305 1.56938 49.3305 0.793122 52.0305 0" sodipodi:nodetypes="cccc"/>
</svg>
