<?xml version="1.0" standalone="no"?>
<!DOCTYPE svg PUBLIC "-//W3C//DTD SVG 20010904//EN" "http://www.w3.org/TR/2001/REC-SVG-20010904/DTD/svg10.dtd">
<!-- Created using Krita: https://krita.org -->
<svg xmlns="http://www.w3.org/2000/svg" 
    xmlns:xlink="http://www.w3.org/1999/xlink"
    xmlns:krita="http://krita.org/namespaces/svg/krita"
    xmlns:sodipodi="http://sodipodi.sourceforge.net/DTD/sodipodi-0.dtd"
    width="675pt"
    height="675pt"
    viewBox="0 0 675 675">
<defs/>
<path id="shape0" transform="translate(171.91361967211, 256.317133274498)" fill="none" stroke="#ff0061" stroke-width="1.125" stroke-linecap="square" stroke-linejoin="bevel" d="M53.8479 6.67357C40.736 -2.17645 26.4806 -1.66434 16.1414 4.92348C5.88567 10.4533 -0.774856 25.571 0.0724343 33.5613C1.0904 52.4684 16.4092 57.7676 26.1647 63.1537C33.0177 65.9331 44.1814 68.1678 49.7113 66.9721C55.9339 64.4939 56.8518 57.3671 57.5867 52.6532M56.1548 50.5849C60.6825 55.578 69.4555 59.5523 77.2355 55.1988C79.0166 61.6961 77.0541 73.2765 77.2355 81.1829C81.8891 89.6819 98.5736 99.4402 108.26 101.019C115.908 100.93 130.917 94.8403 133.557 83.9957" sodipodi:nodetypes="ccccccccccc"/><path id="shape1" transform="translate(231.807278768516, 270.388792221752)" fill="none" stroke="#ff0061" stroke-width="1.125" stroke-linecap="square" stroke-linejoin="bevel" d="M0 0C0.508107 8.33045 5.53537 16.0217 9.94369 21.9557C15.5648 28.3375 21.3169 35.541 24.2626 41.6044" sodipodi:nodetypes="ccc"/><path id="shape2" transform="translate(231.412506445637, 286.650007984192)" fill="none" stroke="#ff0061" stroke-width="1.125" stroke-linecap="square" stroke-linejoin="bevel" d="M0 1.575C2.66625 1.1025 6.22125 0.4725 8.8875 0" sodipodi:nodetypes="cc"/><path id="shape3" transform="translate(294.174096825406, 343.89254207037)" fill="none" stroke="#ff0061" stroke-width="1.125" stroke-linecap="square" stroke-linejoin="bevel" d="M0 9.06864C18.3445 14.9276 28.275 7.22589 34.3654 0" sodipodi:nodetypes="cc"/><path id="shape4" transform="translate(289.43412169628, 298.687498536005)" fill="none" stroke="#ff0061" stroke-width="1.125" stroke-linecap="square" stroke-linejoin="bevel" d="M7.79088 26.775C2.00567 21.4472 -3.19591 12.7122 2.39088 0" sodipodi:nodetypes="cc"/><path id="shape5" transform="translate(301.612501755175, 294.068991014447)" fill="none" stroke="#ff0061" stroke-width="1.125" stroke-linecap="square" stroke-linejoin="bevel" d="M34.2455 38.6071C36.001 27.8048 32.2934 16.0584 26.7679 10.367C21.3201 4.7556 8.71701 -0.196659 0 0.00601067" sodipodi:nodetypes="csc"/><path id="shape6" transform="translate(262.125014648714, 260.325014548122)" fill="none" stroke="#ff0061" stroke-width="1.125" stroke-linecap="square" stroke-linejoin="bevel" d="M55.8 36.7875C50.2313 32.805 44.5649 27.8688 37.2375 23.5125C32.0487 17.7849 25.6255 10.2455 19.4625 6.525C14.3171 3.41888 7.50929 1.24155 0 0" sodipodi:nodetypes="cccc"/><path id="shape7" transform="translate(259.925727228657, 348.974998563129)" fill="none" stroke="#ff0061" stroke-width="1.125" stroke-linecap="square" stroke-linejoin="bevel" d="M31.6743 5.85C32.9005 13.635 31.1284 23.6304 32.5743 31.05C33.395 36.279 38.7903 43.9484 37.4118 48.15C36.0188 52.3957 26.3336 60.034 23.2368 59.175C17.6186 57.2409 15.7002 48.1269 15.0243 37.9125C11.0617 29.151 2.51625 18.407 0.174272 9.45C-0.285573 6.76301 0.164677 2.9941 1.52427 0" sodipodi:nodetypes="ccccccc"/><path id="shape8" transform="translate(291.937521251567, 396.900028892304)" fill="none" stroke="#ff0061" stroke-width="1.125" stroke-linecap="square" stroke-linejoin="bevel" d="M5.4 0C5.4675 2.32875 6.42321 5.7828 5.625 7.7625C4.81548 9.77025 1.6875 11.6213 0 13.275" sodipodi:nodetypes="ccc"/><path id="shape9" transform="translate(284.962520743822, 402.862529326344)" fill="none" stroke="#ff0061" stroke-width="1.125" stroke-linecap="square" stroke-linejoin="bevel" d="M12.9375 0C17.7075 0.225 13.4062 15.1211 11.5875 21.375C8.52008 28.2171 6.19971 37.478 5.4 44.55C5.49332 49.2528 8.31168 54.3942 5.9625 60.3C3.77291 63.2834 2.01375 62.73 0 62.8875" sodipodi:nodetypes="ccccc"/><path id="shape10" transform="translate(273.391885027049, 465.563545079868)" fill="none" stroke="#ff0061" stroke-width="1.125" stroke-linecap="square" stroke-linejoin="bevel" d="M15.5717 0C15.3371 4.82468 13.2358 9.44903 8.88957 10.5403C6.58429 10.8684 -0.73194 8.79022 0.0595779 2.42626" sodipodi:nodetypes="ccc"/><path id="shape11" transform="translate(270.182403741951, 399.497666354321)" fill="none" stroke="#ff0061" stroke-width="1.125" stroke-linecap="square" stroke-linejoin="bevel" d="M6.64991 0C1.0913 2.40873 0.870066 9.3375 0.683696 13.8416C0.24936 22.8483 1.87353 32.0598 1.71784 39.8543C1.27412 46.1383 -0.290232 54.666 0.0473001 60.7758C1.27484 67.0502 3.09186 68.7608 6.96809 69.049" sodipodi:nodetypes="ccccc"/><path id="shape12" transform="translate(252.633872811818, 470.535369026737)" fill="none" stroke="#ff0061" stroke-width="1.125" stroke-linecap="square" stroke-linejoin="bevel" d="M26.5054 5.40937C19.4414 9.8005 9.81212 16.5381 2.95872 20.0465C0.392572 20.7523 -1.06164 18.5612 0.93021 16.1088C7.6953 12.6443 13.9206 6.181 16.8003 0" sodipodi:nodetypes="cccc"/><path id="shape13" transform="translate(247.6485141517, 468.61997176016)" fill="none" stroke="#ff0061" stroke-width="1.125" stroke-linecap="square" stroke-linejoin="bevel" d="M17.6491 8.43847C16.7423 7.56741 15.7036 6.04775 14.6262 5.53492C11.0776 5.25067 3.23585 5.9292 1.1426 3.86438C-0.570513 2.52181 -0.426325 -0.439245 2.04525 0.0550536C5.85645 1.07993 10.6925 0.781834 14.308 1.08014" sodipodi:nodetypes="ccccc"/><path id="shape14" transform="translate(252.092416416815, 462.440427067416)" fill="none" stroke="#ff0061" stroke-width="1.125" stroke-linecap="square" stroke-linejoin="bevel" d="M5.60824 6.3051C3.92577 5.02833 0.250533 4.09089 0 2.0492C0.00387963 1.43546 1.50503 -0.202149 2.74446 0.0206844C5.67278 1.27889 10.0193 3.39358 14.3587 3.56064" sodipodi:nodetypes="cccc"/><path id="shape15" transform="translate(259.393469007155, 461.18832057782)" fill="none" stroke="#ff0061" stroke-width="1.125" stroke-linecap="square" stroke-linejoin="bevel" d="M0.284664 2.73357C-0.134627 1.49944 -0.429243 0.511378 1.96647 0C5.75222 1.54608 8.45373 1.55917 11.234 2.22739" sodipodi:nodetypes="ccc"/><path id="shape16" transform="translate(262.138027661376, 464.062506838573)" fill="none" stroke="#ff0061" stroke-width="1.125" stroke-linecap="square" stroke-linejoin="bevel" d="M0.0151012 9.95625C0.268225 8.48813 -0.490637 6.47159 0.661975 4.92188C2.98473 3.03233 6.19416 1.47656 8.5651 0" sodipodi:nodetypes="ccc"/><path id="shape17" transform="translate(196.875009058674, 200.780521671045)" fill="none" stroke="#ff0061" stroke-width="1.125" stroke-linecap="square" stroke-linejoin="bevel" d="M6.93085 0.00245095C12.4993 -0.0611886 17.9109 1.11472 21.2498 3.50263C26.4681 7.23471 29.1305 17.8044 33.6595 22.9127C39.1699 29.128 49.2464 35.6549 55.2969 40.7318C59.9854 47.1969 65.3693 58.7806 65.3202 66.3467C65.2545 70.9917 59.5212 75.3103 54.8197 76.37C49.3269 78.2185 42.8416 77.2809 36.046 70.9606C31.9576 65.8115 26.8586 58.8534 23.7158 53.2211C21.28 48.8558 19.9025 41.8515 17.0336 37.868C13.1066 32.4152 4.6328 28.326 0 22.532" sodipodi:nodetypes="cccccccccc"/><path id="shape18" transform="translate(121.725007312948, 197.221463306603)" fill="none" stroke="#ff0061" stroke-width="1.125" stroke-linecap="square" stroke-linejoin="bevel" d="M0 12.7035C0.253153 10.9739 0.990405 8.71222 2.7 7.86605C8.26056 7.42453 15.271 8.75491 21.7125 9.66605C28.0106 9.95849 53.0044 1.39992 64.0125 0.103547C70.8086 -0.657183 82.9651 2.88491 85.05 7.07855C89.6051 14.3441 82.1817 25.307 77.625 28.9035C71.0869 33.8069 63.9816 31.5001 56.025 30.9285C47.5281 29.2969 36.3008 28.5362 26.325 31.1535C19.7806 33.1892 5.77968 36.0107 2.025 32.0535" sodipodi:nodetypes="ccccccccc"/><path id="shape19" transform="translate(67.2936439795343, 208.330652883194)" fill="none" stroke="#ff0061" stroke-width="1.125" stroke-linecap="square" stroke-linejoin="bevel" d="M55.9286 1.60052C53.9478 1.19482 51.6642 1.18556 49.3259 0.248178C40.866 -1.00307 32.3698 2.53478 22.7564 9.55547C20.1403 10.5174 17.1773 11.4471 13.9662 12.8965C11.0824 13.4688 6.68266 12.38 4.49979 13.3738C1.59543 15.4533 4.02868 17.7049 4.93732 18.3855C8.07576 20.3884 20.2894 16.4264 22.2393 16.7945C19.6869 17.7375 17.8539 19.0179 15.3981 19.7378C12.0322 20.872 7.53961 21.7007 3.78385 21.6868C0.338354 22.472 -0.25574 25.0921 2.63038 27.0564C6.76508 28.0243 17.3967 25.3211 23.4724 23.238C21.5562 24.709 4.25109 27.9688 0.800743 28.4883C-1.40107 31.5757 1.51752 33.378 2.63038 33.9772C10.6507 34.8727 27.0227 30.2842 31.1887 26.3404C29.4103 28.6098 11.3475 35.3247 5.49417 36.2046C2.89617 39.4054 3.75395 41.2288 7.68761 41.8131C12.6143 40.7784 26.1852 36.3778 28.9613 35.0909C25.8892 36.1203 27.0607 38.351 27.4498 38.9092C28.4844 40.1099 32.3357 39.3098 34.2115 38.7501C40.3948 36.9055 48.9688 31.8087 53.1443 26.9768C54.7857 25.0774 55.5945 21.3527 56.6445 18.9423" sodipodi:nodetypes="ccccccccccccccccccccc"/><path id="shape20" transform="translate(91.5750013386863, 222.187503248041)" fill="none" stroke="#ff0061" stroke-width="1.125" stroke-linecap="square" stroke-linejoin="bevel" d="M0 0C2.05313 7.26188 6.15938 14.0006 9.28125 19.5188" sodipodi:nodetypes="cc"/><path id="shape22" transform="translate(324.90000104146, 376.512457443012)" fill="none" stroke="#ff0061" stroke-width="1.125" stroke-linecap="square" stroke-linejoin="bevel" d="M54.5625 50.425C58.77 47.68 62.2695 42.379 62.775 37.7125C62.521 33.6788 62.644 28.9944 61.3125 25.7875C58.6959 17.9183 54.5646 9.64168 44.55 4.41254C40.6118 2.20353 36.6263 1.43879 30.0375 0.0250439C22.2222 -0.380184 13.7313 4.17154 8.8875 10.825C5.12009 15.4905 2.81985 25.7823 3.2625 31.975C3.39605 33.8435 5.80674 36.2103 5.85 38.05C3.69291 42.4925 0.283435 44.6702 0 53.8C0.112768 56.1432 2.59875 59.155 3.7125 61.45" sodipodi:nodetypes="cccccccccc"/><path id="shape23" transform="translate(329.327451056422, 427.896825277641)" fill="none" stroke="#ff0061" stroke-width="1.125" stroke-linecap="square" stroke-linejoin="bevel" d="M2.47357 0C-2.80056 11.9483 1.11076 21.6856 7.16699 26.5695C4.43902 32.1097 21.2833 37.569 28.0885 40.5703C41.6591 45.2303 57.5996 47.6498 70.1702 50.9117C84.3551 54.3549 97.2347 59.1187 107.956 67.0603C120.556 75.091 129.157 88.776 137.773 97.5344" sodipodi:nodetypes="cccccc"/><path id="shape24" transform="translate(349.537521433918, 417.037525573072)" fill="none" stroke="#ff0061" stroke-width="1.125" stroke-linecap="square" stroke-linejoin="bevel" d="M0 0C5.56363 2.09703 13.5265 4.32116 16.2563 9.39375" sodipodi:nodetypes="cc"/><path id="shape25" transform="translate(360.337522096183, 422.479838479262)" fill="none" stroke="#ff0061" stroke-width="1.125" stroke-linecap="square" stroke-linejoin="bevel" d="M0 3.27644C1.58625 2.29769 3.65836 0.0914774 5.2875 0.0139376C14.6771 -0.432962 28.5088 9.9743 37.4101 15.838C46.1832 21.6172 55.7342 32.5085 64.2375 38.7702C72.7494 45.0382 84.7488 52.7499 94.1289 57.6015C101.283 61.3018 112.528 63.4118 119.025 67.9077C121.664 69.7337 124.262 73.4989 126.506 75.8952" sodipodi:nodetypes="csssssc"/><path id="shape01" transform="translate(466.273940098801, 495.449997282183)" fill="none" stroke="#ff0061" stroke-width="1.125" stroke-linecap="square" stroke-linejoin="bevel" d="M0.29171 32.1188C-0.407164 27.2358 0.19214 19.1059 1.63629 14.4624C3.23688 10.0948 4.83146 2.76777 9.76981 0C17.0428 0.140548 21.1846 4.37384 27.4886 7.03125C36.4965 8.66016 45.1067 6.74476 47.2182 11.1213C49.4556 16.3368 49.2764 22.4768 46.7806 27.8267C45.4414 33.3683 37.8415 38.2453 34.0925 38.3273C28.5643 38.1241 23.9771 53.8483 21.2055 55.3508" sodipodi:nodetypes="cccccccc"/><path id="shape111" transform="translate(463.046894361517, 523.419204848915)" fill="none" stroke="#ff0061" stroke-width="1.125" stroke-linecap="square" stroke-linejoin="bevel" d="M17.5913 40.2687C14.4819 40.5834 7.51894 33.5404 5.06562 26.9308C3.66815 20.9019 -0.123956 9.15916 0.00311757 7.01831C2.35456 1.82212 6.64349 0.187216 10.9156 0.0433086C17.5079 -0.233426 21.8435 0.768413 23.8531 4.43081C24.4381 10.5936 25.5886 18.6802 24.5281 24.4558C24.0438 30.0253 21.9338 39.4426 17.5913 40.2687Z" sodipodi:nodetypes="ccccccc"/><path id="shape21" transform="translate(327.619266857338, 311.039358035806)" fill="none" stroke="#ff0061" stroke-width="1.125" stroke-linecap="square" stroke-linejoin="bevel" d="M7.36373 74.8553C5.17434 71.3986 5.01271 65.239 6.80688 61.5705C3.20504 58.6271 -2.11584 45.473 0.880754 32.7607C2.93454 26.5655 5.85318 21.2498 8.30576 17.2357C12.3611 10.5983 28.6628 3.68208 39.8058 6.09816C39.9444 3.44026 42.1257 0.723339 43.7433 0.135663C54.6799 -0.648432 67.6283 1.98463 68.6058 7.56066C71.8361 8.94427 75.772 11.6557 78.8433 13.4107" sodipodi:nodetypes="cccccccc"/><path id="shape31" transform="translate(402.838738951657, 316.050219165666)" fill="none" stroke="#ff0061" stroke-width="1.125" stroke-linecap="square" stroke-linejoin="bevel" d="M0 8.59135C0.681905 5.05769 3.48069 0.491337 5.64802 0C18.6395 3.74048 29.1369 12.6642 37.3883 19.1714C45.7836 26.6959 53.933 40.2387 60.6167 49.5593C64.8745 57.3579 68.3824 64.9298 74.4583 70.1627C78.9938 74.7969 88.9764 77.7061 92.4365 82.811C91.7307 87.3549 93.9235 91.0417 95.1425 94.1811C95.4705 97.4779 94.8669 101.977 94.7488 105.319" sodipodi:nodetypes="cccccccc"/><path id="shape41" transform="translate(404.437521442944, 353.13751872306)" fill="none" stroke="#ff0061" stroke-width="1.125" stroke-linecap="square" stroke-linejoin="bevel" d="M0 0C0.2025 8.42625 0.0413821 17.6441 4.05 22.8375C8.71865 28.5137 17.0506 33.8455 23.0625 37.9125C31.8588 41.9094 40.8846 46.735 47.475 51.8625C56.0181 57.9153 62.0218 67.504 70.9504 76.1912C73.7536 77.6404 78.1002 78.393 81.0929 77.9015C82.965 76.2573 87.2739 74.632 89.565 73.2479" sodipodi:nodetypes="ccccccc"/><path id="shape51" transform="translate(378.337513208455, 375.918763124012)" fill="none" stroke="#ff0061" stroke-width="1.125" stroke-linecap="square" stroke-linejoin="bevel" d="M0 11.475C5.805 10.8113 16.7769 11.2658 21.4313 9.50625C25.6816 7.79672 28.1756 5.14125 29.8688 0" sodipodi:nodetypes="ccc"/><path id="shape61" transform="translate(384.940093598042, 386.889056667509)" fill="none" stroke="#ff0061" stroke-width="1.125" stroke-linecap="square" stroke-linejoin="bevel" d="M5.84689 0C5.26257 4.8668 2.34554 8.58913 0 11.1767" sodipodi:nodetypes="cc"/><path id="shape011" transform="translate(495.513897730284, 402.042554679691)" fill="none" stroke="#ff0061" stroke-width="1.125" stroke-linecap="square" stroke-linejoin="bevel" d="M0 0.000668813C10.8032 -0.060549 13.3095 4.0923 16.069 7.71698C18.7802 11.5796 21.2173 18.2869 21.1986 22.7575C21.2682 28.565 17.2027 35.2091 13.6825 37.3094" sodipodi:nodetypes="cccc"/><path id="shape1111" transform="translate(481.035898763597, 421.214665776955)" fill="none" stroke="#ff0061" stroke-width="1.125" stroke-linecap="square" stroke-linejoin="bevel" d="M0 10.8187C4.3148 15.4672 6.55935 16.3924 10.9266 16.8603C14.6404 17.2956 20.8181 15.7879 23.1329 14.7791C27.4062 12.5604 31.0665 7.3686 31.6607 0" sodipodi:nodetypes="cccc"/><path id="shape211" transform="translate(475.425002231651, 430.650002021477)" fill="none" stroke="#ff0061" stroke-width="1.125" stroke-linecap="square" stroke-linejoin="bevel" d="M0 0C1.87846 3.69907 3.4897 6.30807 6.80414 8.38375C9.53694 10.0951 18.1201 12.401 21.4413 12.8385" sodipodi:nodetypes="ccc"/><path id="shape311" transform="translate(487.454392248981, 435.971104202507)" fill="none" stroke="#ff0061" stroke-width="1.125" stroke-linecap="square" stroke-linejoin="bevel" d="M0.0250183 5.76734C-0.376707 12.4813 4.14758 14.8034 7.26403 16.3475C9.92299 17.6648 17.334 18.4354 21.2647 14.478C23.7645 12.7224 25.3768 10.6413 26.6144 7.75702C28.3126 3.16791 25.9547 1.21598 23.2137 0" sodipodi:nodetypes="ccccc"/><path id="shape411" transform="translate(479.870683062448, 439.630388878546)" fill="none" stroke="#ff0061" stroke-width="1.125" stroke-linecap="square" stroke-linejoin="bevel" d="M2.6369 0C-1.08266 4.63996 -0.731184 8.98102 2.83577 12.2904C8.93402 17.7763 13.9969 15.2714 16.2399 19.4101C19.7874 22.8115 19.048 28.0457 19.7798 32.2176C21.1132 35.9163 27.6988 35.5772 30.2804 33.0131C32.6858 29.5647 37.1872 23.5107 39.1481 22.4071C38.3055 20.3315 32.3254 11.8245 30.4394 9.2675" sodipodi:nodetypes="ccccccc"/><path id="shape01" transform="translate(483.693781314444, 549.225035556953)" fill="none" stroke="#ff0061" stroke-width="1.125" stroke-linecap="square" stroke-linejoin="bevel" d="M0 5.7375C1.3245 4.50846 3.90675 1.22904 5.23125 0" sodipodi:nodetypes="cc"/><path id="shape0" transform="translate(503.160231553593, 463.556277088046)" fill="none" stroke="#ff0061" stroke-width="1.125" stroke-linecap="square" stroke-linejoin="bevel" d="M16.0554 0C18.1025 3.8913 21.1446 8.73608 21.3495 15.8091C20.7892 20.6978 20.3439 23.0201 19.0085 25.3688C18.1125 27.731 15.0172 27.8861 13.5523 27.6188C9.25653 25.692 3.34679 19.6035 0.446048 15.3563C-0.0592587 14.2901 -0.1088 12.3634 0.164798 11.1375" sodipodi:nodetypes="cccccc"/>
</svg>
