<?xml version="1.0" standalone="no"?>
<!DOCTYPE svg PUBLIC "-//W3C//DTD SVG 20010904//EN" "http://www.w3.org/TR/2001/REC-SVG-20010904/DTD/svg10.dtd">
<!-- Created using Krita: https://krita.org -->
<svg xmlns="http://www.w3.org/2000/svg" 
    xmlns:xlink="http://www.w3.org/1999/xlink"
    xmlns:krita="http://krita.org/namespaces/svg/krita"
    xmlns:sodipodi="http://sodipodi.sourceforge.net/DTD/sodipodi-0.dtd"
    width="675pt"
    height="675pt"
    viewBox="0 0 675 675">
<defs/>
<path id="shape0" transform="translate(309.937509549552, 179.212505521755)" fill="none" stroke="#ff0061" stroke-width="1.125" stroke-linecap="square" stroke-linejoin="bevel" d="M11.1375 54.9C9.77457 52.3486 6.02686 41.3159 4.5 35.325C3.79744 27.7129 1.54377 15.5987 0 9.45C4.51011 6.11485 10.3202 1.81211 12.9375 0C13.837 0.913937 14.4949 1.8905 14.7375 2.8125C16.8949 17.4485 14.3388 47.8167 11.1375 54.9Z" sodipodi:nodetypes="cccccc"/><path id="shape1" transform="translate(325.755245684173, 177.992029845748)" fill="none" stroke="#ff0061" stroke-width="1.125" stroke-linecap="square" stroke-linejoin="bevel" d="M0 9.30729C1.56315 6.5151 3.90497 2.0697 5.21049 0C11.229 0.333942 19.043 0.533887 23.7853 0.954594C25.5773 2.75787 28.1009 5.52074 29.9504 7.47765" sodipodi:nodetypes="cccc"/><path id="shape2" transform="translate(323.28923381481, 183.202535796139)" fill="none" stroke="#ff0061" stroke-width="1.125" stroke-linecap="square" stroke-linejoin="bevel" d="M0 44.0704C2.11602 43.2511 4.11882 40.6857 4.93207 38.8202C5.85717 31.1361 6.16619 19.135 6.92081 9.62549C9.43114 6.82468 12.0593 2.62527 14.2108 0C18.7643 0.234613 26.4574 1.26996 31.4233 2.70373C37.4331 2.99607 45.5195 1.87685 51.5608 1.52248" sodipodi:nodetypes="cccccc"/><path id="shape3" transform="translate(352.350025616034, 165.375012022851)" fill="none" stroke="#ff0061" stroke-width="1.125" stroke-linecap="square" stroke-linejoin="bevel" d="M0 16.0875C29.9475 13.2863 50.9141 5.92049 69.075 0C74.2897 2.76205 80.3469 7.09935 84.15 11.025C86.0613 24.2572 88.9022 37.699 89.1 49.1625C90.241 64.5755 89.4621 85.4577 84.2177 100.639C87.2376 111.544 90.1058 127.384 91.5363 138.981C92.2546 144.805 92.8602 152.823 92.65 158.551C95.624 171.192 102.52 186.452 108.9 196.65" sodipodi:nodetypes="cccccccc"/><path id="shape4" transform="translate(325.437052824819, 198.900007534194)" fill="none" stroke="#ff0061" stroke-width="1.125" stroke-linecap="square" stroke-linejoin="bevel" d="M0 27.2593C3.50638 28.7883 9.23573 29.1378 12.0629 29.1684C15.1991 27.7586 15.205 20.0611 15.5122 15.7246C28.8324 17.1518 50.0315 7.19237 64.8255 0" sodipodi:nodetypes="cccc"/><path id="shape5" transform="translate(388.800009717144, 179.887504495866)" fill="none" stroke="#ff0061" stroke-width="1.125" stroke-linecap="square" stroke-linejoin="bevel" d="M4.3875 1.2375C4.25461 8.03229 1.7524 19.372 0 23.85C2.63115 22.884 4.67257 21.3307 6.1875 20.1375C8.91441 14.8285 13.5789 4.07184 14.85 0C12.4567 0.240899 8.8954 0.704161 4.3875 1.2375Z" sodipodi:nodetypes="ccccc"/><path id="shape6" transform="translate(403.793317788381, 174.84982515738)" fill="none" stroke="#ff0061" stroke-width="1.125" stroke-linecap="square" stroke-linejoin="bevel" d="M0 6.36396C9.24365 6.28441 19.5251 2.99322 26.5695 0C28.4983 2.04758 30.5788 3.78656 32.2971 5.40937" sodipodi:nodetypes="ccc"/><path id="shape7" transform="translate(375.35056989195, 191.137508780839)" fill="none" stroke="#ff0061" stroke-width="1.125" stroke-linecap="square" stroke-linejoin="bevel" d="M0.286947 14.5125C0.286947 17.3813 -0.358684 22.1872 0.286947 24.075C2.9757 25.5389 8.0778 25.2937 11.0869 24.525C14.852 23.5632 19.8882 20.3582 22.6744 17.55C27.1589 14.4042 34.1098 11.9439 36.8494 9.7875C36.0415 7.53278 33.4632 2.93625 32.0119 0" sodipodi:nodetypes="cccccc"/><path id="shape8" transform="translate(413.180168740267, 179.463700554109)" fill="none" stroke="#ff0061" stroke-width="1.125" stroke-linecap="square" stroke-linejoin="bevel" d="M0 17.8191C0.811405 12.4734 1.63978 1.99448 2.70468 0C4.55524 3.90618 7.42636 11.7681 9.22774 17.5804C9.46039 21.9944 8.35488 27.6554 5.40937 32.5358" sodipodi:nodetypes="cccc"/><path id="shape9" transform="translate(371.416683070405, 210.169817235384)" fill="none" stroke="#ff0061" stroke-width="1.125" stroke-linecap="square" stroke-linejoin="bevel" d="M3.97748 4.93207C2.78423 6.93672 1.45878 10.018 0 11.6142C1.77091 14.5212 10.705 16.7235 15.0349 16.6258C18.8999 15.4227 24.0221 14.1069 26.8877 12.0915C25.8563 9.57149 26.2195 3.62746 25.9331 0" sodipodi:nodetypes="ccccc"/><path id="shape10" transform="translate(366.484608053961, 222.420439357255)" fill="none" stroke="#ff0061" stroke-width="1.125" stroke-linecap="square" stroke-linejoin="bevel" d="M4.77297 0C3.34108 1.59895 1.14169 3.64627 0 5.32982C0.740045 7.3635 3.89196 11.4082 5.09117 12.7279C7.53997 11.1756 9.26752 6.04576 11.0574 3.18198" sodipodi:nodetypes="cccc"/><path id="shape11" transform="translate(366.097558512765, 226.743767172896)" fill="none" stroke="#ff0061" stroke-width="1.125" stroke-linecap="square" stroke-linejoin="bevel" d="M4.70247 8.2125C1.86393 13.8488 -0.639362 22.9494 0.146219 28.8563C1.77267 34.431 5.01672 42.9105 9.20247 46.1813C13.0553 46.4884 17.7752 43.9901 20.9025 42.1313C23.9385 39.0253 29.2864 34.4318 31.7587 32.2313C29.7129 29.1393 25.3911 24.675 23.6025 20.9813C22.5065 17.5037 21.7522 13.1635 20.2275 9C20.3438 6.26123 21.0676 2.56137 21.015 0" sodipodi:nodetypes="cccccccc"/><path id="shape12" transform="translate(414.787530965028, 200.925014999604)" fill="none" stroke="#ff0061" stroke-width="1.125" stroke-linecap="square" stroke-linejoin="bevel" d="M0 0C0.961847 4.33205 2.36229 11.9065 1.35 14.175C4.77236 13.0386 12.3132 3.71802 14.5125 2.025C14.4707 6.01572 14.4951 10.6294 13.3875 13.95C11.4962 19.6199 5.90625 26.1563 2.7 31.3875" sodipodi:nodetypes="ccccc"/><path id="shape13" transform="translate(425.589911674547, 207.833378137178)" fill="none" stroke="#ff0061" stroke-width="1.125" stroke-linecap="square" stroke-linejoin="bevel" d="M4.69342 2.25689C6.45147 0.809093 9.65279 -0.696737 11.6142 0.347706C14.0681 1.48493 15.0416 6.42799 14.6371 8.7004C14.2489 10.8813 11.0455 13.2731 9.14819 15.2235C8.42798 21.8127 4.17635 27.6809 0 32.5653" sodipodi:nodetypes="ccccc"/><path id="shape14" transform="translate(427.260451514765, 211.624579940451)" fill="none" stroke="#ff0061" stroke-width="1.125" stroke-linecap="square" stroke-linejoin="bevel" d="M4.3752 1.09082C6.28439 0.0487171 8.10245 -0.617966 9.62549 0.852178C11.0785 2.57008 9.77617 5.55884 8.27315 6.97749C3.3485 7.47712 2.48194 17.1678 0 21.5351" sodipodi:nodetypes="cccc"/><path id="shape15" transform="translate(410.231275176492, 224.170529553792)" fill="none" stroke="#ff0061" stroke-width="1.125" stroke-linecap="square" stroke-linejoin="bevel" d="M6.76728 0C4.73709 4.24822 2.48111 10.1411 0 14.1607C0.550773 16.0956 1.51148 19.0487 2.1375 20.067C4.80613 20.0784 7.68938 19.9095 10.0688 19.842" sodipodi:nodetypes="cccc"/><path id="shape16" transform="translate(376.312517431347, 273.375012663131)" fill="none" stroke="#ff0061" stroke-width="1.125" stroke-linecap="square" stroke-linejoin="bevel" d="M0 0C3.40313 4.21313 7.45313 3.21188 12.6563 2.41875" sodipodi:nodetypes="cc"/><path id="shape17" transform="translate(381.206267658032, 276.69376281686)" fill="none" stroke="#ff0061" stroke-width="1.125" stroke-linecap="square" stroke-linejoin="bevel" d="M0 0C2.33966 8.37951 8.10461 14.0589 11.6438 19.1813C15.8857 22.6064 21.645 25.9538 25.9313 28.8563" sodipodi:nodetypes="ccc"/><path id="shape18" transform="translate(399.135373612016, 301.837499879532)" fill="none" stroke="#ff0061" stroke-width="1.125" stroke-linecap="square" stroke-linejoin="bevel" d="M1.70213 0C1.19588 6.6825 -0.154961 15.6097 0.0146262 22.275C0.163567 28.1289 0.547419 36.3296 2.48963 41.7375C5.80173 48.6199 11.655 58.6202 15.2021 61.875C21.5593 62.0717 27.0304 59.8469 32.0771 59.9625C39.4847 64.4133 47.0514 64.0281 54.5771 63.5625C61.2241 60.9335 68.5339 58.2679 73.8146 54.9C81.1814 50.2017 88.821 40.2691 95.5035 34.4978" sodipodi:nodetypes="cccccccc"/><path id="shape19" transform="translate(345.825010677997, 251.8875077775)" fill="none" stroke="#ff0061" stroke-width="1.125" stroke-linecap="square" stroke-linejoin="bevel" d="M20.25 0C14.175 6.075 5.0446 13.8353 0 20.25C8.47344 31.0667 23.5498 48.3861 35.2125 60.075C39.0623 68.5783 43.7428 81.0887 48.375 89.775C51.642 93.347 56.25 97.2562 59.625 100.462" sodipodi:nodetypes="ccccc"/><path id="shape20" transform="translate(441.562513025031, 211.61250624206)" fill="none" stroke="#ff0061" stroke-width="1.125" stroke-linecap="square" stroke-linejoin="bevel" d="M0 0C1.35 6.75 3.29385 15.7698 4.5 22.5C12.4438 34.9474 19.2812 51.4972 23.0862 63.1515C22.4154 88.4095 18.353 119.838 16.3245 144.133" sodipodi:nodetypes="cccc"/><path id="shape21" transform="translate(442.68749951969, 207.562499774797)" fill="none" stroke="#ff0061" stroke-width="1.125" stroke-linecap="square" stroke-linejoin="bevel" d="M0 7.3125C11.9475 5.11875 28.3189 0.278005 39.825 0C46.7399 2.24067 54.0787 6.4575 60.1875 9.225" sodipodi:nodetypes="ccc"/><path id="shape22" transform="translate(501.412501132983, 179.100000404691)" fill="none" stroke="#ff0061" stroke-width="1.125" stroke-linecap="square" stroke-linejoin="bevel" d="M0 43.875C1.65375 39.7238 3.66491 33.7205 5.95428 30.1948C14.156 23.352 22.9208 18.7575 33.1875 15.1875C35.5754 13.4135 38.5116 10.3358 40.5563 8.4375C60.1284 6.50407 86.9486 3.41408 95.9625 0C97.7321 1.28753 99.9794 2.67137 100.913 4.275C103.568 11.3332 105.071 20.4741 105.525 27.5625C105.39 30.9362 104.578 36.8881 102.375 38.7C92.0251 41.0482 78.6347 40.6514 63.7875 41.85C60.4397 44.7306 57.436 46.9901 52.7625 48.6C49.3793 55.322 41.3671 61.777 35.325 65.5875C26.279 71.2925 11.385 74.4075 1.125 78.1875" sodipodi:nodetypes="cccccccccccc"/><path id="shape23" transform="translate(603.393777529941, 156.821590389852)" fill="none" stroke="#ff0061" stroke-width="1.125" stroke-linecap="square" stroke-linejoin="bevel" d="M0 30.1534C4.48313 28.2803 7.96416 25.5297 8.94375 21.6597C13.0024 17.4314 28.0032 15.0106 31.725 12.6034C32.6374 11.695 33.7024 9.41709 33.4688 8.27217C33.1423 6.67263 29.4251 5.28675 28.8563 3.65967C28.9163 1.70075 32.0931 -0.0888255 33.3563 0.00341677C36.2017 1.18032 39.4956 4.72797 41.4 8.27217C39.9285 12.8558 38.9932 21.6557 38.6504 22.4035C38.7002 22.4197 41.5324 14.801 42.6375 11.8722C45.881 10.3787 47.3138 15.0342 47.7 16.8784C46.8506 19.5503 44.8829 24.9371 45.1688 25.0347C45.4299 25.1238 48.2776 19.4972 49.5562 19.3534C50.6558 19.2298 52.3755 22.8578 52.4812 24.5847C51.4105 28.0024 46.7139 32.2068 45.3375 35.8347C46.5845 34.4961 51.8333 31.8868 52.9313 32.5722C53.9956 33.2366 54.1052 39.713 53.1 41.2909C50.493 42.8777 44.3048 44.7006 40.5 45.3972C38.0374 47.0205 32.6531 47.4222 27.8438 44.8347" sodipodi:nodetypes="cccccccccccccccccc"/><path id="shape24" transform="translate(606.937510018884, 198.913553694302)" fill="none" stroke="#ff0061" stroke-width="1.125" stroke-linecap="square" stroke-linejoin="bevel" d="M0 5.4427C4.5225 7.4002 11.1892 11.7313 15.075 11.9677C18.9092 10.2235 23.9639 4.54696 24.9469 2.99583C22.719 1.07387 19.286 0.191692 16.2534 0C12.0174 1.8018 6.36934 4.20419 2.13333 6.00599" sodipodi:nodetypes="ccccc"/><path id="shape25" transform="translate(534.413650248557, 246.126203314831)" fill="none" stroke="#ff0061" stroke-width="1.125" stroke-linecap="square" stroke-linejoin="bevel" d="M0 0C3.15016 6.8333 6.67844 16.5167 8.11405 24.1035C5.57191 30.1368 2.76832 36.2984 0.477297 41.5248" sodipodi:nodetypes="ccc"/><path id="shape26" transform="translate(451.800014121921, 262.575002499849)" fill="none" stroke="#ff0061" stroke-width="1.125" stroke-linecap="square" stroke-linejoin="bevel" d="M88.9875 0C97.7575 5.28433 103.738 15.1213 108.675 20.5313C108.306 28.4846 108.781 40.2342 105.637 47.25C85.4784 69.6564 61.0512 97.0567 41.5125 119.025C45.7211 127.867 48.702 144.183 49.6125 151.763C43.8767 154.251 37.8223 156.295 31.5 158.288C23.35 157.471 18.1199 156.843 6.075 155.813C3.82637 153.657 1.25567 150.782 0 148.725C2.47611 142.431 10.9463 132.424 15.6375 125.438" sodipodi:nodetypes="ccccccccc"/><path id="shape27" transform="translate(418.612522884041, 363.712519882856)" fill="none" stroke="#ff0061" stroke-width="1.125" stroke-linecap="square" stroke-linejoin="bevel" d="M0 0C5.50747 8.06249 14.7088 19.944 23.0625 25.0875C29.4831 28.0627 38.34 28.5525 44.8875 30.0375" sodipodi:nodetypes="ccc"/><path id="shape28" transform="translate(461.700002124399, 362.025001665769)" fill="none" stroke="#ff0061" stroke-width="1.125" stroke-linecap="square" stroke-linejoin="bevel" d="M0 24.075C1.08 21.7463 3.23967 18.7477 3.6 16.3125C2.86187 11.4647 1.98563 4.89375 1.29375 0" sodipodi:nodetypes="ccc"/><path id="shape29" transform="translate(513.900026425475, 305.470139952402)" fill="none" stroke="#ff0061" stroke-width="1.125" stroke-linecap="square" stroke-linejoin="bevel" d="M44.8558 0C43.8057 7.97086 44.7096 19.7282 41.3556 26.5695C38.3847 32.6294 30.6077 40.8084 24.975 42.6049C17.9092 43.5502 7.39506 50.4924 0 53.5174" sodipodi:nodetypes="cccc"/><path id="shape30" transform="translate(419.862330435218, 418.032677059906)" fill="none" stroke="#ff0061" stroke-width="1.125" stroke-linecap="square" stroke-linejoin="bevel" d="M60.5689 3.72982C62.9723 8.05765 65.3387 7.61884 68.6689 6.93607C71.8564 5.87883 74.1032 4.4587 73.8219 0C74.8832 4.52986 77.2649 9.73265 77.4812 10.7392C72.4593 20.1246 67.168 30.6393 65.3102 42.6386C63.6295 48.1983 56.3626 51.0939 50.5935 52.1049C51.1036 49.9528 52.4606 42.4326 48.207 42.559C45.0898 43.1114 42.8199 49.6395 42.9567 53.6164C33.3396 57.333 18.3094 59.2474 10.1823 55.8438C6.71024 53.7748 0.767616 47.4792 0 43.9909C3.99991 38.5551 10.5586 29.9148 14.2394 23.1489C15.1952 16.6783 22.6081 11.1024 27.4446 9.30731C30.2762 10.5597 38.3046 11.1562 42.7976 10.8187C47.4692 9.84656 54.9081 4.84338 57.9916 2.46606" sodipodi:nodetypes="cccccccccccccc"/><path id="shape31" transform="translate(434.101676804815, 441.340682227069)" fill="none" stroke="#ff0061" stroke-width="1.125" stroke-linecap="square" stroke-linejoin="bevel" d="M0 0C1.58873 4.06716 4.19421 6.20807 6.04576 7.5572C12.4472 8.93246 18.1293 7.947 23.308 8.11405" sodipodi:nodetypes="ccc"/><path id="shape32" transform="translate(429.806010867217, 448.897893637554)" fill="none" stroke="#ff0061" stroke-width="1.125" stroke-linecap="square" stroke-linejoin="bevel" d="M0 24.5808C3.10243 17.2066 7.23901 7.37424 10.3414 0" sodipodi:nodetypes="cc"/><path id="shape33" transform="translate(495.000002350429, 372.132638423945)" fill="none" stroke="#ff0061" stroke-width="1.125" stroke-linecap="square" stroke-linejoin="bevel" d="M0 12.8986C3.5003 15.9919 5.03405 18.1926 8.26877 21.6736C14.3417 29.0049 18.8376 38.9284 21.3188 43.3861C23.0935 44.4476 24.2704 44.7361 25.9875 45.2424C29.4229 38.3344 35.1946 14.17 35.7544 6.04576C29.6384 2.33089 15.5965 1.81373 6.95745 0" sodipodi:nodetypes="cccccc"/><path id="shape34" transform="translate(528.129196885968, 388.440257327034)" fill="none" stroke="#ff0061" stroke-width="1.125" stroke-linecap="square" stroke-linejoin="bevel" d="M2.54558 0C6.02183 1.58625 14.2926 5.6953 15.9099 7.23901C15.3061 10.0296 10.4096 17.0313 6.20486 16.7054C4.80611 16.0078 1.78875 12.8244 0 11.1369" sodipodi:nodetypes="cccc"/><path id="shape35" transform="translate(511.845857060259, 395.326117764508)" fill="none" stroke="#ff0061" stroke-width="1.125" stroke-linecap="square" stroke-linejoin="bevel" d="M31.9546 0.432694C37.3321 -0.53781 40.5937 -0.589425 43.1711 8.149C48.5389 16.4251 53.3083 24.8849 59.7174 30.3433C59.75 35.1885 53.2112 42.6492 47.9542 46.5739C45.9999 45.1692 42.5004 39.3919 38.3917 40.4989C34.1399 42.7016 38.3414 50.356 40.3042 53.3239C34.7559 60.3719 11.8888 62.7386 3.06668 58.8364C3.19341 54.8796 3.68011 52.7621 4.23162 47.3272C3.34571 42.6539 1.07314 37.5762 0.0291814 34.1989C-0.158282 30.9978 0.521514 26.3048 3.11791 25.2522C5.15624 24.3006 8.19592 25.249 10.8292 24.5801C18.0033 22.1777 22.2895 16.7363 21.2917 8.94264" sodipodi:nodetypes="cccccccccccc"/><path id="shape36" transform="translate(512.85572809926, 403.713792477702)" fill="none" stroke="#ff0061" stroke-width="1.125" stroke-linecap="square" stroke-linejoin="bevel" d="M41.843 0C39.7986 6.28441 36.8635 7.71211 32.9943 12.4237C28.6757 16.0191 21.371 24.3229 18.313 28.905C13.1716 30.1855 6.40426 30.3884 0 28.8765" sodipodi:nodetypes="cccc"/>
</svg>
