<?xml version="1.0" standalone="no"?>
<!DOCTYPE svg PUBLIC "-//W3C//DTD SVG 20010904//EN" "http://www.w3.org/TR/2001/REC-SVG-20010904/DTD/svg10.dtd">
<!-- Created using Krita: https://krita.org -->
<svg xmlns="http://www.w3.org/2000/svg" 
    xmlns:xlink="http://www.w3.org/1999/xlink"
    xmlns:krita="http://krita.org/namespaces/svg/krita"
    xmlns:sodipodi="http://sodipodi.sourceforge.net/DTD/sodipodi-0.dtd"
    width="675pt"
    height="675pt"
    viewBox="0 0 675 675">
<defs/>
<path id="shape1" transform="translate(246.762594430902, 113.788075720486)" fill="none" stroke="#ff0061" stroke-width="1.125" stroke-linecap="square" stroke-linejoin="bevel" d="M43.1556 46.3848C45.0409 42.7216 47.035 39.9165 48.5252 36.2423C48.1775 27.2225 45.9249 16.5165 41.5248 7.44539C35.798 0.779034 34.8727 1.55783 31.1039 0.126828C24.2275 -0.469541 14.0481 1.01467 7.95495 5.0589C5.6427 6.85654 3.3259 9.35156 1.35615 11.7056C0.646823 16.0503 0.312752 20.2021 0 23.9121C4.48863 35.1379 6.87189 38.4724 15.7508 46.9019C20.7017 48.0653 25.2913 48.4874 29.672 48.8907C33.5584 47.6031 38.677 42.7653 40.4907 38.1515" sodipodi:nodetypes="cccccccccc"/><path id="shape2" transform="translate(253.95386605463, 127.201249271669)" fill="none" stroke="#ff0061" stroke-width="1.125" stroke-linecap="square" stroke-linejoin="bevel" d="M34.3836 39.6363C36.0908 33.761 31.4551 13.4827 27.1343 6.3226C26.0367 4.37496 24.2432 1.27349 22.4011 0.435939C18.7287 -0.947523 5.72807 1.21215 3.61489 3.41126C-2.43446 8.03467 0.259334 15.932 3.38989 23.3237C6.67786 27.0762 14.6676 31.8259 19.2524 31.5362C21.5151 31.3933 25.2703 28.5948 26.5087 26.53C28.8157 20.7714 24.6974 6.06063 23.4149 1.72376" sodipodi:nodetypes="cccccccc"/><path id="shape3" transform="translate(236.667333131226, 120.040217008117)" fill="none" stroke="#ff0061" stroke-width="1.125" stroke-linecap="square" stroke-linejoin="bevel" d="M15.6637 0C10.9942 2.39444 4.67913 6.20275 0.628867 9.70504C0.162972 14.3956 -0.224982 20.3798 0.15157 24.8194C5.24432 39.4331 15.029 46.3217 21.0731 51.3094C28.0519 52.5306 34.3352 53.4297 39.8014 54.841C43.0507 52.754 47.7632 49.0201 50.7702 47.1348" sodipodi:nodetypes="cccccc"/><path id="shape01" transform="translate(232.841420914875, 146.609757287818)" fill="none" stroke="#ff0061" stroke-width="1.125" stroke-linecap="square" stroke-linejoin="bevel" d="M4.29569 0C4.11628 1.8876 8.91728 18.5203 3.97749 27.5241C2.77557 43.3781 0.00680223 56.4739 0 58.3893C6.51853 53.7478 25.4608 54.804 31.0244 49.6389C34.4413 43.737 41.3792 45.1061 44.7467 47.6899C49.8748 48.856 59.6292 45.6801 63.2022 44.2295C62.7129 42.2965 56.0978 21.5983 55.6086 19.6652" sodipodi:nodetypes="ccccccc"/><path id="shape5" transform="translate(265.500004181337, 194.540776901896)" fill="none" stroke="#ff0061" stroke-width="1.125" stroke-linecap="square" stroke-linejoin="bevel" d="M0 9.75922C1.05739 11.1786 3.21999 12.203 4.8375 13.4717C8.70553 12.9967 11.6099 12.7715 14.2313 11.3342C14.792 10.4072 15.0196 8.47926 15.3563 7.17172C13.5309 5.29249 11.3773 2.32175 9.28125 0.309224C7.20133 -0.42839 3.81697 0.198065 2.75625 1.71547C1.75131 4.29374 1.19129 6.86616 0 9.75922Z" sodipodi:nodetypes="ccccccc"/><path id="shape6" transform="translate(239.682681378225, 190.839287679071)" fill="none" stroke="#ff0061" stroke-width="1.125" stroke-linecap="square" stroke-linejoin="bevel" d="M0 11.5347C0.986414 15.2894 2.11698 21.8851 1.43189 23.3875C7.33412 21.5516 23.4214 13.0351 25.9331 11.296C34.1986 13.8618 38.295 10.9555 39.9339 8.94932C43.2531 9.55892 58.5066 11.2485 60.577 9.98346C59.2673 8.37387 56.697 3.95129 56.4404 0" sodipodi:nodetypes="cccccc"/><path id="shape8" transform="translate(259.48125952197, 184.44375676838)" fill="none" stroke="#ff0061" stroke-width="1.125" stroke-linecap="square" stroke-linejoin="bevel" d="M9 21.8813C9.7425 19.2319 12.1315 16.5613 11.475 13.05C8.78663 10.3724 4.27777 4.94914 0 0" sodipodi:nodetypes="ccc"/><path id="shape9" transform="translate(272.934370383316, 183.679819648813)" fill="none" stroke="#ff0061" stroke-width="1.125" stroke-linecap="square" stroke-linejoin="bevel" d="M3.10243 22.9898C2.42228 20.2215 1.26169 16.5689 0.83527 13.7621C0.216541 9.68938 0.250581 4.12862 0 0" sodipodi:nodetypes="csc"/><path id="shape10" transform="translate(221.142297395085, 174.487510979321)" fill="none" stroke="#ff0061" stroke-width="1.125" stroke-linecap="square" stroke-linejoin="bevel" d="M14.9952 0C8.44349 1.37804 4.87522 2.50939 0.00534747 8.55592C-0.192602 18.1646 5.161 34.5942 6.78272 39.15C8.05148 41.303 11.5865 43.0875 13.6452 44.775" sodipodi:nodetypes="cccc"/><path id="shape111" transform="translate(233.159617576673, 205.078640093028)" fill="none" stroke="#ff0061" stroke-width="1.125" stroke-linecap="square" stroke-linejoin="bevel" d="M9.55914 36.7964C4.36544 25.5024 4.05013 23.6629 2.62514 18.2964C2.139 11.9675 0.76695 3.4361 0 0" sodipodi:nodetypes="ccc"/><path id="shape12" transform="translate(246.71669860931, 210.726657639858)" fill="none" stroke="#ff0061" stroke-width="1.125" stroke-linecap="square" stroke-linejoin="bevel" d="M3.62561 0C2.21758 6.46738 -2.69062 20.2454 1.95507 31.5016" sodipodi:nodetypes="cc"/><path id="shape13" transform="translate(231.072655712469, 217.125009910806)" fill="none" stroke="#ff0061" stroke-width="1.125" stroke-linecap="square" stroke-linejoin="bevel" d="M0.00235482 0C-0.111343 12.6692 3.90838 19.2287 8.55236 19.7438" sodipodi:nodetypes="cc"/><path id="shape14" transform="translate(288.844276041655, 164.587939171078)" fill="none" stroke="#ff0061" stroke-width="1.125" stroke-linecap="square" stroke-linejoin="bevel" d="M13.3643 42.1612C15.0645 35.2975 8.1569 12.8063 8.59135 2.78423C6.32681 2.62454 2.76511 0.750061 0 0" sodipodi:nodetypes="ccc"/><path id="shape15" transform="translate(255.194829881915, 202.500012752264)" fill="none" stroke="#ff0061" stroke-width="1.125" stroke-linecap="square" stroke-linejoin="bevel" d="M40.7365 0C52.3071 7.20698 57.3102 18.4556 57.3552 27.2389C53.4114 32.6256 32.7218 32.3693 27.5739 33.3562C20.2206 34.7659 7.20719 38.352 0 40.5237" sodipodi:nodetypes="cccc"/><path id="shape16" transform="translate(263.62708419875, 231.215637758456)" fill="none" stroke="#ff0061" stroke-width="1.125" stroke-linecap="square" stroke-linejoin="bevel" d="M47.6604 0C45.9537 4.53683 41.9604 9.43864 31.263 9.26254C20.7711 9.53786 7.6275 13.8715 0 16.2629" sodipodi:nodetypes="ccc"/><path id="shape17" transform="translate(199.828373022034, 242.662500095488)" fill="none" stroke="#ff0061" stroke-width="1.125" stroke-linecap="square" stroke-linejoin="bevel" d="M0 37.8291C9.03649 28.6066 21.5233 16.7826 30.1216 7.0875C34.8662 3.27009 40.9031 0.147105 45.7591 0C51.7516 0.651095 57.9775 0.700222 61.7341 2.25C63.9908 3.97218 62.3441 9.95194 59.8216 11.1375C50.7618 7.88154 46.2455 7.78662 32.9341 12.9375C34.6826 14.6227 46.1187 17.2209 47.1091 20.475C47.7288 21.5307 46.8247 25.7738 44.5216 25.3125C40.0613 22.2612 29.2915 20.3625 29.1091 20.8125C28.9559 21.1905 41.3965 24.4945 42.2806 27.249C43.5184 28.6577 41.1568 31.6115 39.9736 32.1811C37.994 30.3969 28.1533 26.7323 28.0014 27.1694C27.8741 27.5359 39.7974 34.0505 38.5029 36.2813C36.602 38.7378 32.7229 35.1424 28.956 33.7721" sodipodi:nodetypes="cccccccccccccc"/><path id="shape18" transform="translate(167.850004324552, 246.262506344802)" fill="none" stroke="#ff0061" stroke-width="1.125" stroke-linecap="square" stroke-linejoin="bevel" d="M58.8375 6.1875C43.7063 2.26125 10.0216 0.645171 0 0C0.772844 6.62076 4.28096 26.4211 7.425 31.5C12.994 39.2381 19.8587 50.4288 24.075 60.75C35.2951 40.7276 51.9152 35.6127 59.5125 34.5375" sodipodi:nodetypes="ccccc"/><path id="shape19" transform="translate(307.125009481694, 238.275007356127)" fill="none" stroke="#ff0061" stroke-width="1.125" stroke-linecap="square" stroke-linejoin="bevel" d="M0 0C3.5775 4.15125 8.3475 9.68625 11.925 13.8375" sodipodi:nodetypes="cc"/><path id="shape22" transform="translate(305.550014930741, 265.69537433219)" fill="none" stroke="#ff0061" stroke-width="1.125" stroke-linecap="square" stroke-linejoin="bevel" d="M3.9771 0C5.44294 9.83968 1.9063 37.8246 0 42.8921" sodipodi:nodetypes="cc"/><path id="shape24" transform="translate(154.800003940233, 295.875007531114)" fill="none" stroke="#ff0061" stroke-width="1.125" stroke-linecap="square" stroke-linejoin="bevel" d="M28.4625 0C19.9238 9.3825 6.6242 20.9506 0 31.275C1.37315 36.9344 15.6488 57.9713 20.475 62.6625" sodipodi:nodetypes="ccc"/><path id="shape26" transform="translate(190.685084299021, 307.350006914923)" fill="none" stroke="#ff0061" stroke-width="1.125" stroke-linecap="square" stroke-linejoin="bevel" d="M1.29617 0C0.0192965 7.1325 -0.169112 7.1807 0.114919 12.7125" sodipodi:nodetypes="cc"/><path id="shape27" transform="translate(175.426907950123, 301.396800523368)" fill="none" stroke="#ff0061" stroke-width="1.125" stroke-linecap="square" stroke-linejoin="bevel" d="M3.87769 74.1564C-2.43265 61.2994 -1.41145 35.8448 9.68478 22.7674C18.3043 14.9975 51.8552 0.137948 68.6981 0.215713C77.5402 -0.606906 104.743 0.682546 127.648 8.31572" sodipodi:nodetypes="cccc"/><path id="shape28" transform="translate(179.274622145228, 358.649998293219)" fill="none" stroke="#ff0061" stroke-width="1.125" stroke-linecap="square" stroke-linejoin="bevel" d="M13.3254 33.8625C5.42325 26.064 -2.25194 15.6648 0.612877 8.2125C11.7421 3.29176 23.4504 1.45125 33.8004 0" sodipodi:nodetypes="ccc"/><path id="shape29" transform="translate(185.90005773421, 367.757385659432)" fill="none" stroke="#ff0061" stroke-width="1.125" stroke-linecap="square" stroke-linejoin="bevel" d="M29.7587 0C20.4911 0.373834 9.1503 2.7031 0.0866972 5.80711C-0.802777 13.747 5.27336 23.1887 12.7351 33.8085" sodipodi:nodetypes="ccc"/><path id="shape30" transform="translate(185.74446533405, 345.112062455976)" fill="none" stroke="#ff0061" stroke-width="1.125" stroke-linecap="square" stroke-linejoin="bevel" d="M3.90157 17.1564C2.92311 15.6052 -1.43424 10.6185 0.480949 3.95121C2.89476 -0.882362 8.55912 -1.69127 10.8224 3.83188C12.4911 8.7812 10.5547 13.3847 8.91319 16.3609" sodipodi:nodetypes="cccc"/><path id="shape311" transform="translate(212.995462652267, 339.356267321451)" fill="none" stroke="#ff0061" stroke-width="1.125" stroke-linecap="square" stroke-linejoin="bevel" d="M0.594976 13.4459C2.09855 8.16945 8.3553 0.51775 17.292 0C26.5785 0.0129899 33.5354 9.9809 34.9545 13.275C37.2315 19.5796 37.7638 35.564 30.4545 38.925C23.4928 42.4348 15.3338 41.2737 9.9233 36.9563C3.31333 32.6882 -1.78566 21.3776 0.594976 13.4459Z" sodipodi:nodetypes="cccccc"/><path id="shape32" transform="translate(249.944571280793, 356.931299004682)" fill="none" stroke="#ff0061" stroke-width="1.125" stroke-linecap="square" stroke-linejoin="bevel" d="M114.499 54.9875C111.417 43.355 97.4258 20.5344 83.2088 13.4512C74.6191 9.69869 62.3432 5.23095 45.1046 2.79161C38.804 2.70834 15.2881 -0.969212 0 0.246016" sodipodi:nodetypes="cccc"/><path id="shape33" transform="translate(250.740076160701, 365.829328114044)" fill="none" stroke="#ff0061" stroke-width="1.125" stroke-linecap="square" stroke-linejoin="bevel" d="M0 0.098449C16.6099 -0.211794 37.5765 0.069462 54.571 3.04178C65.8602 5.8185 82.3993 11.6898 90.4478 19.429C98.0469 26.7361 104.028 41.1867 107.235 52.6707" sodipodi:nodetypes="cccc"/><path id="shape34" transform="translate(273.586525412355, 339.935790964235)" fill="none" stroke="#ff0061" stroke-width="1.125" stroke-linecap="square" stroke-linejoin="bevel" d="M5.58222 17.6454C-2.14653 15.4798 -0.251021 5.40416 1.86973 2.90797C5.55469 -1.24607 14.1567 -0.836409 17.226 3.41421C20.4357 8.38205 17.0797 16.7568 11.4885 17.8705" sodipodi:nodetypes="cccc"/><path id="shape35" transform="translate(349.143750857429, 251.362436875157)" fill="none" stroke="#ff0061" stroke-width="1.125" stroke-linecap="square" stroke-linejoin="bevel" d="M30.2063 4.85631C23.0605 1.8199 11.4392 -0.447102 0 0.0750638" sodipodi:nodetypes="cc"/><path id="shape36" transform="translate(375.791900385029, 244.455654081963)" fill="none" stroke="#ff0061" stroke-width="1.125" stroke-linecap="square" stroke-linejoin="bevel" d="M15.8206 38.5944C10.6401 28.3588 8.31 22.5624 5.80813 15.9819C3.78582 10.8101 2.20766 7.1311 0 0" sodipodi:nodetypes="ccc"/><path id="shape1111" transform="translate(329.096327718292, 322.01643090179)" fill="none" stroke="#ff0061" stroke-width="1.125" stroke-linecap="square" stroke-linejoin="bevel" d="M63.401 0C62.2298 14.2711 54.3324 29.0722 49.86 42.1461M48.9318 38.8554C53.1926 58.3963 48.5009 73.1203 41.1271 85.5157C25.1197 95.4837 21.6536 113.49 0 122.904" sodipodi:nodetypes="ccccc"/><path id="shape2111" transform="translate(281.923482303267, 408.566313146117)" fill="none" stroke="#ff0061" stroke-width="1.125" stroke-linecap="square" stroke-linejoin="bevel" d="M52.9004 0C49.1421 16.9122 43.6353 53.2923 43.8765 85.6462C34.5138 80.7092 5.7201 66.5856 0 56.8779C5.95537 50.1061 17.5082 30.0035 23.0694 21.8761C26.6012 16.4108 31.3609 4.16159 31.263 1.19329" sodipodi:nodetypes="ccccc"/><path id="shape3111" transform="translate(282.158424148414, 474.870808153075)" fill="none" stroke="#ff0061" stroke-width="1.125" stroke-linecap="square" stroke-linejoin="bevel" d="M0.0832422 24.8592C-0.614115 18.0575 3.13902 5.95192 8.75414 0" sodipodi:nodetypes="cc"/><path id="shape411" transform="translate(295.762508663634, 483.342856138129)" fill="none" stroke="#ff0061" stroke-width="1.125" stroke-linecap="square" stroke-linejoin="bevel" d="M8.43484 0C7.7348 5.27811 2.27057 17.3633 0 21.7822" sodipodi:nodetypes="cc"/><path id="shape71" transform="translate(271.979794462426, 523.038066273895)" fill="none" stroke="#ff0061" stroke-width="1.125" stroke-linecap="square" stroke-linejoin="bevel" d="M80.8202 6.16193C64.4249 -1.28585 62.2676 8.9152 41.7827 8.86195C28.9878 7.97164 16.0933 3.84396 0 0" sodipodi:nodetypes="ccc"/><path id="shape81" transform="translate(339.964082020879, 528.356273621243)" fill="none" stroke="#ff0061" stroke-width="1.125" stroke-linecap="square" stroke-linejoin="bevel" d="M5.91721 40.5023C2.7635 28.761 -0.203248 14.6883 0.0109331 0" sodipodi:nodetypes="cc"/><path id="shape91" transform="translate(211.612503168815, 435.712506524625)" fill="none" stroke="#ff0061" stroke-width="1.125" stroke-linecap="square" stroke-linejoin="bevel" d="M83.4366 13.1058C67.8477 13.6529 57.4828 14.0633 41.625 12.2625C30.049 10.9469 20.0649 8.19557 0 0" sodipodi:nodetypes="ccc"/><path id="shape101" transform="translate(178.350008295261, 393.45189162728)" fill="none" stroke="#ff0061" stroke-width="1.125" stroke-linecap="square" stroke-linejoin="bevel" d="M30.2288 0C22.1444 6.42214 11.5808 19.0972 0 30.2288C6.06159 47.6822 3.99393 58.9807 3.1125 72.2981C0.222471 83.4509 5.74084 95.8429 8.0625 102.111C14.3544 102.67 24.7811 104.759 33.375 90.8606C39.884 82.3368 43.0784 70.0609 43.5 65.3231C43.0642 53.1977 25.3634 33.984 23.5875 28.7606" sodipodi:nodetypes="ccccccc"/><path id="shape0111" transform="translate(358.875009224645, 235.575015042069)" fill="none" stroke="#ff0061" stroke-width="1.125" stroke-linecap="square" stroke-linejoin="bevel" d="M56.925 0C60.8699 13.9942 72.7425 52.8301 70.2 62.1C65.3803 74.5252 29.5393 87.833 1.35 101.925C1.60754 98.2572 1.38676 73.4447 0 68.7375C7.21456 65.4397 32.6855 49.3266 39.375 41.9625" sodipodi:nodetypes="ccccc"/><path id="shape011" transform="translate(159.60372064824, 479.362515258496)" fill="none" stroke="#ff0061" stroke-width="1.125" stroke-linecap="square" stroke-linejoin="bevel" d="M55.9463 0C71.9736 6.6287 72.1123 17.4006 70.9088 21.4875C66.04 28.8478 57.5402 33.9469 49.1342 39.2207C43.7127 42.1854 35.4764 51.9133 27.815 55.4488C18.2641 58.6683 9.87668 57.9192 0.688543 56.2443C-0.453674 53.042 -1.33664 38.9515 8.07757 34.65C26.842 32.7294 43.1197 27.5322 48.6569 9.867" sodipodi:nodetypes="ccccccc"/><path id="shape11111" transform="translate(158.383076743321, 501.718777583621)" fill="none" stroke="#ff0061" stroke-width="1.125" stroke-linecap="square" stroke-linejoin="bevel" d="M71.9923 0C76.222 13.4591 85.051 26.7554 89.1169 35.3562C82.9161 44.7423 73.0351 48.8594 69.5982 50.9937C68.5566 47.5381 65.3026 38.5822 59.1848 40.8089C53.2016 43.6482 55.7456 53.2334 58.2302 58.1507C52.0823 66.3747 6.67473 77.6477 0 68.7307C3.054 59.1616 3.74452 49.3433 3.18199 35.0018" sodipodi:nodetypes="ccccccc"/><path id="shape21111" transform="translate(169.122264664948, 538.470653582801)" fill="none" stroke="#ff0061" stroke-width="1.125" stroke-linecap="square" stroke-linejoin="bevel" d="M0 33.4903C2.59583 20.4749 1.06789 9.37088 0.159099 0" sodipodi:nodetypes="cc"/><path id="shape111111" transform="translate(367.957142685581, 163.158892550499)" fill="none" stroke="#ff0061" stroke-width="1.125" stroke-linecap="square" stroke-linejoin="bevel" d="M39.4955 65.3869C42.2645 66.9165 45.7558 65.9711 47.6891 70.9553C41.2981 85.9454 21.5632 89.0678 7.34286 79.9536C5.71043 70.9059 19.4424 67.6305 23.3741 66.3974M44.0741 75.3974C42.0661 72.9644 39.029 69.6998 38.4491 64.9349C41.2653 61.5771 43.8417 61.8199 49.6991 58.8599C55.606 55.6231 61.7577 48.001 62.6929 46.7661C65.7451 42.7359 77.4855 23.3919 77.1621 21.4755C74.9735 20.1581 70.5822 17.5461 65.8263 18.0549C64.2395 19.0316 58.8199 26.133 57.0759 27.5213C55.9276 28.5159 53.1844 34.9774 51.8256 46.0563C50.8884 45.8375 54.3147 4.29788 53.0179 2.66612C50.2755 -0.0626278 47.5795 -1.33705 43.6804 1.99112C42.2592 4.05568 38.3133 35.8006 37.4929 35.8536C36.9004 35.8919 34.393 10.3228 33.2741 7.55986C30.2609 5.66961 27.2679 5.65154 24.6679 8.06612C24.0227 10.5468 24.6449 36.14 24.2179 36.1911C23.8419 36.2361 23.9356 22.6849 21.0679 20.4974C14.1672 17.4654 14.8765 17.2061 11.0167 21.0778C12.1047 23.7994 15.1571 37.575 14.5991 37.7099C13.5371 37.9666 13.4864 24.9291 7.99386 21.8733C5.48804 19.3783 -1.46752 25.8498 0.277555 27.044C5.20485 28.9298 11.9742 43.0379 17.0179 60.4911C20.577 63.7965 23.0095 65.8433 24.8584 67.2165C27.2286 72.2083 25.3017 80.6237 24.6197 84.3992" sodipodi:nodetypes="cccccccccccccccccccccccccc"/><path id="shape01111" transform="translate(309.447605116763, 207.000015680953)" fill="none" stroke="#ff0061" stroke-width="1.125" stroke-linecap="square" stroke-linejoin="bevel" d="M0 87.9696C8.24956 77.0202 56.8452 24.7601 62.7024 18.45C64.2828 14.2272 68.4279 3.4402 69.5087 0" sodipodi:nodetypes="ccc"/><path id="shape0" transform="translate(309.606711482665, 205.256256816044)" fill="none" stroke="#ff0061" stroke-width="1.125" stroke-linecap="square" stroke-linejoin="bevel" d="M69.1808 0C49.2766 2.55012 14.9671 40.5619 9.66831 46.1813C6.64849 50.1364 2.78117 55.6884 0 59.8823" sodipodi:nodetypes="ccc"/><path id="shape11" transform="translate(264.262501806821, 500.343766319937)" fill="none" stroke="#ff0061" stroke-width="1.125" stroke-linecap="square" stroke-linejoin="bevel" d="M17.8996 0.0226603C5.88067 0.389629 6.35401 18.004 7.42501 26.2688C8.42671 38.4842 1.39464 63.2637 0 68.7937C3.82624 71.9403 12.4316 74.7722 19.2375 74.6437C21.0503 66.9332 23.7483 57.414 29.1375 57.8812C34.809 58.6419 32.1497 71.9769 31.0253 75.5947C52.1882 76.8301 82.6392 65.967 98.4375 70.1437C93.5314 63.4457 87.4122 37.5283 88.65 27.8437C88.1701 23.1968 84.6295 3.04237 68.1188 6.07501C62.683 7.9745 50.4268 11.1228 42.56 11.0801C32.9981 8.40721 28.4077 3.80586 17.325 0" sodipodi:nodetypes="ccccccccccc"/><path id="shape21" transform="translate(205.42500307616, 435.217956057482)" fill="none" stroke="#ff0061" stroke-width="1.125" stroke-linecap="square" stroke-linejoin="bevel" d="M33.1875 0.26955C24.4243 0.0231835 8.17878 -0.315384 0 0.60705" sodipodi:nodetypes="cc"/>
</svg>
