<?xml version="1.0" standalone="no"?>
<!DOCTYPE svg PUBLIC "-//W3C//DTD SVG 20010904//EN" "http://www.w3.org/TR/2001/REC-SVG-20010904/DTD/svg10.dtd">
<!-- Created using Krita: https://krita.org -->
<svg xmlns="http://www.w3.org/2000/svg" 
    xmlns:xlink="http://www.w3.org/1999/xlink"
    xmlns:krita="http://krita.org/namespaces/svg/krita"
    xmlns:sodipodi="http://sodipodi.sourceforge.net/DTD/sodipodi-0.dtd"
    width="675pt"
    height="675pt"
    viewBox="0 0 675 675">
<defs/>
<path id="shape0" transform="matrix(1.01282858124408 0.00717594418181869 -0.00726667337137541 1.02563429907129 235.073603387045 598.263444025934)" fill="none" stroke="#f70f4c" stroke-width="1.575" stroke-linecap="square" stroke-linejoin="bevel" d="M0 71.4806C1.12688 67.0858 1.55522 52.7181 4.66504 46.6917C8.00774 34.6176 13.5392 15.8831 21.8441 0" sodipodi:nodetypes="ccc"/><path id="shape1" transform="matrix(1.01282858124408 0.00717594418181869 -0.00726667337137541 1.02563429907129 246.837041038731 537.09952075551)" fill="none" stroke="#f70f4c" stroke-width="1.575" stroke-linecap="square" stroke-linejoin="bevel" d="M3.61728 72.345C-3.3637 56.5893 -0.707886 40.8937 15.6919 21.3652C37.2309 1.52963 46.6442 0.468755 74.9638 5.83397e-05C96.7421 -0.0518522 117.883 34.5502 127.655 57.4854C134.645 74.5593 140.689 90.982 144.538 110.792" sodipodi:nodetypes="ccccc"/><path id="shape01" transform="matrix(1.01282858124408 0.00717594418181869 -0.00726667337137541 1.02563429907129 272.23458382668 367.833896602436)" fill="none" stroke="#f70f4c" stroke-width="1.575" stroke-linecap="square" stroke-linejoin="bevel" d="M0 183.658C10.683 143.444 12.455 141.628 17.77 121.45C21.5096 108.752 60.8803 10.8249 68.4375 0" sodipodi:nodetypes="ccc"/><path id="shape11" transform="matrix(1.01282858124408 0.00717594418181869 -0.00726667337137541 1.02563429907129 357.182864911636 385.668526428257)" fill="none" stroke="#f70f4c" stroke-width="1.575" stroke-linecap="square" stroke-linejoin="bevel" d="M0 172.323C2.74597 152.183 3.71205 143.92 6.76935 122.347C11.5924 98.1511 13.2757 88.1705 16.3942 70.5064C18.6143 61.5472 27.3683 7.02482 28.773 0" sodipodi:nodetypes="cccc"/><path id="shape2" transform="matrix(1.01282858124408 0.00717594418181869 -0.00726667337137541 1.02563429907129 287.793584283461 334.06733428838)" fill="none" stroke="#f70f4c" stroke-width="1.575" stroke-linecap="square" stroke-linejoin="bevel" d="M30.1215 82.7698C17.052 69.7877 -21.5132 30.3781 15.939 11.1503C49.6837 -4.26211 92.6652 -8.94348 121.811 32.0914C146.964 70.2712 109.934 81.2292 90.7091 86.2278" sodipodi:nodetypes="cccc"/><path id="shape3" transform="matrix(1.01282858124408 0.00717594418181869 -0.00726667337137541 1.02563429907129 302.737163739804 361.493962498376)" fill="none" stroke="#f70f4c" stroke-width="1.575" stroke-linecap="square" stroke-linejoin="bevel" d="M0 15.4354C8.8441 10.5803 11.9097 8.36188 21.9194 5.19069C35.3822 0.974655 45.7304 -1.83809 59.4357 1.41818C71.9092 4.98934 87.0984 22.4579 95.2329 36.7067" sodipodi:nodetypes="cccc"/><path id="shape4" transform="matrix(1.01282858124408 0.00717594418181869 -0.00726667337137541 1.02563429907129 231.089783248334 52.0691796766587)" fill="none" stroke="#f70f4c" stroke-width="1.575" stroke-linecap="square" stroke-linejoin="bevel" d="M76.0936 283.523C71.073 260.864 66.8211 213.52 64.6337 186.145C54.8559 174.122 51.8441 170.942 48.177 121.764C37.8047 97.9082 29.788 59.1253 10.7165 40.4178C-6.41416 13.0755 -2.83117 -2.85479 20.2041 0.424944C42.0169 9.74857 43.808 13.3299 56.893 36.146C67.6433 63.7764 87.6655 95.6922 99.1808 109.122" sodipodi:nodetypes="ccccccc"/><path id="shape6" transform="matrix(0.997746522844403 0.174284552705364 -0.176488122830571 1.01036155037347 369.98590846018 2.59340868088281)" fill="none" stroke="#f70f4c" stroke-width="1.575" stroke-linecap="square" stroke-linejoin="bevel" d="M43.0604 188.714C40.0398 181.998 26.5472 171.447 27.4499 165.716C28.9631 146.786 30.5388 144.584 30.671 127.985C31.1241 92.8798 22.8195 64.1376 9.92077 43.8235C2.26083 29.5211 -3.50541 15.6182 2.4878 6.89189C18.9 -7.68439 31.7037 2.65845 43.4894 21.1586C52.391 32.9082 60.452 50.3062 64.0042 64.1165C69.8862 89.5098 70.2837 102.854 72.6353 127.997C76.2141 153.799 82.7547 171.736 88.0797 192.461" sodipodi:nodetypes="ccccccccc"/><path id="shape7" transform="matrix(1.01282858124408 0.00717594418181869 -0.00726667337137541 1.02563429907129 415.795410514876 233.527455639024)" fill="none" stroke="#f70f4c" stroke-width="1.575" stroke-linecap="square" stroke-linejoin="bevel" d="M0 138.293C15.5925 135.931 26.1363 124.18 35.55 116.356C52.1469 98.7012 68.344 71.9221 85.5 56.2808C103.137 45.7862 124.557 32.3514 135.675 21.8558C136.846 7.23282 129.512 1.84213 114.859 0C98.5439 0.880024 92.2176 3.10692 79.469 6.92575C69.571 13.2224 49.9524 31.0664 31.6658 41.8209" sodipodi:nodetypes="ccccccc"/><path id="shape8" transform="matrix(1.01282858124408 0.00717594418181869 -0.00726667337137541 1.02563429907129 317.2710624102 234.131020631631)" fill="none" stroke="#f70f4c" stroke-width="1.575" stroke-linecap="square" stroke-linejoin="bevel" d="M0 0C5.56054 38.7662 13.9382 50.012 19.0156 52.7422" sodipodi:nodetypes="cc"/><path id="shape9" transform="matrix(1.01282858124408 0.00717594418181869 -0.00726667337137541 1.02563429907129 348.907993533158 212.025058496568)" fill="none" stroke="#f70f4c" stroke-width="1.575" stroke-linecap="square" stroke-linejoin="bevel" d="M1.38711 0C-0.889118 25.4855 -0.459188 39.5739 3.38641 57.3655" sodipodi:nodetypes="cc"/><path id="shape10" transform="matrix(1.01282858124408 0.00717594418181869 -0.00726667337137541 1.02563429907129 374.288555989091 231.561824456106)" fill="none" stroke="#f70f4c" stroke-width="1.575" stroke-linecap="square" stroke-linejoin="bevel" d="M7.49847 0C2.2518 21.5068 -1.16253 36.0662 0.367606 53.6299" sodipodi:nodetypes="cc"/><path id="shape111" transform="matrix(1.01282858124408 0.00717594418181869 -0.00726667337137541 1.02563429907129 422.604598738507 202.871939930774)" fill="none" stroke="#f70f4c" stroke-width="1.575" stroke-linecap="square" stroke-linejoin="bevel" d="M33.9832 77.0553C20.5054 68.936 14.4249 58.9637 7.9972 38.8287C4.78906 25.3146 1.35 13.2975 0 0" sodipodi:nodetypes="ccc"/><path id="shape011" transform="matrix(0.997331580207906 0.176643562803197 -0.178876959118367 1.00994136140169 350.763092480564 45.2909839055721)" fill="none" stroke="#f70f4c" stroke-width="1.575" stroke-linecap="square" stroke-linejoin="bevel" d="M5.24875 152.665C-0.391242 123.173 0.316191 119.7 0.0101153 102.298C-0.367469 88.3887 9.92032 50.2828 15.0312 37.9329C19.4209 20.9175 21.7653 10.8863 24.4065 0" sodipodi:nodetypes="cccc"/>
</svg>
