<?xml version="1.0" standalone="no"?>
<!DOCTYPE svg PUBLIC "-//W3C//DTD SVG 20010904//EN" "http://www.w3.org/TR/2001/REC-SVG-20010904/DTD/svg10.dtd">
<!-- Created using Krita: https://krita.org -->
<svg xmlns="http://www.w3.org/2000/svg" 
    xmlns:xlink="http://www.w3.org/1999/xlink"
    xmlns:krita="http://krita.org/namespaces/svg/krita"
    xmlns:sodipodi="http://sodipodi.sourceforge.net/DTD/sodipodi-0.dtd"
    width="675pt"
    height="675pt"
    viewBox="0 0 675 675">
<defs/>
<path id="shape0" transform="matrix(0.851930360319719 0 0 0.844674403845858 177.975004503362 513.900013003387)" fill="none" stroke="#f70f4c" stroke-width="1.575" stroke-linecap="square" stroke-linejoin="bevel" d="M0 72.9867C1.12688 68.5919 5.47363 54.1071 8.58345 48.0807C15.7026 32.7161 20.2344 16.2293 30.2401 0" sodipodi:nodetypes="ccc"/><path id="shape1" transform="matrix(0.851930360319719 0 0 0.844674403845858 185.041210983415 456.647658880721)" fill="none" stroke="#f70f4c" stroke-width="1.575" stroke-linecap="square" stroke-linejoin="bevel" d="M2.2699 110.267C0.504711 94.3709 -2.28415 71.4891 3.35092 55.3369C13.45 33.1964 36.0996 -1.4629 78.4336 0.0477741C140.129 5.56145 153.818 43.1049 161.716 69.4636C166.617 91.826 174.295 127.64 178.957 151.963" sodipodi:nodetypes="ccccc"/><path id="shape01" transform="matrix(0.851930360319719 0 0 0.844674403845858 240.050781725507 328.232807456728)" fill="none" stroke="#f70f4c" stroke-width="1.575" stroke-linecap="square" stroke-linejoin="bevel" d="M0 151.987C19.7437 113.512 77.1413 5.97375 80.8875 0" sodipodi:nodetypes="cc"/><path id="shape11" transform="matrix(0.851930360319719 0 0 0.844674403845858 320.266344326742 349.425)" fill="none" stroke="#f70f4c" stroke-width="1.575" stroke-linecap="square" stroke-linejoin="bevel" d="M0 185.29C7.18357 161.54 50.4184 8.02198 52.4499 0" sodipodi:nodetypes="cc"/><path id="shape2" transform="matrix(0.851930360319719 0 0 0.844674403845858 281.97620010087 298.656843251915)" fill="none" stroke="#f70f4c" stroke-width="1.575" stroke-linecap="square" stroke-linejoin="bevel" d="M10.108 74.8876C-5.1813 62.1404 -5.09627 19.2938 24.1377 5.53963C57.8824 -9.87281 115.83 8.76367 124.712 38.1646C135.728 67.3476 103.413 81.8882 90.0001 81.1474" sodipodi:nodetypes="cccc"/><path id="shape3" transform="matrix(0.851930360319719 0 0 0.844674403845858 299.02500783212 328.465818472354)" fill="none" stroke="#f70f4c" stroke-width="1.575" stroke-linecap="square" stroke-linejoin="bevel" d="M0 1.9051C50.7732 -5.67821 73.8042 10.4943 82.137 30.6736" sodipodi:nodetypes="cc"/><path id="shape4" transform="matrix(0.851930360319719 0 0 0.844674403845858 213.103995147976 95.7542824344392)" fill="none" stroke="#f70f4c" stroke-width="1.575" stroke-linecap="square" stroke-linejoin="bevel" d="M104.778 246.02C96.3018 224.912 95.4384 189.765 91.0519 162.39C81.2741 150.367 57.0694 131.81 51.5541 94.017C41.1818 70.1615 30.664 60.2884 12.8966 40.3357C3.31888 32.298 -5.27036 19.8675 3.9325 5.01904C22.8081 -8.27397 55.4395 3.88802 82.9303 52.9285C94.9662 73.9686 100.41 95.613 114.984 102.002" sodipodi:nodetypes="ccccccc"/><path id="shape6" transform="matrix(0.851930360319719 0 0 0.844674403845858 323.470905484544 31.0500028558965)" fill="none" stroke="#f70f4c" stroke-width="1.575" stroke-linecap="square" stroke-linejoin="bevel" d="M33.1061 216.563C30.0855 209.847 21.3283 190.95 22.231 185.219C27.9108 170.939 30.4389 154.924 30.6476 138.757C31.1007 103.652 19.6048 67.2703 6.70607 46.9562C-0.953858 32.6538 -1.79728 12.1027 2.88105 6.23119C19.2932 -8.34509 38.9078 4.831 50.6935 23.3312C59.5951 35.0808 64.4918 55.7647 66.4435 70.4687C74.5457 94.8659 81.5294 127.788 83.881 152.931C87.4598 178.733 84.5424 184.524 86.356 206.144" sodipodi:nodetypes="ccccccccc"/><path id="shape7" transform="matrix(0.851930360319719 0 0 0.844674403845858 389.947946587922 229.949999958233)" fill="none" stroke="#f70f4c" stroke-width="1.575" stroke-linecap="square" stroke-linejoin="bevel" d="M0 138.293C15.5925 135.931 26.1363 124.18 35.55 116.356C52.1469 98.7012 68.344 71.9221 85.5 56.2808C103.137 45.7862 135.22 32.7901 135.675 21.8558C136.846 7.23282 129.512 1.84213 114.859 0C98.5439 0.880024 92.2176 3.10692 79.469 6.92575C69.571 13.2224 49.9524 31.0664 31.6658 41.8209" sodipodi:nodetypes="ccccccc"/><path id="shape8" transform="matrix(0.851930360319719 0 0 0.844674403845858 311.625 240.75)" fill="none" stroke="#f70f4c" stroke-width="1.575" stroke-linecap="square" stroke-linejoin="bevel" d="M0 0C5.56054 38.7662 13.9382 50.012 19.0156 52.7422" sodipodi:nodetypes="cc"/><path id="shape9" transform="matrix(0.851930360319719 0 0 0.844674403845858 337.5 227.7)" fill="none" stroke="#f70f4c" stroke-width="1.575" stroke-linecap="square" stroke-linejoin="bevel" d="M0 0C0.278433 27.8986 0.90831 50.134 4.75391 67.9256" sodipodi:nodetypes="cc"/><path id="shape10" transform="matrix(0.851930360319719 0 0 0.844674403845858 358.336825349556 234.225)" fill="none" stroke="#f70f4c" stroke-width="1.575" stroke-linecap="square" stroke-linejoin="bevel" d="M7.49847 0C2.2518 23.8214 -1.16253 39.9477 0.367606 59.4016" sodipodi:nodetypes="cc"/><path id="shape111" transform="matrix(0.851930360319719 0 0 0.844674403845858 396.848570773941 202.988698309536)" fill="none" stroke="#f70f4c" stroke-width="1.575" stroke-linecap="square" stroke-linejoin="bevel" d="M31.725 77.175C18.2472 69.0557 10.9277 59.735 4.5 39.6C1.29186 26.0859 1.35 13.2975 0 0" sodipodi:nodetypes="ccc"/><path id="shape011" transform="matrix(0.851930360319719 0 0 0.844674403845858 311.156330344128 100.462499548021)" fill="none" stroke="#f70f4c" stroke-width="1.575" stroke-linecap="square" stroke-linejoin="bevel" d="M13.0951 143.576C-3.3396 110.398 -1.12105 91.6776 2.82345 75.3671C6.55311 66.1317 17.3112 49.2933 20.7542 40.6222C28.4507 23.8468 28.148 12.0684 36.4685 0" sodipodi:nodetypes="cccc"/>
</svg>
